<?xml version="1.0" encoding="UTF-8" standalone="no"?>
<!DOCTYPE svg  PUBLIC '-//W3C//DTD SVG 1.1//EN'  'http://www.w3.org/Graphics/SVG/1.1/DTD/svg11.dtd'>
<svg xmlns="http://www.w3.org/2000/svg">
<defs>
<font id="DaxlinePro-Light" horiz-adv-x="368">
<font-face underline-position="-95" font-weight="350" descent="-200" panose-1="2 0 5 3 4 0 0 2 0 4" units-per-em="1000" unicode-range="U+000D-FB02" bbox="-298 -325 1283 1020" x-height="539" underline-thickness="48" font-family="DaxlinePro" ascent="800" cap-height="724"/>
<missing-glyph d="M50 605v-510l170 255zM80 50h340l-170 255zM280 350l170 -255v510zM250 395l170 255h-340zM0 0v700h500v-700h-500z" horiz-adv-x="500"/>
<glyph glyph-name="fi" horiz-adv-x="569" unicode="fi" d="M311 736h-8q-57 0 -92.5 -30t-35.5 -89v-78h126v-45h-126v-494h-57v494h-80v45h80v78q0 81 50.5 125t127.5 44q3 0 8.5 -0.5t6.5 -0.5v-49zM484 0h-59v539h59v-539zM496 690q0 -17 -12 -28.5t-29 -11.5t-29 11.5t-12 28.5t12 28.5t29 11.5t29 -11.5t12 -28.5z"/>
<glyph glyph-name="fl" horiz-adv-x="582" unicode="fl" d="M311 736h-8q-57 0 -92.5 -30t-35.5 -89v-78h126v-45h-126v-494h-57v494h-80v45h80v78q0 81 50.5 125t127.5 44q3 0 8.5 -0.5t6.5 -0.5v-49zM498 0h-59v785h59v-785z"/>
<glyph glyph-name=".notdef" d="M50 605v-510l170 255zM80 50h340l-170 255zM280 350l170 -255v510zM250 395l170 255h-340zM0 0v700h500v-700h-500z" horiz-adv-x="500"/>
<glyph glyph-name=".null" horiz-adv-x="0"/>
<glyph glyph-name=".null" horiz-adv-x="0"/>
<glyph glyph-name="nonmarkingreturn" horiz-adv-x="333"/>
<glyph glyph-name="CR" horiz-adv-x="282" unicode=""/>
<glyph glyph-name="space" horiz-adv-x="282" unicode=" "/>
<glyph glyph-name="exclam" horiz-adv-x="266" unicode="!" d="M178 39q0 -19 -13 -32t-32 -13t-32 13t-13 32t13 32t32 13t32 -13t13 -32zM168 724l-9 -500h-51l-9 500h69z"/>
<glyph glyph-name="quotedbl" horiz-adv-x="430" unicode='&quot;' d="M148 714l-12 -299h-40l-12 299q11 17 32 17t32 -17zM346 714l-11 -299h-40l-12 299q11 17 32 17q20 0 31 -17z"/>
<glyph glyph-name="numbersign" horiz-adv-x="767" unicode="#" d="M497 469h-199l-29 -206h199zM687 469h-140l-29 -206h133v-44h-140l-31 -219h-50l31 219h-199l-31 -219h-50l31 219h-134v44h141l29 206h-134v44h141l30 211h50l-30 -211h199l30 211h50l-30 -211h133v-44z"/>
<glyph glyph-name="dollar" horiz-adv-x="589" unicode="$" d="M508 188q0 -85 -61 -136.5t-161 -59.5l2 -151h-56l12 149q-99 4 -170 37l24 52q28 -14 74.5 -24.5t80.5 -10.5q90 0 141 36.5t51 105.5q0 25 -9.5 46.5t-22.5 36t-37 29t-42 23t-48 20.5q-45 18 -75 34.5t-62.5 41t-49 58t-16.5 74.5q0 79 54 127t143 56l-2 144h55 l-12 -142q89 -2 154 -37l-22 -50q-60 34 -140 34q-79 0 -124 -34t-45 -96q0 -31 13.5 -55.5t42 -44t51.5 -31t62 -27.5q43 -18 71 -32.5t60 -39t48 -58t16 -75.5z"/>
<glyph glyph-name="percent" horiz-adv-x="957" unicode="%" d="M326 509q0 83 -26 131.5t-74 48.5t-73.5 -48.5t-25.5 -131.5t25.5 -131t73.5 -48t74 48t26 131zM830 215q0 83 -26 131.5t-74 48.5t-73.5 -48.5t-25.5 -131.5t25.5 -131t73.5 -48t74 48t26 131zM378 509q0 -103 -39.5 -164t-112.5 -61t-112.5 61t-39.5 164t39.5 164 t112.5 61t112.5 -61t39.5 -164zM635 717l-268 -725l-45 15l268 725zM882 215q0 -103 -39.5 -164t-112.5 -61t-112 61t-39 164t39 164t112 61t112.5 -61t39.5 -164z"/>
<glyph glyph-name="ampersand" horiz-adv-x="716" unicode="&amp;" d="M481 62v329l-164 -26q-197 -31 -197 -176q0 -149 218 -149q85 0 143 22zM676 424l-136 -22v-375q-82 -37 -203 -37q-277 0 -277 196q0 78 46 128t127 73v2q-70 17 -104.5 60.5t-34.5 103.5q0 85 59 133t161 48q89 0 159 -37l-21 -48q-60 33 -134 33q-78 0 -121.5 -33 t-43.5 -98q0 -60 42 -96.5t107 -36.5q51 0 89 7l277 48z"/>
<glyph glyph-name="quotesingle" horiz-adv-x="232" unicode="&apos;" d="M148 714l-12 -299h-40l-12 299q11 17 32 17t32 -17z"/>
<glyph glyph-name="parenleft" horiz-adv-x="360" unicode="(" d="M318 -184l-45 -30q-94 121 -147 243t-53 267t53 267t147 243l45 -30q-182 -241 -182 -480t182 -480z"/>
<glyph glyph-name="parenright" horiz-adv-x="360" unicode=")" d="M287 296q0 -145 -53 -267t-147 -243l-45 30q182 241 182 480t-182 480l45 30q94 -121 147 -243t53 -267z"/>
<glyph glyph-name="asterisk" horiz-adv-x="596" unicode="*" d="M530 620q0 -11 -5 -20l-190 -53l121 -153q-1 -14 -11.5 -24.5t-24.5 -10.5q-7 0 -11 1l-106 162l-107 -162q-4 -1 -10 -1q-14 0 -24.5 10.5t-11.5 24.5l121 153l-190 53q-6 10 -6 20q0 21 23 32l183 -67l-7 197q12 14 29 14t29 -14l-7 -197l183 67q22 -10 22 -32z"/>
<glyph glyph-name="plus" horiz-adv-x="573" unicode="+" d="M497 300h-183v-189h-54v189h-184v50h184v189h54v-189h183v-50z"/>
<glyph glyph-name="comma" horiz-adv-x="244" unicode="," d="M171 62l-109 -231h-46l84 231q15 22 41 22q25 0 30 -22z"/>
<glyph glyph-name="hyphen" horiz-adv-x="416" unicode="-" d="M341 297h-266v56h266v-56z"/>
<glyph glyph-name="period" horiz-adv-x="244" unicode="." d="M167 39q0 -19 -13 -32t-32 -13t-32 13t-13 32t13 32t32 13t32 -13t13 -32z"/>
<glyph glyph-name="slash" horiz-adv-x="449" unicode="/" d="M403 776l-338 -969l-56 19l339 969z"/>
<glyph glyph-name="zero" horiz-adv-x="578" unicode="0" d="M456 270q0 104 -42.5 166.5t-124.5 62.5t-124.5 -62.5t-42.5 -166.5t42.5 -166.5t124.5 -62.5t124.5 62.5t42.5 166.5zM516 270q0 -124 -58.5 -202t-168.5 -78t-168.5 78t-58.5 202t58.5 201.5t168.5 77.5t168.5 -77.5t58.5 -201.5z"/>
<glyph glyph-name="one" horiz-adv-x="408" unicode="1" d="M307 0h-60v462q-31 -22 -88.5 -44t-114.5 -33l-11 50q65 13 132 42.5t94 61.5h48v-539z"/>
<glyph glyph-name="two" horiz-adv-x="498" unicode="2" d="M448 0h-418l259 260q76 76 76 128q0 50 -35 80t-103 30q-78 0 -150 -33l-21 47q79 37 175 37t145.5 -43t49.5 -114q0 -73 -91 -159l-191 -181h304v-52z"/>
<glyph glyph-name="three" horiz-adv-x="483" unicode="3" d="M433 36q0 -91 -67 -148t-174 -57q-96 0 -169 35l20 49q64 -32 146 -32t133 41t51 112q0 75 -59 114.5t-153 39.5h-21v46q85 6 144 46.5t59 100.5q0 57 -38 86t-106 29q-73 0 -139 -33l-21 47q74 37 164 37q93 0 146 -43.5t53 -120.5q0 -60 -44 -103t-101 -58v-2 q33 -7 61.5 -19.5t55.5 -33.5t43 -55t16 -78z"/>
<glyph glyph-name="four" horiz-adv-x="580" unicode="4" d="M399 482h-2q-23 -44 -50 -84l-236 -352h285v342zM530 0h-79v-159h-56v159h-341v47l331 492h66v-493h79v-46z"/>
<glyph glyph-name="five" horiz-adv-x="493" unicode="5" d="M443 42q0 -96 -67.5 -153.5t-174.5 -57.5q-92 0 -168 35l20 49q64 -32 147 -32q81 0 132 43.5t51 114.5q0 166 -215 166q-39 0 -97 -8l37 340h319v-52h-267l-26 -235q29 3 55 3q112 0 183 -51.5t71 -161.5z"/>
<glyph glyph-name="six" horiz-adv-x="577" unicode="6" d="M456 204q0 79 -49 120t-131 41q-78 0 -147 -31q-9 -37 -9 -85q0 -91 45 -150t127 -59q72 0 118 49t46 115zM515 203q0 -87 -62.5 -150t-160.5 -63q-111 0 -170.5 73.5t-59.5 186.5q0 96 42 187t128.5 165t203.5 106l18 -51q-118 -32 -197 -105t-113 -167q61 27 137 27 q106 0 170 -55t64 -154z"/>
<glyph glyph-name="seven" horiz-adv-x="526" unicode="7" d="M486 539l-319 -698h-66l301 646h-358v52h442z"/>
<glyph glyph-name="eight" horiz-adv-x="578" unicode="8" d="M458 167q0 35 -12.5 61.5t-41 47.5t-51 33t-64.5 30q-42 -18 -64.5 -30t-51 -33t-41 -47.5t-12.5 -61.5q0 -58 46 -93.5t123 -35.5t123 35.5t46 93.5zM438 540q0 55 -39 88t-110 33t-110 -33t-39 -88t37.5 -87t111.5 -65q36 16 57.5 27.5t45.5 30t35 42t11 52.5zM516 166 q0 -79 -63.5 -127.5t-163.5 -48.5t-163.5 48.5t-63.5 127.5q0 75 45 118t128 80q-73 33 -112.5 72.5t-39.5 104.5q0 74 56 120.5t150 46.5t150 -46.5t56 -120.5q0 -65 -39.5 -104.5t-112.5 -72.5q83 -37 128 -80t45 -118z"/>
<glyph glyph-name="nine" horiz-adv-x="577" unicode="9" d="M457 290q0 91 -45 150t-127 59q-73 0 -118.5 -48.5t-45.5 -114.5q0 -79 49 -120.5t131 -41.5q78 0 147 31q9 37 9 85zM515 289q0 -96 -42 -187t-128.5 -165t-203.5 -106l-18 51q118 32 197 105t113 167q-61 -27 -137 -27q-106 0 -170 55t-64 154q0 87 62.5 150t160.5 63 q111 0 170.5 -73.5t59.5 -186.5z"/>
<glyph glyph-name="colon" horiz-adv-x="272" unicode=":" d="M181 39q0 -19 -13 -32t-32 -13t-32 13t-13 32t13 32t32 13t32 -13t13 -32zM181 361q0 -19 -13 -32t-32 -13t-32 13t-13 32t13 32t32 13t32 -13t13 -32z"/>
<glyph glyph-name="semicolon" horiz-adv-x="272" unicode=";" d="M184 62l-110 -231h-46l84 231q15 22 41 22q25 0 31 -22zM182 361q0 -19 -13 -32t-32 -13t-32 13t-13 32t13 32t32 13t32 -13t13 -32z"/>
<glyph glyph-name="less" horiz-adv-x="573" unicode="&lt;" d="M497 97l-421 207v42l421 207v-59l-361 -169l361 -169v-59z"/>
<glyph glyph-name="equal" horiz-adv-x="573" unicode="=" d="M497 202h-421v51h421v-51zM497 397h-421v51h421v-51z"/>
<glyph glyph-name="greater" horiz-adv-x="573" unicode="&gt;" d="M497 304l-421 -207v59l362 169l-362 169v59l421 -207v-42z"/>
<glyph glyph-name="question" horiz-adv-x="467" unicode="?" d="M258 39q0 -19 -13 -32t-32 -13t-32 13t-13 32t13 32t32 13t32 -13t13 -32zM415 556q0 -68 -53.5 -119t-119.5 -72l-4 -141h-50l-5 174q71 18 120 58.5t49 97.5q0 60 -39 94t-114 34q-83 0 -143 -32l-22 47q70 37 169 37q101 0 156.5 -48t55.5 -130z"/>
<glyph glyph-name="at" horiz-adv-x="1035" unicode="@" d="M643 39v414q-37 24 -96 24q-82 0 -130.5 -57t-48.5 -157q0 -112 65 -168.5t183 -56.5zM969 335q0 -171 -97.5 -258t-253.5 -87q-145 0 -225 70.5t-80 202.5q0 119 64 190t171 71q91 0 149 -48v-431q217 46 217 290q0 72 -21.5 133.5t-65 111t-116.5 78t-168 28.5 q-194 0 -308 -123.5t-114 -309.5q0 -188 122.5 -309t353.5 -121q184 0 312 91l27 -41q-135 -98 -339 -98q-129 0 -231.5 37t-167 102.5t-98.5 151.5t-34 187q0 133 56 241t166 174t255 66q107 0 190.5 -33t134 -89.5t76 -126.5t25.5 -150z"/>
<glyph glyph-name="A" horiz-adv-x="653" unicode="A" d="M463 279l-112 313l-24 82h-2q-10 -44 -23 -82l-112 -313h273zM626 0h-64l-83 231h-305l-83 -231h-64l265 724h69z"/>
<glyph glyph-name="B" horiz-adv-x="603" unicode="B" d="M485 192q0 93 -77 132q-51 26 -144 26h-118v-289q56 -21 134 -21q97 0 151 40t54 112zM460 547q0 64 -49 100.5t-135 36.5q-79 0 -130 -21v-265h113q59 0 88.5 6.5t57.5 25.5q25 17 40 49t15 68zM546 190q0 -93 -70.5 -146.5t-195.5 -53.5q-115 0 -193 37v670 q79 37 189 37q115 0 179 -50t64 -134q0 -69 -39 -113.5t-88 -56.5v-2q60 -13 107 -59.5t47 -128.5z"/>
<glyph glyph-name="C" horiz-adv-x="548" unicode="C" d="M496 27q-54 -37 -153 -37q-121 0 -201 95.5t-80 276.5t80 276.5t201 95.5q99 0 153 -37l-21 -50q-49 33 -128 33q-96 0 -159 -80.5t-63 -237.5t62.5 -237t159.5 -80q81 0 128 32z"/>
<glyph glyph-name="D" horiz-adv-x="638" unicode="D" d="M515 362q0 158 -69 238.5t-177 80.5q-78 0 -123 -20v-598q40 -20 123 -20q108 0 177 80.5t69 238.5zM577 362q0 -181 -86.5 -276.5t-222.5 -95.5q-115 0 -183 37v670q71 37 183 37q136 0 222.5 -95.5t86.5 -276.5z"/>
<glyph glyph-name="E" horiz-adv-x="507" unicode="E" d="M455 0h-370v724h370v-53h-310v-270h287v-53h-287v-295h310v-53z"/>
<glyph glyph-name="F" horiz-adv-x="492" unicode="F" d="M446 671h-301v-270h279v-53h-279v-348h-60v724h361v-53z"/>
<glyph glyph-name="G" horiz-adv-x="647" unicode="G" d="M566 27q-65 -37 -189 -37q-136 0 -225.5 96.5t-89.5 275.5t90.5 275.5t227.5 96.5q112 0 171 -37l-22 -49q-53 33 -148 33q-110 0 -184 -81.5t-74 -237.5q0 -157 72.5 -238t179.5 -81q98 0 132 21v286h-174v51h233v-374z"/>
<glyph glyph-name="H" horiz-adv-x="639" unicode="H" d="M554 0h-61v348h-347v-348h-61v724h61v-323h347v323h61v-724z"/>
<glyph glyph-name="I" horiz-adv-x="235" unicode="I" d="M148 0h-61v724h61v-724z"/>
<glyph glyph-name="J" horiz-adv-x="235" unicode="J" d="M148 80q0 -244 -219 -298v55q158 52 158 243v644h61v-644z"/>
<glyph glyph-name="K" horiz-adv-x="561" unicode="K" d="M542 0h-74l-318 376h-2v-376h-61v724h61v-338h2l311 338h74l-316 -343z"/>
<glyph glyph-name="L" horiz-adv-x="478" unicode="L" d="M442 0h-355v724h61v-671h294v-53z"/>
<glyph glyph-name="M" horiz-adv-x="867" unicode="M" d="M807 0h-58l-77 580l-8 84h-2q-10 -45 -22 -83l-180 -581h-53l-180 581l-22 83h-2q-3 -46 -8 -84l-76 -580h-59l99 724h77l176 -563l21 -85h2q9 46 21 85l175 563h77z"/>
<glyph glyph-name="N" horiz-adv-x="696" unicode="N" d="M611 0h-65l-364 577l-41 77h-2q2 -46 2 -86v-568h-56v724h68l359 -568l42 -76h2q-1 46 -1 87v557h56v-724z"/>
<glyph glyph-name="O" horiz-adv-x="676" unicode="O" d="M553 362q0 137 -56.5 227.5t-158.5 90.5t-158.5 -90.5t-56.5 -227.5t56.5 -227.5t158.5 -90.5t158.5 90.5t56.5 227.5zM614 362q0 -161 -72.5 -266.5t-203.5 -105.5t-203.5 105.5t-72.5 266.5t72.5 266.5t203.5 105.5t203.5 -105.5t72.5 -266.5z"/>
<glyph glyph-name="P" horiz-adv-x="560" unicode="P" d="M454 519q0 79 -49 121.5t-139 42.5q-75 0 -120 -20v-300q40 -7 92 -7q103 0 159.5 44t56.5 119zM515 519q0 -96 -73 -155t-203 -59q-55 0 -93 7v-312h-61v697q76 37 181 37q118 0 183.5 -57.5t65.5 -157.5z"/>
<glyph glyph-name="Q" horiz-adv-x="676" unicode="Q" d="M553 362q0 137 -57.5 227.5t-159.5 90.5t-157.5 -90t-55.5 -228t55.5 -228t157.5 -90t159.5 90.5t57.5 227.5zM614 -146l-47 -37l-135 193q-43 -20 -96 -20q-131 0 -202.5 105.5t-71.5 266.5t71.5 266.5t202.5 105.5t204.5 -106t73.5 -266q0 -107 -34.5 -194t-98.5 -133z "/>
<glyph glyph-name="R" horiz-adv-x="595" unicode="R" d="M459 534q0 69 -47.5 109.5t-138.5 40.5q-75 0 -126 -21v-285h103q101 0 155 36.5t54 119.5zM554 0h-67l-124 242q-44 87 -133 87h-83v-329h-60v696q79 38 185 38q119 0 183 -54.5t64 -143.5q0 -164 -179 -190v-2q47 -21 85 -94z"/>
<glyph glyph-name="S" horiz-adv-x="522" unicode="S" d="M461 190q0 -92 -66.5 -146t-172.5 -54q-100 0 -169 37l23 53q64 -35 145 -35q79 0 128.5 38.5t49.5 105.5q0 30 -11.5 53.5t-35.5 42t-45 30t-56 26.5q-34 15 -57 26.5t-50.5 30t-44 38.5t-28 48.5t-11.5 61.5q0 87 60.5 137.5t156.5 50.5q98 0 154 -37l-23 -51 q-56 34 -130 34q-70 0 -113.5 -35t-43.5 -97q0 -24 10 -45t23 -35.5t37 -29.5t41.5 -23t46.5 -21q41 -18 67 -32.5t56 -39t44.5 -57.5t14.5 -75z"/>
<glyph glyph-name="T" horiz-adv-x="512" unicode="T" d="M479 671h-192v-671h-61v671h-193v53h446v-53z"/>
<glyph glyph-name="U" horiz-adv-x="628" unicode="U" d="M543 204q0 -97 -65 -155.5t-164 -58.5t-164 58.5t-65 155.5v520h61v-520q0 -73 48 -116.5t120 -43.5t120 43.5t48 116.5v520h61v-520z"/>
<glyph glyph-name="V" horiz-adv-x="610" unicode="V" d="M577 724l-239 -724h-66l-239 724h66l179 -566l26 -95h2q12 52 26 95l179 566h66z"/>
<glyph glyph-name="W" horiz-adv-x="906" unicode="W" d="M861 724l-185 -724h-64l-140 555l-18 95h-2q-7 -50 -18 -95l-140 -555h-64l-185 724h62l137 -560l19 -96h2q8 53 19 96l140 560h58l140 -560l19 -96h2q9 53 19 96l137 560h62z"/>
<glyph glyph-name="X" horiz-adv-x="579" unicode="X" d="M547 0h-68l-189 325h-2l-189 -325h-67l221 374l-207 350h67l175 -300h2l175 300h67l-207 -350z"/>
<glyph glyph-name="Y" horiz-adv-x="597" unicode="Y" d="M567 724l-238 -431v-293h-61v293l-238 431h67l200 -369h2l200 369h68z"/>
<glyph glyph-name="Z" horiz-adv-x="515" unicode="Z" d="M467 0h-434l341 671h-324v53h413l-340 -671h344v-53z"/>
<glyph glyph-name="bracketleft" horiz-adv-x="357" unicode="[" d="M300 -195h-205v980h205v-49h-147v-882h147v-49z"/>
<glyph glyph-name="backslash" horiz-adv-x="449" unicode="\" d="M440 -174l-56 -19l-338 969l56 19z"/>
<glyph glyph-name="bracketright" horiz-adv-x="357" unicode="]" d="M262 -195h-205v49h147v882h-147v49h205v-980z"/>
<glyph glyph-name="asciicircum" horiz-adv-x="573" unicode="^" d="M479 484l-39 -33l-154 185l-153 -185l-39 33l161 193q13 16 31 16t32 -16z"/>
<glyph glyph-name="underscore" horiz-adv-x="583" unicode="_" d="M587 -191h-591v48h591v-48z"/>
<glyph glyph-name="grave" horiz-adv-x="294" unicode="`" d="M192 603h-48l-96 131q6 19 29 19q24 0 40 -19z"/>
<glyph glyph-name="a" horiz-adv-x="523" unicode="a" d="M387 57v235q-39 -2 -57 -3.5t-53.5 -5.5t-54 -9.5t-44 -16t-38 -24t-22 -34.5t-9.5 -47q0 -53 39 -84t116 -31q83 0 123 20zM444 27q-28 -16 -78.5 -26.5t-100.5 -10.5q-104 0 -158.5 43t-54.5 118q0 38 13 67.5t38.5 48.5t54 32t71 20.5t76.5 11t82 6.5v47 q0 118 -141 118q-80 0 -144 -34l-18 44q76 37 166 37q194 0 194 -169v-353z"/>
<glyph glyph-name="b" horiz-adv-x="549" unicode="b" d="M433 275q0 103 -49.5 163t-130.5 60q-67 0 -115 -24v-414q44 -21 104 -21q85 0 138 57t53 179zM492 278q0 -146 -69 -217t-183 -71q-91 0 -161 37v758h59v-263q50 25 121 25q105 0 169 -72.5t64 -196.5z"/>
<glyph glyph-name="c" horiz-adv-x="461" unicode="c" d="M413 27q-55 -37 -128 -37q-92 0 -159.5 70t-67.5 210t67.5 209.5t159.5 69.5q73 0 128 -37l-21 -44q-45 31 -103 31q-70 0 -120.5 -56t-50.5 -173t50.5 -173t120.5 -56q58 0 103 31z"/>
<glyph glyph-name="d" horiz-adv-x="549" unicode="d" d="M411 60v420q-39 15 -102 15q-92 0 -142 -64.5t-50 -168.5q0 -102 49.5 -162.5t140.5 -60.5q28 0 59.5 6.5t44.5 14.5zM470 27q-23 -15 -69.5 -26t-92.5 -11q-118 0 -184 74t-66 197q0 126 65.5 204.5t182.5 78.5q63 0 105 -16v257h59v-758z"/>
<glyph glyph-name="e" horiz-adv-x="552" unicode="e" d="M437 330q-1 85 -41 128.5t-110 43.5q-79 0 -125.5 -59.5t-48.5 -159.5zM494 326q0 -20 -1 -32l-378 -56q6 -97 57.5 -148t138.5 -51q88 0 146 34l20 -46q-63 -37 -168 -37q-117 0 -184 72.5t-67 207.5q0 126 61.5 202.5t166.5 76.5q95 0 151.5 -59t56.5 -164z"/>
<glyph glyph-name="f" horiz-adv-x="340" unicode="f" d="M311 736h-8q-57 0 -92.5 -30t-35.5 -89v-78h126v-45h-126v-494h-57v494h-80v45h80v78q0 81 50.5 125t127.5 44h10l5 -1v-49z"/>
<glyph glyph-name="g" horiz-adv-x="549" unicode="g" d="M412 93v387q-42 20 -105 20q-85 0 -137.5 -54t-52.5 -168q0 -101 49.5 -155t129.5 -54q68 0 116 24zM470 -6q0 -104 -56 -161.5t-158 -57.5q-96 0 -170 39l21 47q66 -35 146 -35q78 0 118.5 43.5t40.5 124.5v52q-52 -26 -123 -26q-104 0 -167.5 68t-63.5 189 q0 137 69.5 204.5t181.5 67.5q94 0 161 -37v-518z"/>
<glyph glyph-name="h" horiz-adv-x="554" unicode="h" d="M475 0h-59v368q0 64 -40 97t-110 33q-71 0 -128 -35v-463h-59v785h59v-272q65 35 136 35q94 0 147.5 -46t53.5 -131v-371z"/>
<glyph glyph-name="i" horiz-adv-x="227" unicode="i" d="M143 0h-59v539h59v-539zM155 700q0 -17 -12 -29t-29 -12t-29.5 12t-12.5 29t12.5 29t29.5 12t29 -12t12 -29z"/>
<glyph glyph-name="j" horiz-adv-x="227" unicode="j" d="M143 51q0 -118 -55 -184.5t-142 -87.5v53q61 21 99.5 75t38.5 144v488h59v-488zM155 700q0 -17 -12 -29t-29 -12t-29.5 12t-12.5 29t12.5 29t29.5 12t29 -12t12 -29z"/>
<glyph glyph-name="k" horiz-adv-x="505" unicode="k" d="M488 0h-74l-272 279h-2v-279h-57v785h57v-498h2l259 252h74l-264 -257z"/>
<glyph glyph-name="l" horiz-adv-x="227" unicode="l" d="M143 0h-59v785h59v-785z"/>
<glyph glyph-name="m" horiz-adv-x="860" unicode="m" d="M781 0h-59v377q0 57 -36 90t-93 33q-87 0 -133 -54v-446h-59v393q0 49 -39.5 78t-102.5 29q-69 0 -121 -22v-478h-59v512q84 37 179 37q58 0 102.5 -18.5t66.5 -47.5q66 66 174 66q81 0 130.5 -46t49.5 -123v-380z"/>
<glyph glyph-name="n" horiz-adv-x="554" unicode="n" d="M475 0h-59v368q0 62 -37.5 97t-109.5 35q-76 0 -131 -22v-478h-59v512q82 37 190 37q99 0 152.5 -47t53.5 -131v-371z"/>
<glyph glyph-name="o" horiz-adv-x="560" unicode="o" d="M443 270q0 104 -41.5 167t-121.5 63t-121.5 -63t-41.5 -167t41.5 -167t121.5 -63t121.5 63t41.5 167zM502 270q0 -124 -58 -202t-164 -78t-164 78t-58 202t58 201.5t164 77.5t164 -77.5t58 -201.5z"/>
<glyph glyph-name="p" horiz-adv-x="549" unicode="p" d="M433 277q0 102 -50 162.5t-141 60.5q-66 0 -104 -20v-422q41 -16 102 -16q92 0 142.5 65.5t50.5 169.5zM492 277q0 -126 -66 -205t-183 -79q-63 0 -105 16v-224h-59v727q26 15 71.5 26t90.5 11q118 0 184.5 -74.5t66.5 -197.5z"/>
<glyph glyph-name="q" horiz-adv-x="549" unicode="q" d="M411 66v414q-42 20 -104 20q-85 0 -137.5 -57t-52.5 -179q0 -103 49 -163t130 -60q65 0 115 25zM470 -215h-59v232q-50 -25 -121 -25q-105 0 -168.5 72.5t-63.5 196.5q0 146 69 217t182 71q91 0 161 -37v-727z"/>
<glyph glyph-name="r" horiz-adv-x="344" unicode="r" d="M311 547l-13 -51q-18 3 -40 3q-75 0 -120 -21v-478h-59v512q76 37 186 37q36 0 46 -2z"/>
<glyph glyph-name="s" horiz-adv-x="448" unicode="s" d="M393 138q0 -67 -51.5 -107.5t-140.5 -40.5q-90 0 -154 37l23 46q57 -34 130 -34q60 0 96 27t36 73q0 44 -29.5 68t-92.5 47q-74 28 -111.5 60.5t-37.5 95.5q0 60 46 99.5t125 39.5q82 0 142 -37l-23 -44q-49 33 -115 33q-53 0 -84 -26t-31 -65q0 -44 27.5 -66t87.5 -45 q39 -15 61 -25.5t47.5 -29.5t37 -45t11.5 -61z"/>
<glyph glyph-name="t" horiz-adv-x="338" unicode="t" d="M297 1q-13 -6 -42 -6q-62 0 -99.5 34.5t-37.5 100.5v364h-84v45h84v134l57 22v-156h122v-45h-122v-362q0 -43 25 -64t64 -21q20 0 33 5v-51z"/>
<glyph glyph-name="u" horiz-adv-x="545" unicode="u" d="M466 27q-72 -37 -188 -37q-199 0 -199 184v365h59v-366q0 -133 140 -133q81 0 129 22v477h59v-512z"/>
<glyph glyph-name="v" horiz-adv-x="537" unicode="v" d="M501 539l-199 -539h-67l-199 539h64l144 -405l23 -78h2q11 42 24 78l144 405h64z"/>
<glyph glyph-name="w" horiz-adv-x="820" unicode="w" d="M777 539l-167 -539h-60l-122 407l-17 72h-2q-7 -39 -17 -72l-122 -407h-60l-167 539h59l120 -405l17 -78h2q9 44 19 78l120 405h60l120 -405l19 -78h2q8 44 18 78l119 405h59z"/>
<glyph glyph-name="x" horiz-adv-x="503" unicode="x" d="M473 0h-67l-154 237h-2l-153 -237h-67l186 280l-172 259h67l139 -217h2l140 217h67l-172 -259z"/>
<glyph glyph-name="y" horiz-adv-x="537" unicode="y" d="M501 539l-282 -754h-61l81 215l-203 539h64l148 -417l19 -72h2q8 39 20 72l148 417h64z"/>
<glyph glyph-name="z" horiz-adv-x="458" unicode="z" d="M412 0h-377l279 489h-264v50h353l-278 -489h287v-50z"/>
<glyph glyph-name="braceleft" horiz-adv-x="358" unicode="{" d="M290 -195h-28q-71 0 -110.5 40.5t-39.5 113.5q0 47 9.5 100.5t9.5 95.5q0 50 -23 80t-63 34v52q40 4 63 34t23 80q0 42 -9.5 95.5t-9.5 100.5q0 73 39.5 113.5t110.5 40.5h28v-49h-24q-46 0 -71 -27.5t-25 -77.5q0 -47 9.5 -100.5t9.5 -95.5q0 -55 -23 -90.5t-61 -48.5 v-2q38 -13 61 -48.5t23 -90.5q0 -42 -9.5 -95.5t-9.5 -100.5q0 -50 25 -77.5t71 -27.5h24v-49z"/>
<glyph glyph-name="bar" horiz-adv-x="228" unicode="|" d="M144 -215h-59v1000h59v-1000z"/>
<glyph glyph-name="braceright" horiz-adv-x="358" unicode="}" d="M313 269q-40 -4 -63 -34t-23 -80q0 -42 9.5 -95.5t9.5 -100.5q0 -73 -39.5 -113.5t-110.5 -40.5h-28v49h24q46 0 71 27.5t25 77.5q0 47 -9.5 100.5t-9.5 95.5q0 55 23 90.5t61 48.5v2q-38 13 -61 48.5t-23 90.5q0 42 9.5 95.5t9.5 100.5q0 50 -25 77.5t-71 27.5h-24v49 h28q71 0 110.5 -40.5t39.5 -113.5q0 -47 -9.5 -100.5t-9.5 -95.5q0 -50 23 -80t63 -34v-52z"/>
<glyph glyph-name="asciitilde" horiz-adv-x="573" unicode="~" d="M488 391q-13 -40 -42.5 -63t-70.5 -23q-37 0 -90 30.5t-82 30.5q-58 0 -82 -61l-36 27q13 40 42.5 63t70.5 23q38 0 90 -31t81 -31q59 0 83 61z"/>
<glyph glyph-name="uni00A0" horiz-adv-x="282" unicode=" "/>
<glyph glyph-name="exclamdown" horiz-adv-x="266" unicode="¡" d="M168 -215h-69l9 500h51zM178 470q0 -19 -13 -32t-32 -13t-32 13t-13 32t13 32t32 13t32 -13t13 -32z"/>
<glyph glyph-name="cent" horiz-adv-x="481" unicode="¢" d="M427 166q-49 -31 -117 -34l7 -132h-53l7 133q-84 9 -142 74.5t-58 186.5t58 186t142 74l-7 131h53l-7 -129q67 -3 117 -35l-22 -43q-44 29 -103 29q-70 0 -120 -51.5t-50 -160.5t50 -161.5t120 -52.5q59 0 103 29z"/>
<glyph glyph-name="sterling" horiz-adv-x="650" unicode="£" d="M565 0h-490q151 149 151 276q0 49 -14 91h-113v48h98q-24 64 -24 121q0 90 63.5 144t168.5 54q90 0 157 -37l-22 -47q-52 31 -131 31q-80 0 -128 -40t-48 -107q0 -53 24 -119h215v-48h-201q12 -41 12 -91q0 -117 -101 -223h383v-53z"/>
<glyph glyph-name="currency" horiz-adv-x="671" unicode="¤" d="M482 325q0 77 -39 127t-108 50t-107.5 -50t-38.5 -127t38.5 -126.5t107.5 -49.5t108 50t39 126zM600 75l-41 -35l-98 107q-50 -47 -126 -47q-75 0 -125 47l-98 -107l-41 35l102 112q-38 58 -38 138t38 138l-102 112l41 36l98 -108q50 47 125 47q76 0 126 -47l98 108 l41 -36l-102 -112q38 -58 38 -138t-38 -138z"/>
<glyph glyph-name="yen" horiz-adv-x="686" unicode="¥" d="M612 724l-142 -255h130v-40h-152l-75 -132h227v-40h-227v-257h-60v257h-227v40h227l-75 132h-152v40h131l-142 255h67l200 -368h2l200 368h68z"/>
<glyph glyph-name="brokenbar" horiz-adv-x="228" unicode="¦" d="M144 -215h-59v400h59v-400zM144 385h-59v400h59v-400z"/>
<glyph glyph-name="section" horiz-adv-x="588" unicode="§" d="M459 222q0 42 -21 71.5t-65 57.5l-142 89q-102 -57 -102 -141q0 -75 81 -125l142 -89q45 23 76 59t31 78zM515 224q0 -53 -36 -97.5t-86 -71.5q67 -54 67 -128q0 -68 -51 -110t-136 -42q-40 0 -84 10.5t-69 26.5l22 47q20 -13 58 -23.5t70 -10.5q60 0 95.5 28.5 t35.5 75.5q0 63 -71 107l-150 93q-107 67 -107 168q0 103 118 173q-50 45 -50 110q0 71 50.5 112.5t130.5 41.5q82 0 142 -37l-21 -45q-53 32 -118 32q-57 0 -91.5 -27.5t-34.5 -77.5q0 -58 62 -97l145 -90q55 -34 82 -74t27 -94z"/>
<glyph glyph-name="dieresis" horiz-adv-x="294" unicode="¨" d="M98 669q0 -16 -11.5 -27.5t-27.5 -11.5t-27.5 11.5t-11.5 27.5t11.5 27t27.5 11t27.5 -11t11.5 -27zM274 669q0 -16 -11.5 -27.5t-27.5 -11.5t-27.5 11.5t-11.5 27.5t11.5 27t27.5 11t27.5 -11t11.5 -27z"/>
<glyph glyph-name="copyright" horiz-adv-x="878" unicode="©" d="M554 178q-44 -30 -106 -30q-81 0 -135 56t-54 160t54 160t135 56q63 0 106 -29l-20 -37q-38 24 -85 24q-60 0 -100.5 -43t-40.5 -131t40.5 -130.5t100.5 -42.5q49 0 85 23zM764 362q0 137 -94.5 233t-230.5 96t-230.5 -96t-94.5 -233t94.5 -233t230.5 -96t230.5 96 t94.5 233zM812 362q0 -155 -108.5 -263.5t-264.5 -108.5t-264.5 108.5t-108.5 263.5t108.5 263.5t264.5 108.5t264.5 -108.5t108.5 -263.5z"/>
<glyph glyph-name="ordfeminine" horiz-adv-x="436" unicode="ª" d="M307 378v164q-49 -2 -80.5 -6t-64 -14t-48.5 -29.5t-16 -48.5q0 -37 31 -59t86 -22q60 0 92 15zM357 352q-56 -28 -141 -28q-82 0 -125 31.5t-43 87.5q0 40 21 67t61.5 40.5t80 19.5t96.5 9v32q0 82 -106 82q-60 0 -112 -25l-14 37q60 27 130 27q152 0 152 -127v-253z "/>
<glyph glyph-name="guillemotleft" horiz-adv-x="578" unicode="«" d="M290 99l-39 -31l-182 237l182 237l39 -31l-159 -206zM498 99l-39 -31l-181 237l181 237l39 -31l-158 -206z"/>
<glyph glyph-name="logicalnot" horiz-adv-x="573" unicode="¬" d="M497 91h-54v209h-367v50h421v-259z"/>
<glyph glyph-name="uni00AD" horiz-adv-x="416" unicode="­" d="M341 297h-266v56h266v-56z"/>
<glyph glyph-name="registered" horiz-adv-x="682" unicode="®" d="M414 537q0 55 -79 55q-33 0 -51 -6v-109h42q45 0 66.5 14t21.5 46zM472 306h-45l-57 109q-15 29 -52 29h-34v-138h-39v303q35 17 89 17q57 0 88.5 -23.5t31.5 -64.5q0 -65 -74 -81v-2q15 -8 28 -31zM578 459q0 100 -68.5 170t-168.5 70t-169 -70t-69 -170t69 -170 t169 -70t168.5 70t68.5 170zM620 459q0 -116 -81 -197t-198 -81t-198 81t-81 197t81 197t198 81t198 -81t81 -197z"/>
<glyph glyph-name="macron" horiz-adv-x="294" unicode="¯" d="M263 637h-232v45h232v-45z"/>
<glyph glyph-name="degree" horiz-adv-x="458" unicode="°" d="M348 569q0 49 -35 84t-84 35t-84 -35t-35 -84q0 -50 35 -85t84 -35t84 35t35 85zM397 569q0 -68 -49 -116.5t-119 -48.5t-118.5 48t-48.5 117t48.5 117t118.5 48t119 -48.5t49 -116.5z"/>
<glyph glyph-name="plusminus" horiz-adv-x="573" unicode="±" d="M497 0h-421v49h421v-49zM497 336h-184v-180h-53v180h-184v48h184v180h53v-180h184v-48z"/>
<glyph glyph-name="twosuperior" d="M317 500h-300l189 208q52 56 52 98q0 39 -25.5 62t-73.5 23q-53 0 -102 -22l-15 38q60 25 118 25q70 0 108 -34.5t38 -90.5t-64 -124l-133 -141h208v-42z" unicode="²"/>
<glyph glyph-name="threesuperior" d="M314 619q0 -58 -43.5 -92.5t-116.5 -34.5q-65 0 -120 25l16 38q51 -22 104 -22q54 0 83.5 22t29.5 64t-37 65t-101 23h-17v37q63 4 99.5 26t36.5 55q0 66 -91 66q-48 0 -96 -21l-18 37q58 25 117 25q64 0 100 -28t36 -78q0 -63 -83 -93v-2q41 -11 71 -39t30 -73z" unicode="³"/>
<glyph glyph-name="acute" horiz-adv-x="294" unicode="´" d="M246 734l-96 -131h-48l75 131q16 19 40 19q23 0 29 -19z"/>
<glyph glyph-name="uni00B5" horiz-adv-x="545" unicode="µ" d="M466 43q-73 -53 -178 -53q-88 0 -150 35v-240h-59v754h59v-463q56 -37 142 -37q77 0 127 35v465h59v-496z"/>
<glyph glyph-name="paragraph" horiz-adv-x="578" unicode="¶" d="M492 -215h-51v878q-55 23 -135 23l-24 -1v-900h-50v552q-76 12 -121.5 62.5t-45.5 132.5q0 98 61.5 150t168.5 52q118 0 197 -37v-912z"/>
<glyph glyph-name="periodcentered" horiz-adv-x="244" unicode="·" d="M167 325q0 -19 -13 -32t-32 -13t-32 13t-13 32t13 32t32 13t32 -13t13 -32z"/>
<glyph glyph-name="cedilla" horiz-adv-x="294" unicode="¸" d="M254 -124q0 -37 -39.5 -57t-111.5 -20q-37 0 -72 4l19 35q27 -3 53 -3q99 0 99 41q0 32 -63 32q-24 0 -54 -3l18 34q27 3 48 3q103 0 103 -66z"/>
<glyph glyph-name="onesuperior" d="M254 500h-48v363q-48 -30 -130 -46l-10 40q42 7 85 25t66 42h37v-424z" unicode="¹"/>
<glyph glyph-name="ordmasculine" horiz-adv-x="463" unicode="º" d="M354 529q0 72 -32 116t-91 44t-90.5 -44t-31.5 -116t31.5 -116.5t90.5 -44.5t91 44.5t32 116.5zM405 529q0 -91 -46 -148t-128 -57t-127.5 57t-45.5 148t45.5 147t127.5 56q83 0 128.5 -56.5t45.5 -146.5z"/>
<glyph glyph-name="guillemotright" horiz-adv-x="578" unicode="»" d="M300 305l-181 -237l-39 31l158 206l-158 206l39 31zM509 305l-182 -237l-39 31l159 206l-159 206l39 31z"/>
<glyph glyph-name="onequarter" horiz-adv-x="828" unicode="¼" d="M680 381h-2q-10 -23 -23 -41l-136 -192h159v186zM211 300h-48v363q-48 -30 -129 -46l-11 40q105 19 152 67h36v-424zM617 713l-383 -724l-40 22l384 724zM773 111h-52v-111h-44v111h-204v37l198 276h50v-276h52v-37z"/>
<glyph glyph-name="onehalf" horiz-adv-x="828" unicode="½" d="M211 300h-48v363q-48 -30 -129 -46l-11 40q105 19 152 67h36v-424zM592 713l-384 -724l-39 22l384 724zM778 0h-300l190 208q52 56 52 98q0 39 -26 62t-74 23q-52 0 -101 -22l-16 38q60 25 119 25q70 0 108 -34.5t38 -90.5t-64 -124l-133 -141h207v-42z"/>
<glyph glyph-name="threequarters" horiz-adv-x="828" unicode="¾" d="M311 419q0 -58 -43.5 -92.5t-116.5 -34.5q-65 0 -120 25l16 38q51 -22 104 -22q54 0 83.5 22t29.5 64t-37 65t-101 23h-17v37q63 4 99.5 26t36.5 55q0 66 -91 66q-48 0 -96 -21l-18 37q58 25 117 25q64 0 100 -28t36 -78q0 -63 -83 -93v-2q41 -11 71 -39t30 -73zM680 381 h-2q-10 -23 -23 -41l-136 -192h159v186zM647 713l-383 -724l-40 22l384 724zM773 111h-52v-111h-44v111h-204v37l198 276h50v-276h52v-37z"/>
<glyph glyph-name="questiondown" horiz-adv-x="467" unicode="¿" d="M433 -188q-70 -37 -169 -37q-101 0 -156 48t-55 130q0 68 53 119t119 72l4 141h50l5 -174q-71 -18 -120 -58.5t-49 -97.5q0 -60 39 -94t114 -34q83 0 143 32zM299 470q0 -19 -13 -32t-32 -13t-32 13t-13 32t13 32t32 13t32 -13t13 -32z"/>
<glyph glyph-name="Agrave" horiz-adv-x="653" unicode="À" d="M356 788h-48l-96 131q6 19 29 19q24 0 40 -19zM463 279l-112 313l-24 82h-2q-10 -44 -23 -82l-112 -313h273zM626 0h-64l-83 231h-305l-83 -231h-64l265 724h69z"/>
<glyph glyph-name="Aacute" horiz-adv-x="653" unicode="Á" d="M440 919l-96 -131h-48l75 131q16 19 40 19q23 0 29 -19zM463 279l-112 313l-24 82h-2q-10 -44 -23 -82l-112 -313h273zM626 0h-64l-83 231h-305l-83 -231h-64l265 724h69z"/>
<glyph glyph-name="Acircumflex" horiz-adv-x="653" unicode="Â" d="M456 811l-28 -25l-102 91l-102 -91l-28 25l99 100q15 15 31 15q15 0 30 -15zM463 279l-112 313l-24 82h-2q-10 -44 -23 -82l-112 -313h273zM626 0h-64l-83 231h-305l-83 -231h-64l265 724h69z"/>
<glyph glyph-name="Atilde" horiz-adv-x="653" unicode="Ã" d="M458 880q-6 -33 -25.5 -55t-50.5 -22q-28 0 -57.5 25.5t-45.5 25.5q-38 0 -47 -52l-35 21q6 33 26 55t51 22q28 0 57 -25.5t45 -25.5q38 0 47 52zM463 279l-112 313l-24 82h-2q-10 -44 -23 -82l-112 -313h273zM626 0h-64l-83 231h-305l-83 -231h-64l265 724h69z"/>
<glyph glyph-name="Adieresis" horiz-adv-x="653" unicode="Ä" d="M453 854q0 -16 -11.5 -27.5t-27.5 -11.5t-27.5 11.5t-11.5 27.5t11.5 27t27.5 11t27.5 -11t11.5 -27zM277 854q0 -16 -11.5 -27.5t-27.5 -11.5t-27.5 11.5t-11.5 27.5t11.5 27t27.5 11t27.5 -11t11.5 -27zM463 279l-112 313l-24 82h-2q-10 -44 -23 -82l-112 -313h273z M626 0h-64l-83 231h-305l-83 -231h-64l265 724h69z"/>
<glyph glyph-name="Aring" horiz-adv-x="653" unicode="Å" d="M381 869q0 23 -15.5 38.5t-38.5 15.5t-38.5 -15.5t-15.5 -38.5q0 -22 15.5 -37.5t38.5 -15.5t38.5 15.5t15.5 37.5zM416 869q0 -36 -26 -61t-63 -25t-63 25t-26 61t26 61t63 25t63 -25t26 -61zM463 279l-112 313l-24 82h-2q-10 -44 -23 -82l-112 -313h273zM626 0h-64 l-83 231h-305l-83 -231h-64l265 724h69z"/>
<glyph glyph-name="AE" horiz-adv-x="910" unicode="Æ" d="M478 279l-69 313l-13 82h-2q-14 -45 -33 -82l-157 -313h274zM868 0h-330l-50 231h-305l-116 -231h-66l366 724h421v-53h-342l63 -270h269v-53h-258l69 -295h279v-53z"/>
<glyph glyph-name="Ccedilla" horiz-adv-x="548" unicode="Ç" d="M395 -124q0 -37 -39.5 -57t-111.5 -20q-37 0 -72 4l19 35q27 -3 53 -3q99 0 99 41q0 32 -63 32q-24 0 -54 -3l18 34q27 3 48 3q103 0 103 -66zM496 27q-54 -37 -153 -37q-121 0 -201 95.5t-80 276.5t80 276.5t201 95.5q99 0 153 -37l-21 -50q-49 33 -128 33 q-96 0 -159 -80.5t-63 -237.5t62.5 -237t159.5 -80q81 0 128 32z"/>
<glyph glyph-name="Egrave" horiz-adv-x="507" unicode="È" d="M306 788h-48l-96 131q6 19 29 19q24 0 40 -19zM455 0h-370v724h370v-53h-310v-270h287v-53h-287v-295h310v-53z"/>
<glyph glyph-name="Eacute" horiz-adv-x="507" unicode="É" d="M373 919l-96 -131h-48l75 131q16 19 40 19q23 0 29 -19zM455 0h-370v724h370v-53h-310v-270h287v-53h-287v-295h310v-53z"/>
<glyph glyph-name="Ecircumflex" horiz-adv-x="507" unicode="Ê" d="M399 811l-28 -25l-102 91l-102 -91l-28 25l99 100q15 15 31 15q15 0 30 -15zM455 0h-370v724h370v-53h-310v-270h287v-53h-287v-295h310v-53z"/>
<glyph glyph-name="Edieresis" horiz-adv-x="507" unicode="Ë" d="M395 854q0 -16 -11.5 -27.5t-27.5 -11.5t-27.5 11.5t-11.5 27.5t11.5 27t27.5 11t27.5 -11t11.5 -27zM220 854q0 -16 -11.5 -27.5t-27.5 -11.5t-27.5 11.5t-11.5 27.5t11.5 27t27.5 11t27.5 -11t11.5 -27zM455 0h-370v724h370v-53h-310v-270h287v-53h-287v-295h310v-53z "/>
<glyph glyph-name="Igrave" horiz-adv-x="235" unicode="Ì" d="M156 788h-48l-96 131q6 19 29 19q24 0 40 -19zM148 0h-61v724h61v-724z"/>
<glyph glyph-name="Iacute" horiz-adv-x="235" unicode="Í" d="M223 919l-96 -131h-48l75 131q16 19 40 19q23 0 29 -19zM148 0h-61v724h61v-724z"/>
<glyph glyph-name="Icircumflex" horiz-adv-x="235" unicode="Î" d="M248 811l-28 -25l-102 91l-102 -91l-28 25l99 100q15 15 31 15q15 0 30 -15zM148 0h-61v724h61v-724z"/>
<glyph glyph-name="Idieresis" horiz-adv-x="235" unicode="Ï" d="M244 854q0 -16 -11.5 -27.5t-27.5 -11.5t-27.5 11.5t-11.5 27.5t11.5 27t27.5 11t27.5 -11t11.5 -27zM69 854q0 -16 -11.5 -27.5t-27.5 -11.5t-27.5 11.5t-11.5 27.5t11.5 27t27.5 11t27.5 -11t11.5 -27zM148 0h-61v724h61v-724z"/>
<glyph glyph-name="Eth" horiz-adv-x="648" unicode="Ð" d="M526 362q0 158 -69.5 238.5t-177.5 80.5q-78 0 -123 -20v-266h141v-48h-141v-284q40 -20 123 -20q108 0 177.5 80.5t69.5 238.5zM587 362q0 -181 -86.5 -276.5t-222.5 -95.5q-115 0 -183 37v320h-66v48h66v302q71 37 183 37q136 0 222.5 -95.5t86.5 -276.5z"/>
<glyph glyph-name="Ntilde" horiz-adv-x="696" unicode="Ñ" d="M480 880q-6 -33 -25.5 -55t-50.5 -22q-28 0 -57.5 25.5t-45.5 25.5q-38 0 -47 -52l-35 21q6 33 26 55t51 22q28 0 57 -25.5t45 -25.5q38 0 47 52zM611 0h-65l-364 577l-41 77h-2q2 -46 2 -86v-568h-56v724h68l359 -568l42 -76h2q-1 46 -1 87v557h56v-724z"/>
<glyph glyph-name="Ograve" horiz-adv-x="676" unicode="Ò" d="M377 788h-48l-96 131q6 19 29 19q24 0 40 -19zM553 362q0 137 -56.5 227.5t-158.5 90.5t-158.5 -90.5t-56.5 -227.5t56.5 -227.5t158.5 -90.5t158.5 90.5t56.5 227.5zM614 362q0 -161 -72.5 -266.5t-203.5 -105.5t-203.5 105.5t-72.5 266.5t72.5 266.5t203.5 105.5 t203.5 -105.5t72.5 -266.5z"/>
<glyph glyph-name="Oacute" horiz-adv-x="676" unicode="Ó" d="M440 919l-96 -131h-48l75 131q16 19 40 19q23 0 29 -19zM553 362q0 137 -56.5 227.5t-158.5 90.5t-158.5 -90.5t-56.5 -227.5t56.5 -227.5t158.5 -90.5t158.5 90.5t56.5 227.5zM614 362q0 -161 -72.5 -266.5t-203.5 -105.5t-203.5 105.5t-72.5 266.5t72.5 266.5 t203.5 105.5t203.5 -105.5t72.5 -266.5z"/>
<glyph glyph-name="Ocircumflex" horiz-adv-x="676" unicode="Ô" d="M466 811l-28 -25l-102 91l-102 -91l-28 25l99 100q15 15 31 15q15 0 30 -15zM553 362q0 137 -56.5 227.5t-158.5 90.5t-158.5 -90.5t-56.5 -227.5t56.5 -227.5t158.5 -90.5t158.5 90.5t56.5 227.5zM614 362q0 -161 -72.5 -266.5t-203.5 -105.5t-203.5 105.5t-72.5 266.5 t72.5 266.5t203.5 105.5t203.5 -105.5t72.5 -266.5z"/>
<glyph glyph-name="Otilde" horiz-adv-x="676" unicode="Õ" d="M463 880q-6 -33 -25.5 -55t-50.5 -22q-28 0 -57.5 25.5t-45.5 25.5q-38 0 -47 -52l-35 21q6 33 26 55t51 22q28 0 57 -25.5t45 -25.5q38 0 47 52zM553 362q0 137 -56.5 227.5t-158.5 90.5t-158.5 -90.5t-56.5 -227.5t56.5 -227.5t158.5 -90.5t158.5 90.5t56.5 227.5z M614 362q0 -161 -72.5 -266.5t-203.5 -105.5t-203.5 105.5t-72.5 266.5t72.5 266.5t203.5 105.5t203.5 -105.5t72.5 -266.5z"/>
<glyph glyph-name="Odieresis" horiz-adv-x="676" unicode="Ö" d="M463 854q0 -16 -11.5 -27.5t-27.5 -11.5t-27.5 11.5t-11.5 27.5t11.5 27t27.5 11t27.5 -11t11.5 -27zM288 854q0 -16 -11.5 -27.5t-27.5 -11.5t-27.5 11.5t-11.5 27.5t11.5 27t27.5 11t27.5 -11t11.5 -27zM553 362q0 137 -56.5 227.5t-158.5 90.5t-158.5 -90.5 t-56.5 -227.5t56.5 -227.5t158.5 -90.5t158.5 90.5t56.5 227.5zM614 362q0 -161 -72.5 -266.5t-203.5 -105.5t-203.5 105.5t-72.5 266.5t72.5 266.5t203.5 105.5t203.5 -105.5t72.5 -266.5z"/>
<glyph glyph-name="multiply" horiz-adv-x="573" unicode="×" d="M508 142l-37 -38l-184 184l-185 -184l-36 38l183 183l-183 183l36 38l185 -184l184 184l37 -38l-184 -183z"/>
<glyph glyph-name="Oslash" horiz-adv-x="676" unicode="Ø" d="M556 362q0 130 -50 216l-308 -474q57 -63 138 -63q104 0 162 91t58 230zM481 615q-57 68 -145 68q-103 0 -159.5 -91t-56.5 -230q0 -133 52 -222zM614 362q0 -160 -73.5 -266t-204.5 -106q-102 0 -169 67l-69 -106l-34 23l75 116q-77 104 -77 272q0 161 71.5 266.5 t202.5 105.5q104 0 175 -73l67 102l34 -23l-73 -112q75 -104 75 -266z"/>
<glyph glyph-name="Ugrave" horiz-adv-x="628" unicode="Ù" d="M356 788h-48l-96 131q6 19 29 19q24 0 40 -19zM543 204q0 -97 -65 -155.5t-164 -58.5t-164 58.5t-65 155.5v520h61v-520q0 -73 48 -116.5t120 -43.5t120 43.5t48 116.5v520h61v-520z"/>
<glyph glyph-name="Uacute" horiz-adv-x="628" unicode="Ú" d="M416 919l-96 -131h-48l75 131q16 19 40 19q23 0 29 -19zM543 204q0 -97 -65 -155.5t-164 -58.5t-164 58.5t-65 155.5v520h61v-520q0 -73 48 -116.5t120 -43.5t120 43.5t48 116.5v520h61v-520z"/>
<glyph glyph-name="Ucircumflex" horiz-adv-x="628" unicode="Û" d="M445 811l-28 -25l-102 91l-102 -91l-28 25l99 100q15 15 31 15q15 0 30 -15zM543 204q0 -97 -65 -155.5t-164 -58.5t-164 58.5t-65 155.5v520h61v-520q0 -73 48 -116.5t120 -43.5t120 43.5t48 116.5v520h61v-520z"/>
<glyph glyph-name="Udieresis" horiz-adv-x="628" unicode="Ü" d="M440 854q0 -16 -11.5 -27.5t-27.5 -11.5t-27.5 11.5t-11.5 27.5t11.5 27t27.5 11t27.5 -11t11.5 -27zM265 854q0 -16 -11.5 -27.5t-27.5 -11.5t-27.5 11.5t-11.5 27.5t11.5 27t27.5 11t27.5 -11t11.5 -27zM543 204q0 -97 -65 -155.5t-164 -58.5t-164 58.5t-65 155.5v520 h61v-520q0 -73 48 -116.5t120 -43.5t120 43.5t48 116.5v520h61v-520z"/>
<glyph glyph-name="Yacute" horiz-adv-x="597" unicode="Ý" d="M405 919l-96 -131h-48l75 131q16 19 40 19q23 0 29 -19zM567 724l-238 -431v-293h-61v293l-238 431h67l200 -369h2l200 369h68z"/>
<glyph glyph-name="Thorn" horiz-adv-x="573" unicode="Þ" d="M454 373q0 79 -49 121.5t-139 42.5q-72 0 -120 -19v-302q34 -6 92 -6q103 0 159.5 44t56.5 119zM515 373q0 -96 -73 -155t-203 -59q-60 0 -93 6v-165h-61v724h61v-155q47 19 120 19q119 0 184 -57t65 -158z"/>
<glyph glyph-name="germandbls" horiz-adv-x="625" unicode="ß" d="M573 147q0 -71 -50.5 -113t-138.5 -42q-84 0 -148 34l18 47q53 -30 125 -30q65 0 99.5 28t34.5 78q0 24 -8 43.5t-25.5 35t-31.5 24.5t-40 23q-38 21 -59.5 35.5t-41.5 44.5t-20 67q0 51 37 88t110 47q3 21 3 40q0 67 -35 107.5t-108 40.5q-78 0 -117 -55.5t-39 -145.5 v-544h-59v544q0 111 54.5 181t159.5 70q102 0 151.5 -57t49.5 -142q0 -36 -10 -78q-138 -7 -138 -97q0 -20 7 -35.5t23 -29t28.5 -21.5t37.5 -21q31 -17 48 -28t39.5 -31.5t33 -47t10.5 -60.5z"/>
<glyph glyph-name="agrave" horiz-adv-x="523" unicode="à" d="M314 603h-48l-96 131q6 19 29 19q24 0 40 -19zM387 57v235q-39 -2 -57 -3.5t-53.5 -5.5t-54 -9.5t-44 -16t-38 -24t-22 -34.5t-9.5 -47q0 -53 39 -84t116 -31q83 0 123 20zM444 27q-28 -16 -78.5 -26.5t-100.5 -10.5q-104 0 -158.5 43t-54.5 118q0 38 13 67.5t38.5 48.5 t54 32t71 20.5t76.5 11t82 6.5v47q0 118 -141 118q-80 0 -144 -34l-18 44q76 37 166 37q194 0 194 -169v-353z"/>
<glyph glyph-name="aacute" horiz-adv-x="523" unicode="á" d="M370 734l-96 -131h-48l75 131q16 19 40 19q23 0 29 -19zM387 57v235q-39 -2 -57 -3.5t-53.5 -5.5t-54 -9.5t-44 -16t-38 -24t-22 -34.5t-9.5 -47q0 -53 39 -84t116 -31q83 0 123 20zM444 27q-28 -16 -78.5 -26.5t-100.5 -10.5q-104 0 -158.5 43t-54.5 118q0 38 13 67.5 t38.5 48.5t54 32t71 20.5t76.5 11t82 6.5v47q0 118 -141 118q-80 0 -144 -34l-18 44q76 37 166 37q194 0 194 -169v-353z"/>
<glyph glyph-name="acircumflex" horiz-adv-x="523" unicode="â" d="M387 626l-28 -25l-102 91l-102 -91l-28 25l99 100q15 15 31 15q15 0 30 -15zM387 57v235q-39 -2 -57 -3.5t-53.5 -5.5t-54 -9.5t-44 -16t-38 -24t-22 -34.5t-9.5 -47q0 -53 39 -84t116 -31q83 0 123 20zM444 27q-28 -16 -78.5 -26.5t-100.5 -10.5q-104 0 -158.5 43 t-54.5 118q0 38 13 67.5t38.5 48.5t54 32t71 20.5t76.5 11t82 6.5v47q0 118 -141 118q-80 0 -144 -34l-18 44q76 37 166 37q194 0 194 -169v-353z"/>
<glyph glyph-name="atilde" horiz-adv-x="523" unicode="ã" d="M392 695q-6 -33 -25.5 -55t-50.5 -22q-28 0 -57.5 25.5t-45.5 25.5q-38 0 -47 -52l-35 21q6 33 26 55t51 22q28 0 57 -25.5t45 -25.5q38 0 47 52zM387 57v235q-39 -2 -57 -3.5t-53.5 -5.5t-54 -9.5t-44 -16t-38 -24t-22 -34.5t-9.5 -47q0 -53 39 -84t116 -31q83 0 123 20 zM444 27q-28 -16 -78.5 -26.5t-100.5 -10.5q-104 0 -158.5 43t-54.5 118q0 38 13 67.5t38.5 48.5t54 32t71 20.5t76.5 11t82 6.5v47q0 118 -141 118q-80 0 -144 -34l-18 44q76 37 166 37q194 0 194 -169v-353z"/>
<glyph glyph-name="adieresis" horiz-adv-x="523" unicode="ä" d="M393 669q0 -16 -11.5 -27.5t-27.5 -11.5t-27.5 11.5t-11.5 27.5t11.5 27t27.5 11t27.5 -11t11.5 -27zM218 669q0 -16 -11.5 -27.5t-27.5 -11.5t-27.5 11.5t-11.5 27.5t11.5 27t27.5 11t27.5 -11t11.5 -27zM387 57v235q-39 -2 -57 -3.5t-53.5 -5.5t-54 -9.5t-44 -16 t-38 -24t-22 -34.5t-9.5 -47q0 -53 39 -84t116 -31q83 0 123 20zM444 27q-28 -16 -78.5 -26.5t-100.5 -10.5q-104 0 -158.5 43t-54.5 118q0 38 13 67.5t38.5 48.5t54 32t71 20.5t76.5 11t82 6.5v47q0 118 -141 118q-80 0 -144 -34l-18 44q76 37 166 37q194 0 194 -169v-353z "/>
<glyph glyph-name="aring" horiz-adv-x="523" unicode="å" d="M317 684q0 22 -15.5 38t-38.5 16t-38.5 -16t-15.5 -38t15.5 -37.5t38.5 -15.5t38.5 15.5t15.5 37.5zM352 684q0 -36 -26 -61t-63 -25t-63 25t-26 61t26 61t63 25t63 -25t26 -61zM387 57v235q-39 -2 -57 -3.5t-53.5 -5.5t-54 -9.5t-44 -16t-38 -24t-22 -34.5t-9.5 -47 q0 -53 39 -84t116 -31q83 0 123 20zM444 27q-28 -16 -78.5 -26.5t-100.5 -10.5q-104 0 -158.5 43t-54.5 118q0 38 13 67.5t38.5 48.5t54 32t71 20.5t76.5 11t82 6.5v47q0 118 -141 118q-80 0 -144 -34l-18 44q76 37 166 37q194 0 194 -169v-353z"/>
<glyph glyph-name="ae" horiz-adv-x="875" unicode="æ" d="M387 160v132q-39 -2 -57 -3.5t-53.5 -5.5t-54 -9.5t-44 -16t-38 -24t-22 -34.5t-9.5 -47q0 -54 36.5 -84.5t109.5 -30.5q61 0 96.5 34t35.5 89zM760 330q-1 85 -41 128.5t-110 43.5q-79 0 -125 -59.5t-48 -159.5zM817 323q0 -18 -1 -29l-377 -56q6 -97 57.5 -148 t138.5 -51t145 34l20 -46q-63 -37 -166 -37q-77 0 -130.5 32.5t-77.5 86.5q-13 -52 -58.5 -85.5t-113.5 -33.5q-97 0 -149.5 43.5t-52.5 117.5q0 38 13 67.5t38.5 48.5t54 32t71 20.5t76.5 11t82 6.5v47q0 118 -141 118q-80 0 -144 -34l-18 44q76 37 164 37q156 0 178 -116 q26 56 73.5 86t111.5 30q95 0 150.5 -59.5t55.5 -166.5z"/>
<glyph glyph-name="ccedilla" horiz-adv-x="461" unicode="ç" d="M344 -124q0 -37 -39.5 -57t-111.5 -20q-37 0 -72 4l19 35q27 -3 53 -3q99 0 99 41q0 32 -63 32q-24 0 -54 -3l18 34q27 3 48 3q103 0 103 -66zM413 27q-55 -37 -128 -37q-92 0 -159.5 70t-67.5 210t67.5 209.5t159.5 69.5q73 0 128 -37l-21 -44q-45 31 -103 31 q-70 0 -120.5 -56t-50.5 -173t50.5 -173t120.5 -56q58 0 103 31z"/>
<glyph glyph-name="egrave" horiz-adv-x="552" unicode="è" d="M327 603h-48l-96 131q6 19 29 19q24 0 40 -19zM437 330q-1 85 -41 128.5t-110 43.5q-79 0 -125.5 -59.5t-48.5 -159.5zM494 326q0 -20 -1 -32l-378 -56q6 -97 57.5 -148t138.5 -51q88 0 146 34l20 -46q-63 -37 -168 -37q-117 0 -184 72.5t-67 207.5q0 126 61.5 202.5 t166.5 76.5q95 0 151.5 -59t56.5 -164z"/>
<glyph glyph-name="eacute" horiz-adv-x="552" unicode="é" d="M390 734l-96 -131h-48l75 131q16 19 40 19q23 0 29 -19zM437 330q-1 85 -41 128.5t-110 43.5q-79 0 -125.5 -59.5t-48.5 -159.5zM494 326q0 -20 -1 -32l-378 -56q6 -97 57.5 -148t138.5 -51q88 0 146 34l20 -46q-63 -37 -168 -37q-117 0 -184 72.5t-67 207.5 q0 126 61.5 202.5t166.5 76.5q95 0 151.5 -59t56.5 -164z"/>
<glyph glyph-name="ecircumflex" horiz-adv-x="552" unicode="ê" d="M413 626l-28 -25l-102 91l-102 -91l-28 25l99 100q15 15 31 15q15 0 30 -15zM437 330q-1 85 -41 128.5t-110 43.5q-79 0 -125.5 -59.5t-48.5 -159.5zM494 326q0 -20 -1 -32l-378 -56q6 -97 57.5 -148t138.5 -51q88 0 146 34l20 -46q-63 -37 -168 -37q-117 0 -184 72.5 t-67 207.5q0 126 61.5 202.5t166.5 76.5q95 0 151.5 -59t56.5 -164z"/>
<glyph glyph-name="edieresis" horiz-adv-x="552" unicode="ë" d="M407 669q0 -16 -11.5 -27.5t-27.5 -11.5t-27.5 11.5t-11.5 27.5t11.5 27t27.5 11t27.5 -11t11.5 -27zM231 669q0 -16 -11.5 -27.5t-27.5 -11.5t-27.5 11.5t-11.5 27.5t11.5 27t27.5 11t27.5 -11t11.5 -27zM437 330q-1 85 -41 128.5t-110 43.5q-79 0 -125.5 -59.5 t-48.5 -159.5zM494 326q0 -20 -1 -32l-378 -56q6 -97 57.5 -148t138.5 -51q88 0 146 34l20 -46q-63 -37 -168 -37q-117 0 -184 72.5t-67 207.5q0 126 61.5 202.5t166.5 76.5q95 0 151.5 -59t56.5 -164z"/>
<glyph glyph-name="igrave" horiz-adv-x="227" unicode="ì" d="M157 603h-48l-96 131q6 19 29 19q24 0 40 -19zM143 0h-59v539h59v-539z"/>
<glyph glyph-name="iacute" horiz-adv-x="227" unicode="í" d="M214 734l-96 -131h-48l75 131q16 19 40 19q23 0 29 -19zM143 0h-59v539h59v-539z"/>
<glyph glyph-name="icircumflex" horiz-adv-x="227" unicode="î" d="M244 626l-28 -25l-102 91l-102 -91l-28 25l99 100q15 15 31 15q15 0 30 -15zM143 0h-59v539h59v-539z"/>
<glyph glyph-name="idieresis" horiz-adv-x="227" unicode="ï" d="M240 669q0 -16 -11.5 -27.5t-27.5 -11.5t-27.5 11.5t-11.5 27.5t11.5 27t27.5 11t27.5 -11t11.5 -27zM65 669q0 -16 -11.5 -27.5t-27.5 -11.5t-27.5 11.5t-11.5 27.5t11.5 27t27.5 11t27.5 -11t11.5 -27zM143 0h-59v539h59v-539z"/>
<glyph glyph-name="eth" horiz-adv-x="561" unicode="ð" d="M443 270q0 101 -40 208q-46 18 -104 18q-84 0 -133 -61.5t-49 -164.5q0 -104 41.5 -167t121.5 -63t121.5 63t41.5 167zM502 270q0 -124 -58 -202t-164 -78t-164 78t-58 202t64.5 199.5t172.5 75.5q47 0 87 -14q-30 65 -73 125l-103 -34l-22 34l100 33q-34 43 -72 85 l54 18q28 -30 71 -86l93 31l22 -34l-90 -30q140 -201 140 -403z"/>
<glyph glyph-name="ntilde" horiz-adv-x="554" unicode="ñ" d="M400 695q-6 -33 -25.5 -55t-50.5 -22q-28 0 -57.5 25.5t-45.5 25.5q-38 0 -47 -52l-35 21q6 33 26 55t51 22q28 0 57 -25.5t45 -25.5q38 0 47 52zM475 0h-59v368q0 62 -37.5 97t-109.5 35q-76 0 -131 -22v-478h-59v512q82 37 190 37q99 0 152.5 -47t53.5 -131v-371z"/>
<glyph glyph-name="ograve" horiz-adv-x="560" unicode="ò" d="M317 603h-48l-96 131q6 19 29 19q24 0 40 -19zM443 270q0 104 -41.5 167t-121.5 63t-121.5 -63t-41.5 -167t41.5 -167t121.5 -63t121.5 63t41.5 167zM502 270q0 -124 -58 -202t-164 -78t-164 78t-58 202t58 201.5t164 77.5t164 -77.5t58 -201.5z"/>
<glyph glyph-name="oacute" horiz-adv-x="560" unicode="ó" d="M381 734l-96 -131h-48l75 131q16 19 40 19q23 0 29 -19zM443 270q0 104 -41.5 167t-121.5 63t-121.5 -63t-41.5 -167t41.5 -167t121.5 -63t121.5 63t41.5 167zM502 270q0 -124 -58 -202t-164 -78t-164 78t-58 202t58 201.5t164 77.5t164 -77.5t58 -201.5z"/>
<glyph glyph-name="ocircumflex" horiz-adv-x="560" unicode="ô" d="M410 626l-28 -25l-102 91l-102 -91l-28 25l99 100q15 15 31 15q15 0 30 -15zM443 270q0 104 -41.5 167t-121.5 63t-121.5 -63t-41.5 -167t41.5 -167t121.5 -63t121.5 63t41.5 167zM502 270q0 -124 -58 -202t-164 -78t-164 78t-58 202t58 201.5t164 77.5t164 -77.5 t58 -201.5z"/>
<glyph glyph-name="otilde" horiz-adv-x="560" unicode="õ" d="M406 695q-6 -33 -25.5 -55t-50.5 -22q-28 0 -57.5 25.5t-45.5 25.5q-38 0 -47 -52l-35 21q6 33 26 55t51 22q28 0 57 -25.5t45 -25.5q38 0 47 52zM443 270q0 104 -41.5 167t-121.5 63t-121.5 -63t-41.5 -167t41.5 -167t121.5 -63t121.5 63t41.5 167zM502 270 q0 -124 -58 -202t-164 -78t-164 78t-58 202t58 201.5t164 77.5t164 -77.5t58 -201.5z"/>
<glyph glyph-name="odieresis" horiz-adv-x="560" unicode="ö" d="M406 669q0 -16 -11.5 -27.5t-27.5 -11.5t-27.5 11.5t-11.5 27.5t11.5 27t27.5 11t27.5 -11t11.5 -27zM231 669q0 -16 -11.5 -27.5t-27.5 -11.5t-27.5 11.5t-11.5 27.5t11.5 27t27.5 11t27.5 -11t11.5 -27zM443 270q0 104 -41.5 167t-121.5 63t-121.5 -63t-41.5 -167 t41.5 -167t121.5 -63t121.5 63t41.5 167zM502 270q0 -124 -58 -202t-164 -78t-164 78t-58 202t58 201.5t164 77.5t164 -77.5t58 -201.5z"/>
<glyph glyph-name="divide" horiz-adv-x="573" unicode="÷" d="M328 167q0 -17 -12 -29t-29 -12t-29.5 12t-12.5 29t12.5 29.5t29.5 12.5t29 -12.5t12 -29.5zM497 301h-421v48h421v-48zM328 483q0 -17 -12 -29.5t-29 -12.5t-29.5 12.5t-12.5 29.5t12.5 29t29.5 12t29 -12t12 -29z"/>
<glyph glyph-name="oslash" horiz-adv-x="560" unicode="ø" d="M447 270q0 99 -37 160l-235 -352q42 -42 105 -42q81 0 124 65.5t43 168.5zM386 461q-41 43 -106 43q-81 0 -124 -65.5t-43 -168.5q0 -97 38 -161zM502 270q0 -124 -58 -202t-164 -78q-77 0 -133 46l-57 -85l-30 22l60 91q-62 77 -62 206q0 124 58 201.5t164 77.5 q79 0 133 -46l56 84l31 -22l-60 -90q62 -77 62 -205z"/>
<glyph glyph-name="ugrave" horiz-adv-x="545" unicode="ù" d="M312 603h-48l-96 131q6 19 29 19q24 0 40 -19zM466 27q-72 -37 -188 -37q-199 0 -199 184v365h59v-366q0 -133 140 -133q81 0 129 22v477h59v-512z"/>
<glyph glyph-name="uacute" horiz-adv-x="545" unicode="ú" d="M377 734l-96 -131h-48l75 131q16 19 40 19q23 0 29 -19zM466 27q-72 -37 -188 -37q-199 0 -199 184v365h59v-366q0 -133 140 -133q81 0 129 22v477h59v-512z"/>
<glyph glyph-name="ucircumflex" horiz-adv-x="545" unicode="û" d="M403 626l-28 -25l-102 91l-102 -91l-28 25l99 100q15 15 31 15q15 0 30 -15zM466 27q-72 -37 -188 -37q-199 0 -199 184v365h59v-366q0 -133 140 -133q81 0 129 22v477h59v-512z"/>
<glyph glyph-name="udieresis" horiz-adv-x="545" unicode="ü" d="M400 669q0 -16 -11.5 -27.5t-27.5 -11.5t-27.5 11.5t-11.5 27.5t11.5 27t27.5 11t27.5 -11t11.5 -27zM224 669q0 -16 -11.5 -27.5t-27.5 -11.5t-27.5 11.5t-11.5 27.5t11.5 27t27.5 11t27.5 -11t11.5 -27zM466 27q-72 -37 -188 -37q-199 0 -199 184v365h59v-366 q0 -133 140 -133q81 0 129 22v477h59v-512z"/>
<glyph glyph-name="yacute" horiz-adv-x="537" unicode="ý" d="M382 734l-96 -131h-48l75 131q16 19 40 19q23 0 29 -19zM501 539l-282 -754h-61l81 215l-203 539h64l148 -417l19 -72h2q8 39 20 72l148 417h64z"/>
<glyph glyph-name="thorn" horiz-adv-x="549" unicode="þ" d="M433 275q0 104 -49.5 163.5t-130.5 59.5q-65 0 -115 -25v-414q42 -20 104 -20q85 0 138 57t53 179zM492 276q0 -145 -68.5 -215.5t-180.5 -70.5q-54 0 -105 18v-223h-59v1000h59v-263q50 25 121 25q105 0 169 -73.5t64 -197.5z"/>
<glyph glyph-name="ydieresis" horiz-adv-x="537" unicode="ÿ" d="M396 669q0 -16 -11.5 -27.5t-27.5 -11.5t-27.5 11.5t-11.5 27.5t11.5 27t27.5 11t27.5 -11t11.5 -27zM220 669q0 -16 -11.5 -27.5t-27.5 -11.5t-27.5 11.5t-11.5 27.5t11.5 27t27.5 11t27.5 -11t11.5 -27zM501 539l-282 -754h-61l81 215l-203 539h64l148 -417l19 -72h2 q8 39 20 72l148 417h64z"/>
<glyph glyph-name="Amacron" horiz-adv-x="653" unicode="Ā" d="M442 822h-232v45h232v-45zM463 279l-112 313l-24 82h-2q-10 -44 -23 -82l-112 -313h273zM626 0h-64l-83 231h-305l-83 -231h-64l265 724h69z"/>
<glyph glyph-name="amacron" horiz-adv-x="523" unicode="ā" d="M382 637h-232v45h232v-45zM387 57v235q-39 -2 -57 -3.5t-53.5 -5.5t-54 -9.5t-44 -16t-38 -24t-22 -34.5t-9.5 -47q0 -53 39 -84t116 -31q83 0 123 20zM444 27q-28 -16 -78.5 -26.5t-100.5 -10.5q-104 0 -158.5 43t-54.5 118q0 38 13 67.5t38.5 48.5t54 32t71 20.5 t76.5 11t82 6.5v47q0 118 -141 118q-80 0 -144 -34l-18 44q76 37 166 37q194 0 194 -169v-353z"/>
<glyph glyph-name="Abreve" horiz-adv-x="653" unicode="Ă" d="M456 913q-4 -58 -38 -92.5t-91 -34.5t-91.5 34.5t-38.5 92.5l41 6q15 -88 89 -88q73 0 88 88zM463 279l-112 313l-24 82h-2q-10 -44 -23 -82l-112 -313h273zM626 0h-64l-83 231h-305l-83 -231h-64l265 724h69z"/>
<glyph glyph-name="abreve" horiz-adv-x="523" unicode="ă" d="M391 728q-4 -58 -38.5 -92.5t-90.5 -34.5q-57 0 -91.5 34.5t-38.5 92.5l41 6q15 -88 89 -88q73 0 88 88zM387 57v235q-39 -2 -57 -3.5t-53.5 -5.5t-54 -9.5t-44 -16t-38 -24t-22 -34.5t-9.5 -47q0 -53 39 -84t116 -31q83 0 123 20zM444 27q-28 -16 -78.5 -26.5 t-100.5 -10.5q-104 0 -158.5 43t-54.5 118q0 38 13 67.5t38.5 48.5t54 32t71 20.5t76.5 11t82 6.5v47q0 118 -141 118q-80 0 -144 -34l-18 44q76 37 166 37q194 0 194 -169v-353z"/>
<glyph glyph-name="Aogonek" horiz-adv-x="653" unicode="Ą" d="M463 279l-112 313l-24 82h-2q-10 -44 -23 -82l-112 -313h273zM659 -173q-38 -19 -84 -19q-44 0 -71.5 23t-27.5 62q0 61 84 111l-81 227h-305l-83 -231h-64l265 724h69l265 -724h-15q-85 -47 -85 -102q0 -22 15.5 -35t39.5 -13q32 0 63 14z"/>
<glyph glyph-name="aogonek" horiz-adv-x="523" unicode="ą" d="M387 57v235q-39 -2 -57 -3.5t-53.5 -5.5t-54 -9.5t-44 -16t-38 -24t-22 -34.5t-9.5 -47q0 -53 39 -84t116 -31q83 0 123 20zM444 27q-20 -11 -55 -21q-96 -50 -96 -108q0 -22 15.5 -35t39.5 -13q32 0 63 14l15 -37q-38 -19 -84 -19q-44 0 -71.5 23t-27.5 62q0 52 68 99 q-16 -2 -46 -2q-104 0 -158.5 43t-54.5 118q0 38 13 67.5t38.5 48.5t54 32t71 20.5t76.5 11t82 6.5v47q0 118 -141 118q-80 0 -144 -34l-18 44q76 37 166 37q194 0 194 -169v-353z"/>
<glyph glyph-name="Cacute" horiz-adv-x="548" unicode="Ć" d="M424 919l-96 -131h-48l75 131q16 19 40 19q23 0 29 -19zM496 27q-54 -37 -153 -37q-121 0 -201 95.5t-80 276.5t80 276.5t201 95.5q99 0 153 -37l-21 -50q-49 33 -128 33q-96 0 -159 -80.5t-63 -237.5t62.5 -237t159.5 -80q81 0 128 32z"/>
<glyph glyph-name="cacute" horiz-adv-x="461" unicode="ć" d="M376 734l-96 -131h-48l75 131q16 19 40 19q23 0 29 -19zM413 27q-55 -37 -128 -37q-92 0 -159.5 70t-67.5 210t67.5 209.5t159.5 69.5q73 0 128 -37l-21 -44q-45 31 -103 31q-70 0 -120.5 -56t-50.5 -173t50.5 -173t120.5 -56q58 0 103 31z"/>
<glyph glyph-name="Ccircumflex" horiz-adv-x="548" unicode="Ĉ" d="M456 811l-28 -25l-102 91l-102 -91l-28 25l99 100q15 15 31 15q15 0 30 -15zM496 27q-54 -37 -153 -37q-121 0 -201 95.5t-80 276.5t80 276.5t201 95.5q99 0 153 -37l-21 -50q-49 33 -128 33q-96 0 -159 -80.5t-63 -237.5t62.5 -237t159.5 -80q81 0 128 32z"/>
<glyph glyph-name="ccircumflex" horiz-adv-x="461" unicode="ĉ" d="M397 626l-28 -25l-102 91l-102 -91l-28 25l99 100q15 15 31 15q15 0 30 -15zM413 27q-55 -37 -128 -37q-92 0 -159.5 70t-67.5 210t67.5 209.5t159.5 69.5q73 0 128 -37l-21 -44q-45 31 -103 31q-70 0 -120.5 -56t-50.5 -173t50.5 -173t120.5 -56q58 0 103 31z"/>
<glyph glyph-name="Cdotaccent" horiz-adv-x="548" unicode="Ċ" d="M366 856q0 -17 -12 -29t-29 -12t-29 12t-12 29t12 28.5t29 11.5t29 -11.5t12 -28.5zM496 27q-54 -37 -153 -37q-121 0 -201 95.5t-80 276.5t80 276.5t201 95.5q99 0 153 -37l-21 -50q-49 33 -128 33q-96 0 -159 -80.5t-63 -237.5t62.5 -237t159.5 -80q81 0 128 32z"/>
<glyph glyph-name="cdotaccent" horiz-adv-x="461" unicode="ċ" d="M303 671q0 -17 -12 -29t-29 -12t-29 12t-12 29t12 28.5t29 11.5t29 -11.5t12 -28.5zM413 27q-55 -37 -128 -37q-92 0 -159.5 70t-67.5 210t67.5 209.5t159.5 69.5q73 0 128 -37l-21 -44q-45 31 -103 31q-70 0 -120.5 -56t-50.5 -173t50.5 -173t120.5 -56q58 0 103 31z "/>
<glyph glyph-name="Ccaron" horiz-adv-x="548" unicode="Č" d="M454 904l-100 -100q-16 -16 -30 -16q-15 0 -31 16l-99 100l28 24l102 -91l102 91zM496 27q-54 -37 -153 -37q-121 0 -201 95.5t-80 276.5t80 276.5t201 95.5q99 0 153 -37l-21 -50q-49 33 -128 33q-96 0 -159 -80.5t-63 -237.5t62.5 -237t159.5 -80q81 0 128 32z"/>
<glyph glyph-name="ccaron" horiz-adv-x="461" unicode="č" d="M397 719l-100 -100q-16 -16 -30 -16q-15 0 -31 16l-99 100l28 24l102 -91l102 91zM413 27q-55 -37 -128 -37q-92 0 -159.5 70t-67.5 210t67.5 209.5t159.5 69.5q73 0 128 -37l-21 -44q-45 31 -103 31q-70 0 -120.5 -56t-50.5 -173t50.5 -173t120.5 -56q58 0 103 31z"/>
<glyph glyph-name="Dcaron" horiz-adv-x="638" unicode="Ď" d="M410 904l-100 -100q-16 -16 -30 -16q-15 0 -31 16l-99 100l28 24l102 -91l102 91zM515 362q0 158 -69 238.5t-177 80.5q-78 0 -123 -20v-598q40 -20 123 -20q108 0 177 80.5t69 238.5zM577 362q0 -181 -86.5 -276.5t-222.5 -95.5q-115 0 -183 37v670q71 37 183 37 q136 0 222.5 -95.5t86.5 -276.5z"/>
<glyph glyph-name="dcaron" horiz-adv-x="561" unicode="ď" d="M634 776l-20 -154h-40v154q11 16 30 16q20 0 30 -16zM411 60v420q-39 15 -102 15q-92 0 -142 -64.5t-50 -168.5q0 -102 49.5 -162.5t140.5 -60.5q28 0 59.5 6.5t44.5 14.5zM470 27q-23 -15 -69.5 -26t-92.5 -11q-118 0 -184 74t-66 197q0 126 65.5 204.5t182.5 78.5 q63 0 105 -16v257h59v-758z"/>
<glyph glyph-name="Dcroat" horiz-adv-x="648" unicode="Đ" d="M526 362q0 158 -69.5 238.5t-177.5 80.5q-78 0 -123 -20v-266h141v-48h-141v-284q40 -20 123 -20q108 0 177.5 80.5t69.5 238.5zM587 362q0 -181 -86.5 -276.5t-222.5 -95.5q-115 0 -183 37v320h-66v48h66v302q71 37 183 37q136 0 222.5 -95.5t86.5 -276.5z"/>
<glyph glyph-name="dcroat" horiz-adv-x="549" unicode="đ" d="M411 60v420q-39 15 -102 15q-92 0 -142 -64.5t-50 -168.5q0 -102 49.5 -162.5t140.5 -60.5q28 0 59.5 6.5t44.5 14.5zM551 638h-81v-611q-23 -15 -69.5 -26t-92.5 -11q-118 0 -184 74t-66 197q0 126 65.5 204.5t182.5 78.5q63 0 105 -16v110h-168v41h168v106h59v-106h81 v-41z"/>
<glyph glyph-name="Emacron" horiz-adv-x="507" unicode="Ē" d="M385 822h-232v45h232v-45zM455 0h-370v724h370v-53h-310v-270h287v-53h-287v-295h310v-53z"/>
<glyph glyph-name="emacron" horiz-adv-x="552" unicode="ē" d="M398 637h-232v45h232v-45zM437 330q-1 85 -41 128.5t-110 43.5q-79 0 -125.5 -59.5t-48.5 -159.5zM494 326q0 -20 -1 -32l-378 -56q6 -97 57.5 -148t138.5 -51q88 0 146 34l20 -46q-63 -37 -168 -37q-117 0 -184 72.5t-67 207.5q0 126 61.5 202.5t166.5 76.5 q95 0 151.5 -59t56.5 -164z"/>
<glyph glyph-name="Ebreve" horiz-adv-x="507" unicode="Ĕ" d="M394 913q-4 -58 -38 -92.5t-91 -34.5t-91.5 34.5t-38.5 92.5l41 6q15 -88 89 -88q73 0 88 88zM455 0h-370v724h370v-53h-310v-270h287v-53h-287v-295h310v-53z"/>
<glyph glyph-name="ebreve" horiz-adv-x="552" unicode="ĕ" d="M408 728q-4 -58 -38 -92.5t-91 -34.5t-91.5 34.5t-38.5 92.5l41 6q15 -88 89 -88q73 0 88 88zM437 330q-1 85 -41 128.5t-110 43.5q-79 0 -125.5 -59.5t-48.5 -159.5zM494 326q0 -20 -1 -32l-378 -56q6 -97 57.5 -148t138.5 -51q88 0 146 34l20 -46q-63 -37 -168 -37 q-117 0 -184 72.5t-67 207.5q0 126 61.5 202.5t166.5 76.5q95 0 151.5 -59t56.5 -164z"/>
<glyph glyph-name="Edotaccent" horiz-adv-x="507" unicode="Ė" d="M306 856q0 -17 -12 -29t-29 -12t-29 12t-12 29t12 28.5t29 11.5t29 -11.5t12 -28.5zM455 0h-370v724h370v-53h-310v-270h287v-53h-287v-295h310v-53z"/>
<glyph glyph-name="edotaccent" horiz-adv-x="552" unicode="ė" d="M320 671q0 -17 -12 -29t-29 -12t-29 12t-12 29t12 28.5t29 11.5t29 -11.5t12 -28.5zM437 330q-1 85 -41 128.5t-110 43.5q-79 0 -125.5 -59.5t-48.5 -159.5zM494 326q0 -20 -1 -32l-378 -56q6 -97 57.5 -148t138.5 -51q88 0 146 34l20 -46q-63 -37 -168 -37 q-117 0 -184 72.5t-67 207.5q0 126 61.5 202.5t166.5 76.5q95 0 151.5 -59t56.5 -164z"/>
<glyph glyph-name="Eogonek" horiz-adv-x="507" unicode="Ę" d="M473 -173q-38 -19 -83 -19q-44 0 -72 23t-28 62q0 58 80 107h-285v724h370v-53h-310v-270h287v-53h-287v-295h310v-53h-30q-84 -47 -84 -102q0 -22 15 -35t39 -13q33 0 64 14z"/>
<glyph glyph-name="eogonek" horiz-adv-x="552" unicode="ę" d="M437 330q-1 85 -41 128.5t-110 43.5q-79 0 -125.5 -59.5t-48.5 -159.5zM494 326q0 -20 -1 -32l-378 -56q6 -97 57.5 -148t138.5 -51q88 0 146 34l20 -46q-16 -10 -41 -18q-51 -25 -76 -55t-25 -56q0 -22 15 -35t39 -13q33 0 64 14l15 -37q-38 -19 -84 -19q-44 0 -72 23 t-28 62q0 51 69 99q-28 -2 -44 -2q-117 0 -184 72.5t-67 207.5q0 126 61.5 202.5t166.5 76.5q95 0 151.5 -59t56.5 -164z"/>
<glyph glyph-name="Ecaron" horiz-adv-x="507" unicode="Ě" d="M396 904l-100 -100q-16 -16 -30 -16q-15 0 -31 16l-99 100l28 24l102 -91l102 91zM455 0h-370v724h370v-53h-310v-270h287v-53h-287v-295h310v-53z"/>
<glyph glyph-name="ecaron" horiz-adv-x="552" unicode="ě" d="M411 719l-100 -100q-16 -16 -30 -16q-15 0 -31 16l-99 100l28 24l102 -91l102 91zM437 330q-1 85 -41 128.5t-110 43.5q-79 0 -125.5 -59.5t-48.5 -159.5zM494 326q0 -20 -1 -32l-378 -56q6 -97 57.5 -148t138.5 -51q88 0 146 34l20 -46q-63 -37 -168 -37 q-117 0 -184 72.5t-67 207.5q0 126 61.5 202.5t166.5 76.5q95 0 151.5 -59t56.5 -164z"/>
<glyph glyph-name="Gcircumflex" horiz-adv-x="647" unicode="Ĝ" d="M487 811l-28 -25l-102 91l-102 -91l-28 25l99 100q15 15 31 15q15 0 30 -15zM566 27q-65 -37 -189 -37q-136 0 -225.5 96.5t-89.5 275.5t90.5 275.5t227.5 96.5q112 0 171 -37l-22 -49q-53 33 -148 33q-110 0 -184 -81.5t-74 -237.5q0 -157 72.5 -238t179.5 -81 q98 0 132 21v286h-174v51h233v-374z"/>
<glyph glyph-name="gcircumflex" horiz-adv-x="549" unicode="ĝ" d="M419 626l-28 -25l-102 91l-102 -91l-28 25l99 100q15 15 31 15q15 0 30 -15zM412 93v387q-42 20 -105 20q-85 0 -137.5 -54t-52.5 -168q0 -101 49.5 -155t129.5 -54q68 0 116 24zM470 -6q0 -104 -56 -161.5t-158 -57.5q-96 0 -170 39l21 47q66 -35 146 -35 q78 0 118.5 43.5t40.5 124.5v52q-52 -26 -123 -26q-104 0 -167.5 68t-63.5 189q0 137 69.5 204.5t181.5 67.5q94 0 161 -37v-518z"/>
<glyph glyph-name="Gbreve" horiz-adv-x="647" unicode="Ğ" d="M475 913q-4 -58 -38.5 -92.5t-90.5 -34.5q-57 0 -91.5 34.5t-38.5 92.5l41 6q15 -88 89 -88q73 0 88 88zM566 27q-65 -37 -189 -37q-136 0 -225.5 96.5t-89.5 275.5t90.5 275.5t227.5 96.5q112 0 171 -37l-22 -49q-53 33 -148 33q-110 0 -184 -81.5t-74 -237.5 q0 -157 72.5 -238t179.5 -81q98 0 132 21v286h-174v51h233v-374z"/>
<glyph glyph-name="gbreve" horiz-adv-x="549" unicode="ğ" d="M416 728q-4 -58 -38 -92.5t-91 -34.5t-91.5 34.5t-38.5 92.5l41 6q15 -88 89 -88q73 0 88 88zM412 93v387q-42 20 -105 20q-85 0 -137.5 -54t-52.5 -168q0 -101 49.5 -155t129.5 -54q68 0 116 24zM470 -6q0 -104 -56 -161.5t-158 -57.5q-96 0 -170 39l21 47 q66 -35 146 -35q78 0 118.5 43.5t40.5 124.5v52q-52 -26 -123 -26q-104 0 -167.5 68t-63.5 189q0 137 69.5 204.5t181.5 67.5q94 0 161 -37v-518z"/>
<glyph glyph-name="Gdotaccent" horiz-adv-x="647" unicode="Ġ" d="M397 856q0 -17 -12 -29t-29 -12t-29 12t-12 29t12 28.5t29 11.5t29 -11.5t12 -28.5zM566 27q-65 -37 -189 -37q-136 0 -225.5 96.5t-89.5 275.5t90.5 275.5t227.5 96.5q112 0 171 -37l-22 -49q-53 33 -148 33q-110 0 -184 -81.5t-74 -237.5q0 -157 72.5 -238t179.5 -81 q98 0 132 21v286h-174v51h233v-374z"/>
<glyph glyph-name="gdotaccent" horiz-adv-x="549" unicode="ġ" d="M331 671q0 -17 -12 -29t-29 -12t-29 12t-12 29t12 28.5t29 11.5t29 -11.5t12 -28.5zM412 93v387q-42 20 -105 20q-85 0 -137.5 -54t-52.5 -168q0 -101 49.5 -155t129.5 -54q68 0 116 24zM470 -6q0 -104 -56 -161.5t-158 -57.5q-96 0 -170 39l21 47q66 -35 146 -35 q78 0 118.5 43.5t40.5 124.5v52q-52 -26 -123 -26q-104 0 -167.5 68t-63.5 189q0 137 69.5 204.5t181.5 67.5q94 0 161 -37v-518z"/>
<glyph glyph-name="Gcommaaccent" horiz-adv-x="647" unicode="Ģ" d="M385 -78l-72 -137h-47l51 137q16 18 38 18q25 0 30 -18zM566 27q-65 -37 -189 -37q-136 0 -225.5 96.5t-89.5 275.5t90.5 275.5t227.5 96.5q112 0 171 -37l-22 -49q-53 33 -148 33q-110 0 -184 -81.5t-74 -237.5q0 -157 72.5 -238t179.5 -81q98 0 132 21v286h-174v51h233 v-374z"/>
<glyph glyph-name="gcommaaccent" horiz-adv-x="549" unicode="ģ" d="M381 755l-51 -137q-16 -18 -39 -18q-25 0 -30 18l73 137h47zM412 93v387q-42 20 -105 20q-85 0 -137.5 -54t-52.5 -168q0 -101 49.5 -155t129.5 -54q68 0 116 24zM470 -6q0 -104 -56 -161.5t-158 -57.5q-96 0 -170 39l21 47q66 -35 146 -35q78 0 118.5 43.5t40.5 124.5 v52q-52 -26 -123 -26q-104 0 -167.5 68t-63.5 189q0 137 69.5 204.5t181.5 67.5q94 0 161 -37v-518z"/>
<glyph glyph-name="Hcircumflex" horiz-adv-x="639" unicode="Ĥ" d="M450 811l-28 -25l-102 91l-102 -91l-28 25l99 100q15 15 31 15q15 0 30 -15zM554 0h-61v348h-347v-348h-61v724h61v-323h347v323h61v-724z"/>
<glyph glyph-name="hcircumflex" horiz-adv-x="554" unicode="ĥ" d="M239 847l-28 -25l-102 91l-102 -91l-28 25l99 100q15 15 31 15q15 0 30 -15zM475 0h-59v368q0 64 -40 97t-110 33q-71 0 -128 -35v-463h-59v785h59v-272q65 35 136 35q94 0 147.5 -46t53.5 -131v-371z"/>
<glyph glyph-name="Hbar" horiz-adv-x="639" unicode="Ħ" d="M494 400v137h-348v-137h348zM622 537h-68v-537h-60v348h-348v-348h-61v537h-68v41h68v146h61v-146h348v146h60v-146h68v-41z"/>
<glyph glyph-name="hbar" horiz-adv-x="554" unicode="ħ" d="M475 0h-59v368q0 64 -40 97t-110 33q-71 0 -128 -35v-463h-59v639h-81v40h81v106h59v-106h168v-40h-168v-126q65 35 136 35q94 0 147.5 -46t53.5 -131v-371z"/>
<glyph glyph-name="Itilde" horiz-adv-x="235" unicode="Ĩ" d="M248 880q-6 -33 -25.5 -55t-50.5 -22q-28 0 -57.5 25.5t-45.5 25.5q-38 0 -47 -52l-35 21q6 33 26 55t51 22q28 0 57 -25.5t45 -25.5q38 0 47 52zM148 0h-61v724h61v-724z"/>
<glyph glyph-name="itilde" horiz-adv-x="227" unicode="ĩ" d="M244 695q-6 -33 -25.5 -55t-50.5 -22q-28 0 -57.5 25.5t-45.5 25.5q-38 0 -47 -52l-35 21q6 33 26 55t51 22q28 0 57 -25.5t45 -25.5q38 0 47 52zM143 0h-59v539h59v-539z"/>
<glyph glyph-name="Imacron" horiz-adv-x="235" unicode="Ī" d="M234 822h-232v45h232v-45zM148 0h-61v724h61v-724z"/>
<glyph glyph-name="imacron" horiz-adv-x="227" unicode="ī" d="M230 637h-232v45h232v-45zM143 0h-59v539h59v-539z"/>
<glyph glyph-name="Ibreve" horiz-adv-x="235" unicode="Ĭ" d="M247 913q-4 -58 -38.5 -92.5t-90.5 -34.5q-57 0 -91.5 34.5t-38.5 92.5l41 6q15 -88 89 -88q73 0 88 88zM148 0h-61v724h61v-724z"/>
<glyph glyph-name="ibreve" horiz-adv-x="227" unicode="ĭ" d="M243 728q-4 -58 -38.5 -92.5t-90.5 -34.5q-57 0 -91.5 34.5t-38.5 92.5l41 6q15 -88 89 -88q73 0 88 88zM143 0h-59v539h59v-539z"/>
<glyph glyph-name="Iogonek" horiz-adv-x="235" unicode="Į" d="M183 -173q-38 -19 -84 -19q-44 0 -71.5 23t-27.5 62q0 60 87 111v720h61v-724h-14q-84 -47 -84 -102q0 -22 15.5 -35t39.5 -13q32 0 63 14z"/>
<glyph glyph-name="iogonek" horiz-adv-x="227" unicode="į" d="M178 -173q-38 -19 -83 -19q-44 0 -72 23t-28 62q0 61 89 112v534h59v-539h-13q-84 -47 -84 -102q0 -22 15 -35t39 -13q33 0 64 14zM155 700q0 -17 -12 -29t-29 -12t-29.5 12t-12.5 29t12.5 29t29.5 12t29 -12t12 -29z"/>
<glyph glyph-name="Idotaccent" horiz-adv-x="227" unicode="İ" d="M155 671q0 -17 -12 -29t-29 -12t-29 12t-12 29t12 28.5t29 11.5t29 -11.5t12 -28.5zM143 0h-59v539h59v-539z"/>
<glyph glyph-name="dotlessi" horiz-adv-x="227" unicode="ı" d="M143 0h-59v539h59v-539z"/>
<glyph glyph-name="IJ" horiz-adv-x="470" unicode="Ĳ" d="M148 0h-61v724h61v-724zM383 80q0 -244 -219 -298v55q158 52 158 243v644h61v-644z"/>
<glyph glyph-name="ij" horiz-adv-x="455" unicode="ĳ" d="M143 0h-59v539h59v-539zM371 51q0 -118 -55.5 -184.5t-142.5 -87.5v53q61 21 100 75t39 144v488h59v-488zM155 700q0 -17 -12 -29t-29 -12t-29.5 12t-12.5 29t12.5 29t29.5 12t29 -12t12 -29zM383 700q0 -17 -12.5 -29t-29.5 -12t-29.5 12t-12.5 29t12.5 29t29.5 12 t29.5 -12t12.5 -29z"/>
<glyph glyph-name="Jcircumflex" horiz-adv-x="235" unicode="Ĵ" d="M248 811l-28 -25l-102 91l-102 -91l-28 25l99 100q15 15 31 15q15 0 30 -15zM148 80q0 -244 -219 -298v55q158 52 158 243v644h61v-644z"/>
<glyph glyph-name="jcircumflex" horiz-adv-x="227" unicode="ĵ" d="M244 626l-28 -25l-102 91l-102 -91l-28 25l99 100q15 15 31 15q15 0 30 -15zM143 51q0 -118 -55 -184.5t-142 -87.5v53q61 21 99.5 75t38.5 144v488h59v-488z"/>
<glyph glyph-name="Kcommaaccent" horiz-adv-x="561" unicode="Ķ" d="M326 -78l-72 -137h-47l51 137q16 18 38 18q25 0 30 -18zM542 0h-74l-318 376h-2v-376h-61v724h61v-338h2l311 338h74l-316 -343z"/>
<glyph glyph-name="kcommaaccent" horiz-adv-x="505" unicode="ķ" d="M300 -78l-72 -137h-47l51 137q16 18 38 18q25 0 30 -18zM488 0h-74l-272 279h-2v-279h-57v785h57v-498h2l259 252h74l-264 -257z"/>
<glyph glyph-name="kgreenlandic" horiz-adv-x="505" unicode="ĸ" d="M488 0h-74l-272 279h-2v-279h-57v539h57v-252h2l259 252h74l-264 -257z"/>
<glyph glyph-name="Lacute" horiz-adv-x="478" unicode="Ĺ" d="M228 919l-96 -131h-48l75 131q16 19 40 19q23 0 29 -19zM442 0h-355v724h61v-671h294v-53z"/>
<glyph glyph-name="lacute" horiz-adv-x="227" unicode="ĺ" d="M226 962l-96 -131h-48l75 131q16 19 40 19q23 0 29 -19zM143 0h-59v785h59v-785z"/>
<glyph glyph-name="Lcommaaccent" horiz-adv-x="478" unicode="Ļ" d="M301 -78l-72 -137h-47l51 137q16 18 38 18q25 0 30 -18zM442 0h-355v724h61v-671h294v-53z"/>
<glyph glyph-name="lcommaaccent" horiz-adv-x="227" unicode="ļ" d="M143 -78l-72 -137h-47l51 137q16 18 38 18q25 0 30 -18zM143 0h-59v785h59v-785z"/>
<glyph glyph-name="Lcaron" horiz-adv-x="478" unicode="Ľ" d="M312 714l-20 -154h-40v154q11 16 30 16q20 0 30 -16zM442 0h-355v724h61v-671h294v-53z"/>
<glyph glyph-name="lcaron" horiz-adv-x="239" unicode="ľ" d="M307 776l-20 -154h-40v154q11 16 30 16q20 0 30 -16zM143 0h-59v785h59v-785z"/>
<glyph glyph-name="Ldot" horiz-adv-x="478" unicode="Ŀ" d="M337 409q0 -17 -12 -29t-29 -12t-29 12t-12 29t12 28.5t29 11.5t29 -11.5t12 -28.5zM442 0h-355v724h61v-671h294v-53z"/>
<glyph glyph-name="ldot" horiz-adv-x="289" unicode="ŀ" d="M299 409q0 -17 -12 -29t-29 -12t-29 12t-12 29t12 28.5t29 11.5t29 -11.5t12 -28.5zM143 0h-59v785h59v-785z"/>
<glyph glyph-name="Lslash" horiz-adv-x="497" unicode="Ł" d="M461 0h-355v386l-77 -43v51l77 44v286h61v-252l137 77v-51l-137 -77v-368h294v-53z"/>
<glyph glyph-name="lslash" horiz-adv-x="243" unicode="ł" d="M226 500l-75 -43v-457h-59v425l-75 -42v49l75 42v311h59v-279l75 43v-49z"/>
<glyph glyph-name="Nacute" horiz-adv-x="696" unicode="Ń" d="M454 919l-96 -131h-48l75 131q16 19 40 19q23 0 29 -19zM611 0h-65l-364 577l-41 77h-2q2 -46 2 -86v-568h-56v724h68l359 -568l42 -76h2q-1 46 -1 87v557h56v-724z"/>
<glyph glyph-name="nacute" horiz-adv-x="554" unicode="ń" d="M368 734l-96 -131h-48l75 131q16 19 40 19q23 0 29 -19zM475 0h-59v368q0 62 -37.5 97t-109.5 35q-76 0 -131 -22v-478h-59v512q82 37 190 37q99 0 152.5 -47t53.5 -131v-371z"/>
<glyph glyph-name="Ncommaaccent" horiz-adv-x="696" unicode="Ņ" d="M379 -78l-72 -137h-47l51 137q16 18 38 18q25 0 30 -18zM611 0h-65l-364 577l-41 77h-2q2 -46 2 -86v-568h-56v724h68l359 -568l42 -76h2q-1 46 -1 87v557h56v-724z"/>
<glyph glyph-name="ncommaaccent" horiz-adv-x="554" unicode="ņ" d="M315 -78l-72 -137h-47l51 137q16 18 38 18q25 0 30 -18zM475 0h-59v368q0 62 -37.5 97t-109.5 35q-76 0 -131 -22v-478h-59v512q82 37 190 37q99 0 152.5 -47t53.5 -131v-371z"/>
<glyph glyph-name="Ncaron" horiz-adv-x="696" unicode="Ň" d="M479 904l-100 -100q-16 -16 -30 -16q-15 0 -31 16l-99 100l28 24l102 -91l102 91zM611 0h-65l-364 577l-41 77h-2q2 -46 2 -86v-568h-56v724h68l359 -568l42 -76h2q-1 46 -1 87v557h56v-724z"/>
<glyph glyph-name="ncaron" horiz-adv-x="554" unicode="ň" d="M393 719l-100 -100q-16 -16 -30 -16q-15 0 -31 16l-99 100l28 24l102 -91l102 91zM475 0h-59v368q0 62 -37.5 97t-109.5 35q-76 0 -131 -22v-478h-59v512q82 37 190 37q99 0 152.5 -47t53.5 -131v-371z"/>
<glyph glyph-name="napostrophe" horiz-adv-x="604" unicode="ŉ" d="M151 769l-105 -226h-43l83 226q15 20 37 20q24 0 28 -20zM525 0h-59v368q0 62 -37.5 97t-109.5 35q-76 0 -131 -22v-478h-59v512q82 37 190 37q99 0 152.5 -47t53.5 -131v-371z"/>
<glyph glyph-name="Eng" horiz-adv-x="696" unicode="Ŋ" d="M611 48q0 -113 -53 -180t-137 -88l-15 48q55 15 94.5 57t50.5 109l-369 583l-41 77h-2q2 -46 2 -86v-568h-56v724h68l359 -568l42 -76h2q-1 46 -1 87v557h56v-676z"/>
<glyph glyph-name="eng" horiz-adv-x="554" unicode="ŋ" d="M475 43q0 -109 -51 -173.5t-127 -87.5l-20 47q61 21 100 74t39 140v325q0 62 -37.5 97t-109.5 35q-76 0 -131 -22v-478h-59v512q82 37 190 37q99 0 152.5 -47t53.5 -131v-328z"/>
<glyph glyph-name="Omacron" horiz-adv-x="676" unicode="Ō" d="M453 822h-232v45h232v-45zM553 362q0 137 -56.5 227.5t-158.5 90.5t-158.5 -90.5t-56.5 -227.5t56.5 -227.5t158.5 -90.5t158.5 90.5t56.5 227.5zM614 362q0 -161 -72.5 -266.5t-203.5 -105.5t-203.5 105.5t-72.5 266.5t72.5 266.5t203.5 105.5t203.5 -105.5t72.5 -266.5 z"/>
<glyph glyph-name="omacron" horiz-adv-x="560" unicode="ō" d="M396 637h-232v45h232v-45zM443 270q0 104 -41.5 167t-121.5 63t-121.5 -63t-41.5 -167t41.5 -167t121.5 -63t121.5 63t41.5 167zM502 270q0 -124 -58 -202t-164 -78t-164 78t-58 202t58 201.5t164 77.5t164 -77.5t58 -201.5z"/>
<glyph glyph-name="Obreve" horiz-adv-x="676" unicode="Ŏ" d="M466 913q-4 -58 -38 -92.5t-91 -34.5t-91.5 34.5t-38.5 92.5l41 6q15 -88 89 -88q73 0 88 88zM553 362q0 137 -56.5 227.5t-158.5 90.5t-158.5 -90.5t-56.5 -227.5t56.5 -227.5t158.5 -90.5t158.5 90.5t56.5 227.5zM614 362q0 -161 -72.5 -266.5t-203.5 -105.5 t-203.5 105.5t-72.5 266.5t72.5 266.5t203.5 105.5t203.5 -105.5t72.5 -266.5z"/>
<glyph glyph-name="obreve" horiz-adv-x="560" unicode="ŏ" d="M409 728q-4 -58 -38.5 -92.5t-90.5 -34.5q-57 0 -91.5 34.5t-38.5 92.5l41 6q15 -88 89 -88q73 0 88 88zM443 270q0 104 -41.5 167t-121.5 63t-121.5 -63t-41.5 -167t41.5 -167t121.5 -63t121.5 63t41.5 167zM502 270q0 -124 -58 -202t-164 -78t-164 78t-58 202t58 201.5 t164 77.5t164 -77.5t58 -201.5z"/>
<glyph glyph-name="Ohungarumlaut" horiz-adv-x="676" unicode="Ő" d="M374 919l-97 -131h-43l78 131q15 19 36 19t26 -19zM511 919l-97 -131h-43l78 131q15 19 36 19t26 -19zM553 362q0 137 -56.5 227.5t-158.5 90.5t-158.5 -90.5t-56.5 -227.5t56.5 -227.5t158.5 -90.5t158.5 90.5t56.5 227.5zM614 362q0 -161 -72.5 -266.5t-203.5 -105.5 t-203.5 105.5t-72.5 266.5t72.5 266.5t203.5 105.5t203.5 -105.5t72.5 -266.5z"/>
<glyph glyph-name="ohungarumlaut" horiz-adv-x="560" unicode="ő" d="M317 734l-97 -131h-43l78 131q15 19 36 19t26 -19zM454 734l-97 -131h-43l78 131q15 19 36 19t26 -19zM443 270q0 104 -41.5 167t-121.5 63t-121.5 -63t-41.5 -167t41.5 -167t121.5 -63t121.5 63t41.5 167zM502 270q0 -124 -58 -202t-164 -78t-164 78t-58 202t58 201.5 t164 77.5t164 -77.5t58 -201.5z"/>
<glyph glyph-name="OE" horiz-adv-x="915" unicode="Œ" d="M493 53v618q-51 10 -100 10q-131 0 -200.5 -82.5t-69.5 -236.5t69.5 -236.5t200.5 -82.5q49 0 100 10zM863 0h-363q-53 -10 -108 -10q-158 0 -244 97t-86 275t86 275t244 97q55 0 108 -10h363v-53h-310v-270h286v-53h-286v-295h310v-53z"/>
<glyph glyph-name="oe" horiz-adv-x="932" unicode="œ" d="M443 270q0 104 -41.5 167t-121.5 63t-121.5 -63t-41.5 -167t41.5 -167t121.5 -63t121.5 63t41.5 167zM817 330q-1 85 -41 128.5t-110 43.5q-79 0 -125 -59.5t-48 -159.5zM874 323q0 -18 -1 -29l-377 -56q6 -97 58 -148t139 -51q86 0 144 34l20 -46q-63 -37 -166 -37 q-170 0 -220 146q-22 -69 -70.5 -107.5t-120.5 -38.5q-106 0 -164 78t-58 202t58 201.5t164 77.5q72 0 120 -38t70 -107q24 69 74.5 107t122.5 38q96 0 151.5 -59.5t55.5 -166.5z"/>
<glyph glyph-name="Racute" horiz-adv-x="595" unicode="Ŕ" d="M397 919l-96 -131h-48l75 131q16 19 40 19q23 0 29 -19zM459 534q0 69 -47.5 109.5t-138.5 40.5q-75 0 -126 -21v-285h103q101 0 155 36.5t54 119.5zM554 0h-67l-124 242q-44 87 -133 87h-83v-329h-60v696q79 38 185 38q119 0 183 -54.5t64 -143.5q0 -164 -179 -190v-2 q47 -21 85 -94z"/>
<glyph glyph-name="racute" horiz-adv-x="344" unicode="ŕ" d="M280 734l-96 -131h-48l75 131q16 19 40 19q23 0 29 -19zM311 547l-13 -51q-18 3 -40 3q-75 0 -120 -21v-478h-59v512q76 37 186 37q36 0 46 -2z"/>
<glyph glyph-name="Rcommaaccent" horiz-adv-x="595" unicode="Ŗ" d="M335 -78l-72 -137h-47l51 137q16 18 38 18q25 0 30 -18zM459 534q0 69 -47.5 109.5t-138.5 40.5q-75 0 -126 -21v-285h103q101 0 155 36.5t54 119.5zM554 0h-67l-124 242q-44 87 -133 87h-83v-329h-60v696q79 38 185 38q119 0 183 -54.5t64 -143.5q0 -164 -179 -190v-2 q47 -21 85 -94z"/>
<glyph glyph-name="rcommaaccent" horiz-adv-x="344" unicode="ŗ" d="M144 -78l-72 -137h-47l51 137q16 18 38 18q25 0 30 -18zM311 547l-13 -51q-18 3 -40 3q-75 0 -120 -21v-478h-59v512q76 37 186 37q36 0 46 -2z"/>
<glyph glyph-name="Rcaron" horiz-adv-x="595" unicode="Ř" d="M414 904l-100 -100q-16 -16 -30 -16q-15 0 -31 16l-99 100l28 24l102 -91l102 91zM459 534q0 69 -47.5 109.5t-138.5 40.5q-75 0 -126 -21v-285h103q101 0 155 36.5t54 119.5zM554 0h-67l-124 242q-44 87 -133 87h-83v-329h-60v696q79 38 185 38q119 0 183 -54.5 t64 -143.5q0 -164 -179 -190v-2q47 -21 85 -94z"/>
<glyph glyph-name="rcaron" horiz-adv-x="344" unicode="ř" d="M319 719l-100 -100q-16 -16 -30 -16q-15 0 -31 16l-99 100l28 24l102 -91l102 91zM311 547l-13 -51q-18 3 -40 3q-75 0 -120 -21v-478h-59v512q76 37 186 37q36 0 46 -2z"/>
<glyph glyph-name="Sacute" horiz-adv-x="522" unicode="Ś" d="M365 919l-96 -131h-48l75 131q16 19 40 19q23 0 29 -19zM461 190q0 -92 -66.5 -146t-172.5 -54q-100 0 -169 37l23 53q64 -35 145 -35q79 0 128.5 38.5t49.5 105.5q0 30 -11.5 53.5t-35.5 42t-45 30t-56 26.5q-34 15 -57 26.5t-50.5 30t-44 38.5t-28 48.5t-11.5 61.5 q0 87 60.5 137.5t156.5 50.5q98 0 154 -37l-23 -51q-56 34 -130 34q-70 0 -113.5 -35t-43.5 -97q0 -24 10 -45t23 -35.5t37 -29.5t41.5 -23t46.5 -21q41 -18 67 -32.5t56 -39t44.5 -57.5t14.5 -75z"/>
<glyph glyph-name="sacute" horiz-adv-x="448" unicode="ś" d="M329 734l-96 -131h-48l75 131q16 19 40 19q23 0 29 -19zM393 138q0 -67 -51.5 -107.5t-140.5 -40.5q-90 0 -154 37l23 46q57 -34 130 -34q60 0 96 27t36 73q0 44 -29.5 68t-92.5 47q-74 28 -111.5 60.5t-37.5 95.5q0 60 46 99.5t125 39.5q82 0 142 -37l-23 -44 q-49 33 -115 33q-53 0 -84 -26t-31 -65q0 -44 27.5 -66t87.5 -45q39 -15 61 -25.5t47.5 -29.5t37 -45t11.5 -61z"/>
<glyph glyph-name="Scircumflex" horiz-adv-x="522" unicode="Ŝ" d="M387 811l-28 -25l-102 91l-102 -91l-28 25l99 100q15 15 31 15q15 0 30 -15zM461 190q0 -92 -66.5 -146t-172.5 -54q-100 0 -169 37l23 53q64 -35 145 -35q79 0 128.5 38.5t49.5 105.5q0 30 -11.5 53.5t-35.5 42t-45 30t-56 26.5q-34 15 -57 26.5t-50.5 30t-44 38.5 t-28 48.5t-11.5 61.5q0 87 60.5 137.5t156.5 50.5q98 0 154 -37l-23 -51q-56 34 -130 34q-70 0 -113.5 -35t-43.5 -97q0 -24 10 -45t23 -35.5t37 -29.5t41.5 -23t46.5 -21q41 -18 67 -32.5t56 -39t44.5 -57.5t14.5 -75z"/>
<glyph glyph-name="scircumflex" horiz-adv-x="448" unicode="ŝ" d="M355 626l-28 -25l-102 91l-102 -91l-28 25l99 100q15 15 31 15q15 0 30 -15zM393 138q0 -67 -51.5 -107.5t-140.5 -40.5q-90 0 -154 37l23 46q57 -34 130 -34q60 0 96 27t36 73q0 44 -29.5 68t-92.5 47q-74 28 -111.5 60.5t-37.5 95.5q0 60 46 99.5t125 39.5 q82 0 142 -37l-23 -44q-49 33 -115 33q-53 0 -84 -26t-31 -65q0 -44 27.5 -66t87.5 -45q39 -15 61 -25.5t47.5 -29.5t37 -45t11.5 -61z"/>
<glyph glyph-name="Scedilla" horiz-adv-x="522" unicode="Ş" d="M337 -124q0 -37 -39.5 -57t-111.5 -20q-37 0 -72 4l19 35q27 -3 53 -3q99 0 99 41q0 32 -63 32q-24 0 -54 -3l18 34q27 3 48 3q103 0 103 -66zM461 190q0 -92 -66.5 -146t-172.5 -54q-100 0 -169 37l23 53q64 -35 145 -35q79 0 128.5 38.5t49.5 105.5q0 30 -11.5 53.5 t-35.5 42t-45 30t-56 26.5q-34 15 -57 26.5t-50.5 30t-44 38.5t-28 48.5t-11.5 61.5q0 87 60.5 137.5t156.5 50.5q98 0 154 -37l-23 -51q-56 34 -130 34q-70 0 -113.5 -35t-43.5 -97q0 -24 10 -45t23 -35.5t37 -29.5t41.5 -23t46.5 -21q41 -18 67 -32.5t56 -39t44.5 -57.5 t14.5 -75z"/>
<glyph glyph-name="scedilla" horiz-adv-x="448" unicode="ş" d="M311 -124q0 -37 -39.5 -57t-111.5 -20q-37 0 -72 4l19 35q27 -3 53 -3q99 0 99 41q0 32 -63 32q-24 0 -54 -3l18 34q27 3 48 3q103 0 103 -66zM393 138q0 -67 -51.5 -107.5t-140.5 -40.5q-90 0 -154 37l23 46q57 -34 130 -34q60 0 96 27t36 73q0 44 -29.5 68t-92.5 47 q-74 28 -111.5 60.5t-37.5 95.5q0 60 46 99.5t125 39.5q82 0 142 -37l-23 -44q-49 33 -115 33q-53 0 -84 -26t-31 -65q0 -44 27.5 -66t87.5 -45q39 -15 61 -25.5t47.5 -29.5t37 -45t11.5 -61z"/>
<glyph glyph-name="Scaron" horiz-adv-x="522" unicode="Š" d="M386 904l-100 -100q-16 -16 -30 -16q-15 0 -31 16l-99 100l28 24l102 -91l102 91zM461 190q0 -92 -66.5 -146t-172.5 -54q-100 0 -169 37l23 53q64 -35 145 -35q79 0 128.5 38.5t49.5 105.5q0 30 -11.5 53.5t-35.5 42t-45 30t-56 26.5q-34 15 -57 26.5t-50.5 30t-44 38.5 t-28 48.5t-11.5 61.5q0 87 60.5 137.5t156.5 50.5q98 0 154 -37l-23 -51q-56 34 -130 34q-70 0 -113.5 -35t-43.5 -97q0 -24 10 -45t23 -35.5t37 -29.5t41.5 -23t46.5 -21q41 -18 67 -32.5t56 -39t44.5 -57.5t14.5 -75z"/>
<glyph glyph-name="scaron" horiz-adv-x="448" unicode="š" d="M356 719l-100 -100q-16 -16 -30 -16q-15 0 -31 16l-99 100l28 24l102 -91l102 91zM393 138q0 -67 -51.5 -107.5t-140.5 -40.5q-90 0 -154 37l23 46q57 -34 130 -34q60 0 96 27t36 73q0 44 -29.5 68t-92.5 47q-74 28 -111.5 60.5t-37.5 95.5q0 60 46 99.5t125 39.5 q82 0 142 -37l-23 -44q-49 33 -115 33q-53 0 -84 -26t-31 -65q0 -44 27.5 -66t87.5 -45q39 -15 61 -25.5t47.5 -29.5t37 -45t11.5 -61z"/>
<glyph glyph-name="Tcommaaccent" horiz-adv-x="512" unicode="Ţ" d="M289 -78l-72 -137h-47l51 137q16 18 38 18q25 0 30 -18zM479 671h-192v-671h-61v671h-193v53h446v-53z"/>
<glyph glyph-name="tcommaaccent" horiz-adv-x="338" unicode="ţ" d="M231 -78l-72 -137h-47l51 137q16 18 38 18q25 0 30 -18zM297 1q-13 -6 -42 -6q-62 0 -99.5 34.5t-37.5 100.5v364h-84v45h84v134l57 22v-156h122v-45h-122v-362q0 -43 25 -64t64 -21q20 0 33 5v-51z"/>
<glyph glyph-name="Tcaron" horiz-adv-x="512" unicode="Ť" d="M386 904l-100 -100q-16 -16 -30 -16q-15 0 -31 16l-99 100l28 24l102 -91l102 91zM479 671h-192v-671h-61v671h-193v53h446v-53z"/>
<glyph glyph-name="tcaron" horiz-adv-x="338" unicode="ť" d="M339 776l-20 -154h-40v154q11 16 30 16q20 0 30 -16zM297 1q-13 -6 -42 -6q-62 0 -99.5 34.5t-37.5 100.5v364h-84v45h84v134l57 22v-156h122v-45h-122v-362q0 -43 25 -64t64 -21q20 0 33 5v-51z"/>
<glyph glyph-name="Tbar" horiz-adv-x="512" unicode="Ŧ" d="M479 671h-192v-237h155v-45h-155v-389h-61v389h-155v45h155v237h-193v53h446v-53z"/>
<glyph glyph-name="tbar" horiz-adv-x="338" unicode="ŧ" d="M297 1q-13 -6 -42 -6q-62 0 -99.5 34.5t-37.5 100.5v179h-84v38h84v148h-84v44h84v134l57 22v-156h122v-44h-122v-148h122v-38h-122v-177q0 -43 25 -64t64 -21q20 0 33 5v-51z"/>
<glyph glyph-name="Utilde" horiz-adv-x="628" unicode="Ũ" d="M443 880q-6 -33 -25.5 -55t-50.5 -22q-28 0 -57.5 25.5t-45.5 25.5q-38 0 -47 -52l-35 21q6 33 26 55t51 22q28 0 57 -25.5t45 -25.5q38 0 47 52zM543 204q0 -97 -65 -155.5t-164 -58.5t-164 58.5t-65 155.5v520h61v-520q0 -73 48 -116.5t120 -43.5t120 43.5t48 116.5 v520h61v-520z"/>
<glyph glyph-name="utilde" horiz-adv-x="545" unicode="ũ" d="M402 695q-6 -33 -25.5 -55t-50.5 -22q-28 0 -57.5 25.5t-45.5 25.5q-38 0 -47 -52l-35 21q6 33 26 55t51 22q28 0 57 -25.5t45 -25.5q38 0 47 52zM466 27q-72 -37 -188 -37q-199 0 -199 184v365h59v-366q0 -133 140 -133q81 0 129 22v477h59v-512z"/>
<glyph glyph-name="Umacron" horiz-adv-x="628" unicode="Ū" d="M430 822h-232v45h232v-45zM543 204q0 -97 -65 -155.5t-164 -58.5t-164 58.5t-65 155.5v520h61v-520q0 -73 48 -116.5t120 -43.5t120 43.5t48 116.5v520h61v-520z"/>
<glyph glyph-name="umacron" horiz-adv-x="545" unicode="ū" d="M389 637h-232v45h232v-45zM466 27q-72 -37 -188 -37q-199 0 -199 184v365h59v-366q0 -133 140 -133q81 0 129 22v477h59v-512z"/>
<glyph glyph-name="Ubreve" horiz-adv-x="628" unicode="Ŭ" d="M443 913q-4 -58 -38.5 -92.5t-90.5 -34.5q-57 0 -91.5 34.5t-38.5 92.5l41 6q15 -88 89 -88q73 0 88 88zM543 204q0 -97 -65 -155.5t-164 -58.5t-164 58.5t-65 155.5v520h61v-520q0 -73 48 -116.5t120 -43.5t120 43.5t48 116.5v520h61v-520z"/>
<glyph glyph-name="ubreve" horiz-adv-x="545" unicode="ŭ" d="M402 728q-4 -58 -38 -92.5t-91 -34.5t-91.5 34.5t-38.5 92.5l41 6q15 -88 89 -88q73 0 88 88zM466 27q-72 -37 -188 -37q-199 0 -199 184v365h59v-366q0 -133 140 -133q81 0 129 22v477h59v-512z"/>
<glyph glyph-name="Uring" horiz-adv-x="628" unicode="Ů" d="M368 869q0 23 -16 38.5t-38 15.5t-38 -15.5t-16 -38.5q0 -22 15.5 -37.5t38.5 -15.5t38.5 15.5t15.5 37.5zM403 869q0 -36 -26 -61t-63 -25t-63 25t-26 61t26 61t63 25t63 -25t26 -61zM543 204q0 -97 -65 -155.5t-164 -58.5t-164 58.5t-65 155.5v520h61v-520 q0 -73 48 -116.5t120 -43.5t120 43.5t48 116.5v520h61v-520z"/>
<glyph glyph-name="uring" horiz-adv-x="545" unicode="ů" d="M327 684q0 22 -15.5 38t-38.5 16t-38.5 -16t-15.5 -38t15.5 -37.5t38.5 -15.5t38.5 15.5t15.5 37.5zM362 684q0 -36 -26 -61t-63 -25t-63 25t-26 61t26 61t63 25t63 -25t26 -61zM466 27q-72 -37 -188 -37q-199 0 -199 184v365h59v-366q0 -133 140 -133q81 0 129 22v477 h59v-512z"/>
<glyph glyph-name="Uhungarumlaut" horiz-adv-x="628" unicode="Ű" d="M345 919l-97 -131h-43l78 131q15 19 36 19t26 -19zM482 919l-97 -131h-43l78 131q15 19 36 19t26 -19zM543 204q0 -97 -65 -155.5t-164 -58.5t-164 58.5t-65 155.5v520h61v-520q0 -73 48 -116.5t120 -43.5t120 43.5t48 116.5v520h61v-520z"/>
<glyph glyph-name="uhungarumlaut" horiz-adv-x="545" unicode="ű" d="M308 734l-97 -131h-43l78 131q15 19 36 19t26 -19zM445 734l-97 -131h-43l78 131q15 19 36 19t26 -19zM466 27q-72 -37 -188 -37q-199 0 -199 184v365h59v-366q0 -133 140 -133q81 0 129 22v477h59v-512z"/>
<glyph glyph-name="Uogonek" horiz-adv-x="628" unicode="Ų" d="M543 204q0 -81 -46.5 -136t-121.5 -71q-79 -46 -79 -99q0 -22 15 -35t39 -13q33 0 64 14l15 -37q-38 -19 -84 -19q-44 0 -71.5 23t-27.5 62q0 53 65 97q-98 1 -162 59t-64 155v520h61v-520q0 -73 48 -116.5t120 -43.5t120 43.5t48 116.5v520h61v-520z"/>
<glyph glyph-name="uogonek" horiz-adv-x="545" unicode="ų" d="M466 27q-14 -8 -39 -16q-53 -26 -79.5 -56.5t-26.5 -56.5q0 -22 15 -35t39 -13q33 0 64 14l15 -37q-38 -19 -84 -19q-44 0 -71.5 23t-27.5 62q0 53 70 100q-20 -3 -63 -3q-199 0 -199 184v365h59v-366q0 -133 140 -133q81 0 129 22v477h59v-512z"/>
<glyph glyph-name="Wcircumflex" horiz-adv-x="906" unicode="Ŵ" d="M583 811l-28 -25l-102 91l-102 -91l-28 25l99 100q15 15 31 15q15 0 30 -15zM861 724l-185 -724h-64l-140 555l-18 95h-2q-7 -50 -18 -95l-140 -555h-64l-185 724h62l137 -560l19 -96h2q8 53 19 96l140 560h58l140 -560l19 -96h2q9 53 19 96l137 560h62z"/>
<glyph glyph-name="wcircumflex" horiz-adv-x="820" unicode="ŵ" d="M540 626l-28 -25l-102 91l-102 -91l-28 25l99 100q15 15 31 15q15 0 30 -15zM777 539l-167 -539h-60l-122 407l-17 72h-2q-7 -39 -17 -72l-122 -407h-60l-167 539h59l120 -405l17 -78h2q9 44 19 78l120 405h60l120 -405l19 -78h2q8 44 18 78l119 405h59z"/>
<glyph glyph-name="Ycircumflex" horiz-adv-x="597" unicode="Ŷ" d="M428 811l-28 -25l-102 91l-102 -91l-28 25l99 100q15 15 31 15q15 0 30 -15zM567 724l-238 -431v-293h-61v293l-238 431h67l200 -369h2l200 369h68z"/>
<glyph glyph-name="ycircumflex" horiz-adv-x="537" unicode="ŷ" d="M399 626l-28 -25l-102 91l-102 -91l-28 25l99 100q15 15 31 15q15 0 30 -15zM501 539l-282 -754h-61l81 215l-203 539h64l148 -417l19 -72h2q8 39 20 72l148 417h64z"/>
<glyph glyph-name="Ydieresis" horiz-adv-x="597" unicode="Ÿ" d="M426 854q0 -16 -11.5 -27.5t-27.5 -11.5t-27.5 11.5t-11.5 27.5t11.5 27t27.5 11t27.5 -11t11.5 -27zM250 854q0 -16 -11.5 -27.5t-27.5 -11.5t-27.5 11.5t-11.5 27.5t11.5 27t27.5 11t27.5 -11t11.5 -27zM567 724l-238 -431v-293h-61v293l-238 431h67l200 -369h2 l200 369h68z"/>
<glyph glyph-name="Zacute" horiz-adv-x="515" unicode="Ź" d="M355 919l-96 -131h-48l75 131q16 19 40 19q23 0 29 -19zM467 0h-434l341 671h-324v53h413l-340 -671h344v-53z"/>
<glyph glyph-name="zacute" horiz-adv-x="458" unicode="ź" d="M327 734l-96 -131h-48l75 131q16 19 40 19q23 0 29 -19zM412 0h-377l279 489h-264v50h353l-278 -489h287v-50z"/>
<glyph glyph-name="Zdotaccent" horiz-adv-x="515" unicode="Ż" d="M294 856q0 -17 -12 -29t-29 -12t-29 12t-12 29t12 28.5t29 11.5t29 -11.5t12 -28.5zM467 0h-434l341 671h-324v53h413l-340 -671h344v-53z"/>
<glyph glyph-name="zdotaccent" horiz-adv-x="458" unicode="ż" d="M263 671q0 -17 -12 -29t-29 -12t-29 12t-12 29t12 28.5t29 11.5t29 -11.5t12 -28.5zM412 0h-377l279 489h-264v50h353l-278 -489h287v-50z"/>
<glyph glyph-name="Zcaron" horiz-adv-x="515" unicode="Ž" d="M378 904l-100 -100q-16 -16 -30 -16q-15 0 -31 16l-99 100l28 24l102 -91l102 91zM467 0h-434l341 671h-324v53h413l-340 -671h344v-53z"/>
<glyph glyph-name="zcaron" horiz-adv-x="458" unicode="ž" d="M352 719l-100 -100q-16 -16 -30 -16q-15 0 -31 16l-99 100l28 24l102 -91l102 91zM412 0h-377l279 489h-264v50h353l-278 -489h287v-50z"/>
<glyph glyph-name="longs" horiz-adv-x="262" unicode="ſ" d="M319 734q-13 3 -32 3q-76 0 -110 -37t-34 -120v-795h-59v795q0 207 198 207q17 0 37 -4v-49z"/>
<glyph glyph-name="florin" horiz-adv-x="548" unicode="ƒ" d="M513 717l-19 -48q-22 10 -49 10q-51 0 -77 -29.5t-34 -91.5l-19 -139h140v-50h-146l-55 -424q-21 -167 -168 -167q-41 0 -72 14l19 50q22 -10 49 -10q51 0 77.5 29.5t34.5 91.5l54 416h-118v50h125l18 145q21 167 168 167q41 0 72 -14z"/>
<glyph glyph-name="AEacute" horiz-adv-x="910" unicode="Ǽ" d="M634 919l-96 -131h-48l75 131q16 19 40 19q23 0 29 -19zM478 279l-69 313l-13 82h-2q-14 -45 -33 -82l-157 -313h274zM868 0h-330l-50 231h-305l-116 -231h-66l366 724h421v-53h-342l63 -270h269v-53h-258l69 -295h279v-53z"/>
<glyph glyph-name="aeacute" horiz-adv-x="875" unicode="ǽ" d="M544 734l-96 -131h-48l75 131q16 19 40 19q23 0 29 -19zM387 160v132q-39 -2 -57 -3.5t-53.5 -5.5t-54 -9.5t-44 -16t-38 -24t-22 -34.5t-9.5 -47q0 -54 36.5 -84.5t109.5 -30.5q61 0 96.5 34t35.5 89zM760 330q-1 85 -41 128.5t-110 43.5q-79 0 -125 -59.5t-48 -159.5z M817 323q0 -18 -1 -29l-377 -56q6 -97 57.5 -148t138.5 -51t145 34l20 -46q-63 -37 -166 -37q-77 0 -130.5 32.5t-77.5 86.5q-13 -52 -58.5 -85.5t-113.5 -33.5q-97 0 -149.5 43.5t-52.5 117.5q0 38 13 67.5t38.5 48.5t54 32t71 20.5t76.5 11t82 6.5v47q0 118 -141 118 q-80 0 -144 -34l-18 44q76 37 164 37q156 0 178 -116q26 56 73.5 86t111.5 30q95 0 150.5 -59.5t55.5 -166.5z"/>
<glyph glyph-name="Oslashacute" horiz-adv-x="676" unicode="Ǿ" d="M439 919l-96 -131h-48l75 131q16 19 40 19q23 0 29 -19zM556 362q0 130 -50 216l-308 -474q57 -63 138 -63q104 0 162 91t58 230zM481 615q-57 68 -145 68q-103 0 -159.5 -91t-56.5 -230q0 -133 52 -222zM614 362q0 -160 -73.5 -266t-204.5 -106q-102 0 -169 67l-69 -106 l-34 23l75 116q-77 104 -77 272q0 161 71.5 266.5t202.5 105.5q104 0 175 -73l67 102l34 -23l-73 -112q75 -104 75 -266z"/>
<glyph glyph-name="oslashacute" horiz-adv-x="560" unicode="ǿ" d="M378 734l-96 -131h-48l75 131q16 19 40 19q23 0 29 -19zM447 270q0 99 -37 160l-235 -352q42 -42 105 -42q81 0 124 65.5t43 168.5zM386 461q-41 43 -106 43q-81 0 -124 -65.5t-43 -168.5q0 -97 38 -161zM502 270q0 -124 -58 -202t-164 -78q-77 0 -133 46l-57 -85l-30 22 l60 91q-62 77 -62 206q0 124 58 201.5t164 77.5q79 0 133 -46l56 84l31 -22l-60 -90q62 -77 62 -205z"/>
<glyph glyph-name="Scommaaccent" horiz-adv-x="522" unicode="Ș" d="M289 -78l-72 -137h-47l51 137q16 18 38 18q25 0 30 -18zM461 190q0 -92 -66.5 -146t-172.5 -54q-100 0 -169 37l23 53q64 -35 145 -35q79 0 128.5 38.5t49.5 105.5q0 30 -11.5 53.5t-35.5 42t-45 30t-56 26.5q-34 15 -57 26.5t-50.5 30t-44 38.5t-28 48.5t-11.5 61.5 q0 87 60.5 137.5t156.5 50.5q98 0 154 -37l-23 -51q-56 34 -130 34q-70 0 -113.5 -35t-43.5 -97q0 -24 10 -45t23 -35.5t37 -29.5t41.5 -23t46.5 -21q41 -18 67 -32.5t56 -39t44.5 -57.5t14.5 -75z"/>
<glyph glyph-name="scommaaccent" horiz-adv-x="448" unicode="ș" d="M255 -78l-72 -137h-47l51 137q16 18 38 18q25 0 30 -18zM393 138q0 -67 -51.5 -107.5t-140.5 -40.5q-90 0 -154 37l23 46q57 -34 130 -34q60 0 96 27t36 73q0 44 -29.5 68t-92.5 47q-74 28 -111.5 60.5t-37.5 95.5q0 60 46 99.5t125 39.5q82 0 142 -37l-23 -44 q-49 33 -115 33q-53 0 -84 -26t-31 -65q0 -44 27.5 -66t87.5 -45q39 -15 61 -25.5t47.5 -29.5t37 -45t11.5 -61z"/>
<glyph glyph-name="uni021A" horiz-adv-x="512" unicode="Ț" d="M346 -124q0 -37 -39.5 -57t-111.5 -20q-37 0 -72 4l19 35q27 -3 53 -3q99 0 99 41q0 32 -63 32q-24 0 -54 -3l18 34q27 3 48 3q103 0 103 -66zM479 671h-192v-671h-61v671h-193v53h446v-53z"/>
<glyph glyph-name="uni021B" horiz-adv-x="338" unicode="ț" d="M283 -124q0 -37 -39.5 -57t-111.5 -20q-37 0 -72 4l19 35q27 -3 53 -3q99 0 99 41q0 32 -63 32q-24 0 -54 -3l18 34q27 3 48 3q103 0 103 -66zM297 1q-13 -6 -42 -6q-62 0 -99.5 34.5t-37.5 100.5v364h-84v45h84v134l57 22v-156h122v-45h-122v-362q0 -43 25 -64t64 -21 q20 0 33 5v-51z"/>
<glyph glyph-name="dotlessj" horiz-adv-x="227" unicode="ȷ" d="M143 51q0 -118 -55 -184.5t-142 -87.5v53q61 21 99.5 75t38.5 144v488h59v-488z"/>
<glyph glyph-name="afii57929" horiz-adv-x="102" unicode="ʼ" d="M151 769l-105 -226h-43l83 226q15 20 37 20q24 0 28 -20z"/>
<glyph glyph-name="circumflex" horiz-adv-x="294" unicode="ˆ" d="M277 626l-28 -25l-102 91l-102 -91l-28 25l99 100q15 15 31 15q15 0 30 -15z"/>
<glyph glyph-name="caron" horiz-adv-x="294" unicode="ˇ" d="M277 719l-100 -100q-16 -16 -30 -16q-15 0 -31 16l-99 100l28 24l102 -91l102 91z"/>
<glyph glyph-name="breve" horiz-adv-x="294" unicode="˘" d="M276 728q-4 -58 -38 -92.5t-91 -34.5t-91.5 34.5t-38.5 92.5l41 6q15 -88 89 -88q73 0 88 88z"/>
<glyph glyph-name="dotaccent" horiz-adv-x="294" unicode="˙" d="M188 671q0 -17 -12 -29t-29 -12t-29 12t-12 29t12 28.5t29 11.5t29 -11.5t12 -28.5z"/>
<glyph glyph-name="ring" horiz-adv-x="294" unicode="˚" d="M201 684q0 22 -15.5 38t-38.5 16t-38.5 -16t-15.5 -38t15.5 -37.5t38.5 -15.5t38.5 15.5t15.5 37.5zM236 684q0 -36 -26 -61t-63 -25t-63 25t-26 61t26 61t63 25t63 -25t26 -61z"/>
<glyph glyph-name="ogonek" horiz-adv-x="294" unicode="˛" d="M267 -173q-38 -19 -84 -19q-44 0 -71.5 23t-27.5 62q0 67 107 122h57q-58 -27 -86 -58t-28 -59q0 -22 15 -35t39 -13q33 0 64 14z"/>
<glyph glyph-name="tilde" horiz-adv-x="294" unicode="˜" d="M277 695q-6 -33 -25.5 -55t-50.5 -22q-28 0 -57.5 25.5t-45.5 25.5q-38 0 -47 -52l-35 21q6 33 26 55t51 22q28 0 57 -25.5t45 -25.5q38 0 47 52z"/>
<glyph glyph-name="hungarumlaut" horiz-adv-x="294" unicode="˝" d="M162 734l-97 -131h-43l78 131q15 19 36 19t26 -19zM299 734l-97 -131h-43l78 131q15 19 36 19t26 -19z"/>
<glyph glyph-name="uni0306" horiz-adv-x="0" unicode="̆" d="M0 728q-4 -58 -38 -92.5t-91 -34.5t-91.5 34.5t-38.5 92.5l41 6q15 -88 89 -88q73 0 88 88z"/>
<glyph glyph-name="uni030F" horiz-adv-x="0" unicode="̏" d="M-159 603h-42l-97 131q5 19 25 19q21 0 36 -19zM-22 603h-42l-97 131q5 19 25 19q21 0 36 -19z"/>
<glyph glyph-name="uni0311" horiz-adv-x="0" unicode="̑" d="M-17 608l-41 -7q-15 89 -88 89q-74 0 -89 -89l-41 7q4 58 38.5 92t91.5 34t91 -34t38 -92z"/>
<glyph glyph-name="tonos" horiz-adv-x="283" unicode="΄" d="M216 735l-70 -132h-43l48 132q11 19 34 19q22 0 31 -19z"/>
<glyph glyph-name="dieresistonos" horiz-adv-x="284" unicode="΅" d="M263 669q0 -16 -10 -27.5t-24 -11.5t-24.5 11.5t-10.5 27.5t10.5 27t24.5 11t24 -11t10 -27zM49 669q0 -16 -10 -27.5t-24 -11.5t-24.5 11.5t-10.5 27.5t10.5 27t24.5 11t24 -11t10 -27zM163 736l-40 -133h-36l21 133q7 19 30 19q16 0 25 -19z"/>
<glyph glyph-name="Alphatonos" horiz-adv-x="653" unicode="Ά" d="M163 714l-21 -155h-41v155q12 17 31 17q21 0 31 -17zM463 279l-112 313l-24 82h-2q-10 -44 -23 -82l-112 -313h273zM626 0h-64l-83 231h-305l-83 -231h-64l265 724h69z"/>
<glyph glyph-name="anoteleia" horiz-adv-x="248" unicode="·" d="M176 325q0 -22 -15 -37t-37 -15t-37 15t-15 37t15 37t37 15t37 -15t15 -37z"/>
<glyph glyph-name="Epsilontonos" horiz-adv-x="568" unicode="Έ" d="M62 714l-21 -155h-41v155q12 17 31 17q21 0 31 -17zM516 0h-370v724h370v-53h-310v-270h287v-53h-287v-295h310v-53z"/>
<glyph glyph-name="Etatonos" horiz-adv-x="700" unicode="Ή" d="M62 714l-21 -155h-41v155q12 17 31 17q21 0 31 -17zM615 0h-61v348h-347v-348h-61v724h61v-323h347v323h61v-724z"/>
<glyph glyph-name="Iotatonos" horiz-adv-x="294" unicode="Ί" d="M62 714l-21 -155h-41v155q12 17 31 17q21 0 31 -17zM207 0h-61v724h61v-724z"/>
<glyph glyph-name="Omicrontonos" horiz-adv-x="704" unicode="Ό" d="M62 714l-21 -155h-41v155q12 17 31 17q21 0 31 -17zM581 362q0 137 -56.5 227.5t-158.5 90.5t-158.5 -90.5t-56.5 -227.5t56.5 -227.5t158.5 -90.5t158.5 90.5t56.5 227.5zM642 362q0 -161 -72.5 -266.5t-203.5 -105.5t-203.5 105.5t-72.5 266.5t72.5 266.5t203.5 105.5 t203.5 -105.5t72.5 -266.5z"/>
<glyph glyph-name="Upsilontonos" horiz-adv-x="692" unicode="Ύ" d="M62 714l-21 -155h-41v155q12 17 31 17q21 0 31 -17zM663 677q-240 -124 -240 -468v-209h-62v209q0 344 -240 468l18 57q67 -35 116.5 -82t77 -98.5t41 -99.5t17.5 -98h2q4 50 17.5 98t41 99.5t77 98.5t116.5 82z"/>
<glyph glyph-name="Omegatonos" horiz-adv-x="712" unicode="Ώ" d="M62 714l-21 -155h-41v155q12 17 31 17q21 0 31 -17zM659 0h-229v44q156 159 156 364q0 117 -56 194.5t-159 77.5t-159 -77.5t-56 -194.5q0 -205 156 -364v-44h-229v51h161q-149 161 -149 361q0 88 30.5 160t94 117t151.5 45q131 0 204 -93t73 -229q0 -200 -149 -361h160 v-51z"/>
<glyph glyph-name="iotadieresistonos" horiz-adv-x="243" unicode="ΐ" d="M264 669q0 -16 -10 -27.5t-24 -11.5t-24.5 11.5t-10.5 27.5t10.5 27t24.5 11t24 -11t10 -27zM50 669q0 -16 -10 -27.5t-24 -11.5t-24.5 11.5t-10.5 27.5t10.5 27t24.5 11t24 -11t10 -27zM164 736l-40 -133h-36l21 133q7 19 30 19q16 0 25 -19zM205 -10q-121 9 -121 128 v421h58v-421q0 -69 63 -76v-52z"/>
<glyph glyph-name="Alpha" horiz-adv-x="653" unicode="Α" d="M463 279l-112 313l-24 82h-2q-10 -44 -23 -82l-112 -313h273zM626 0h-64l-83 231h-305l-83 -231h-64l265 724h69z"/>
<glyph glyph-name="Beta" horiz-adv-x="603" unicode="Β" d="M485 192q0 93 -77 132q-51 26 -144 26h-118v-289q56 -21 134 -21q97 0 151 40t54 112zM460 547q0 64 -49 100.5t-135 36.5q-79 0 -130 -21v-265h113q59 0 88.5 6.5t57.5 25.5q25 17 40 49t15 68zM546 190q0 -93 -70.5 -146.5t-195.5 -53.5q-115 0 -193 37v670 q79 37 189 37q115 0 179 -50t64 -134q0 -69 -39 -113.5t-88 -56.5v-2q60 -13 107 -59.5t47 -128.5z"/>
<glyph glyph-name="Gamma" horiz-adv-x="480" unicode="Γ" d="M446 671h-297v-671h-60v724h357v-53z"/>
<glyph glyph-name="Delta" horiz-adv-x="653" unicode="Δ" d="M546 50l-195 542l-24 82h-2q-9 -44 -23 -82l-195 -542h439zM626 0h-599l265 724h69z"/>
<glyph glyph-name="Epsilon" horiz-adv-x="507" unicode="Ε" d="M455 0h-370v724h370v-53h-310v-270h287v-53h-287v-295h310v-53z"/>
<glyph glyph-name="Zeta" horiz-adv-x="515" unicode="Ζ" d="M467 0h-434l341 671h-324v53h413l-340 -671h344v-53z"/>
<glyph glyph-name="Eta" horiz-adv-x="639" unicode="Η" d="M554 0h-61v348h-347v-348h-61v724h61v-323h347v323h61v-724z"/>
<glyph glyph-name="Theta" horiz-adv-x="696" unicode="Θ" d="M498 348h-301v53h301v-53zM574 362q0 137 -60 228t-168 91q-107 0 -165.5 -90.5t-58.5 -228.5t58.5 -228.5t165.5 -90.5q108 0 168 91t60 228zM634 362q0 -159 -76.5 -265.5t-211.5 -106.5t-209.5 106t-74.5 266t74.5 266t209.5 106t211.5 -106.5t76.5 -265.5z"/>
<glyph glyph-name="Iota" horiz-adv-x="235" unicode="Ι" d="M148 0h-61v724h61v-724z"/>
<glyph glyph-name="Kappa" horiz-adv-x="561" unicode="Κ" d="M542 0h-74l-318 376h-2v-376h-61v724h61v-338h2l311 338h74l-316 -343z"/>
<glyph glyph-name="Lambda" horiz-adv-x="653" unicode="Λ" d="M626 0h-66l-210 587l-23 78h-2q-8 -40 -22 -78l-211 -587h-65l264 724h70z"/>
<glyph glyph-name="Mu" horiz-adv-x="867" unicode="Μ" d="M807 0h-58l-77 580l-8 84h-2q-10 -45 -22 -83l-180 -581h-53l-180 581l-22 83h-2q-3 -46 -8 -84l-76 -580h-59l99 724h77l176 -563l21 -85h2q9 46 21 85l175 563h77z"/>
<glyph glyph-name="Nu" horiz-adv-x="696" unicode="Ν" d="M611 0h-65l-364 577l-41 77h-2q2 -46 2 -86v-568h-56v724h68l359 -568l42 -76h2q-1 46 -1 87v557h56v-724z"/>
<glyph glyph-name="Xi" horiz-adv-x="547" unicode="Ξ" d="M495 0h-443v53h443v-53zM453 348h-358v53h358v-53zM488 671h-429v53h429v-53z"/>
<glyph glyph-name="Omicron" horiz-adv-x="676" unicode="Ο" d="M553 362q0 137 -56.5 227.5t-158.5 90.5t-158.5 -90.5t-56.5 -227.5t56.5 -227.5t158.5 -90.5t158.5 90.5t56.5 227.5zM614 362q0 -161 -72.5 -266.5t-203.5 -105.5t-203.5 105.5t-72.5 266.5t72.5 266.5t203.5 105.5t203.5 -105.5t72.5 -266.5z"/>
<glyph glyph-name="Pi" horiz-adv-x="639" unicode="Π" d="M554 0h-61v671h-347v-671h-61v724h469v-724z"/>
<glyph glyph-name="Rho" horiz-adv-x="560" unicode="Ρ" d="M454 519q0 79 -49 121.5t-139 42.5q-75 0 -120 -20v-300q40 -7 92 -7q103 0 159.5 44t56.5 119zM515 519q0 -96 -73 -155t-203 -59q-55 0 -93 7v-312h-61v697q76 37 181 37q118 0 183.5 -57.5t65.5 -157.5z"/>
<glyph glyph-name="Sigma" horiz-adv-x="542" unicode="Σ" d="M493 0h-445v40l259 333l-252 311v40h430v-53h-350l243 -297l-250 -321h365v-53z"/>
<glyph glyph-name="Tau" horiz-adv-x="512" unicode="Τ" d="M479 671h-192v-671h-61v671h-193v53h446v-53z"/>
<glyph glyph-name="Upsilon" horiz-adv-x="602" unicode="Υ" d="M572 677q-240 -124 -240 -468v-209h-62v209q0 344 -240 468l18 57q67 -35 116.5 -82t77 -98.5t41 -99.5t17.5 -98h2q4 50 17.5 98t41 99.5t77 98.5t116.5 82z"/>
<glyph glyph-name="Phi" horiz-adv-x="813" unicode="Φ" d="M378 97v531q-119 -1 -189 -76t-70 -189t70 -189.5t189 -76.5zM694 363q0 114 -70 189t-189 76v-531q119 1 189 76.5t70 189.5zM755 362q0 -133 -87 -223t-233 -91v-69h-57v69q-146 1 -233 91t-87 223q0 87 38 157.5t111.5 113.5t170.5 44v68h57v-68q97 -1 170.5 -44 t111.5 -113.5t38 -157.5z"/>
<glyph glyph-name="Chi" horiz-adv-x="579" unicode="Χ" d="M547 0h-68l-189 325h-2l-189 -325h-67l221 374l-207 350h67l175 -300h2l175 300h67l-207 -350z"/>
<glyph glyph-name="Psi" horiz-adv-x="765" unicode="Ψ" d="M691 476q0 -132 -66.5 -201t-212.5 -73v-202h-58v202q-146 4 -213 73t-67 201v248h58v-248q0 -108 52 -163.5t170 -59.5v471h58v-471q118 4 169.5 59t51.5 164v248h58v-248z"/>
<glyph glyph-name="Omega" horiz-adv-x="684" unicode="Ω" d="M630 0h-229v44q156 159 156 364q0 117 -56 194.5t-159 77.5t-159 -77.5t-56 -194.5q0 -205 156 -364v-44h-229v51h161q-149 161 -149 361q0 88 30.5 160t94 117t151.5 45q131 0 204 -93t73 -229q0 -200 -149 -361h160v-51z"/>
<glyph glyph-name="Iotadieresis" horiz-adv-x="235" unicode="Ϊ" d="M244 854q0 -16 -11.5 -27.5t-27.5 -11.5t-27.5 11.5t-11.5 27.5t11.5 27t27.5 11t27.5 -11t11.5 -27zM69 854q0 -16 -11.5 -27.5t-27.5 -11.5t-27.5 11.5t-11.5 27.5t11.5 27t27.5 11t27.5 -11t11.5 -27zM148 0h-61v724h61v-724z"/>
<glyph glyph-name="Upsilondieresis" horiz-adv-x="601" unicode="Ϋ" d="M252 837q0 -16 -11.5 -27.5t-27.5 -11.5t-27.5 11.5t-11.5 27.5t11.5 27t27.5 11t27.5 -11t11.5 -27zM426 837q0 -16 -11.5 -27.5t-27.5 -11.5t-27.5 11.5t-11.5 27.5t11.5 27t27.5 11t27.5 -11t11.5 -27zM572 677q-240 -124 -240 -468v-209h-62v209q0 344 -240 468 l18 57q67 -35 116.5 -82t77 -98.5t41 -99.5t17.5 -98h2q4 50 17.5 98t41 99.5t77 98.5t116.5 82z"/>
<glyph glyph-name="alphatonos" horiz-adv-x="650" unicode="ά" d="M423 735l-70 -132h-43l48 132q11 19 34 19q22 0 31 -19zM457 270q-39 109 -84 169.5t-110 60.5q-70 0 -108.5 -68t-38.5 -162t38.5 -162t108.5 -68q67 0 113 61.5t81 168.5zM593 0h-57q-16 72 -55 206h-2q-39 -102 -90 -159t-131 -57q-94 0 -147 82t-53 198t53 197.5 t147 81.5q77 0 128.5 -58t91.5 -158h2q28 97 52 206h57q-37 -151 -78 -269q50 -145 82 -270z"/>
<glyph glyph-name="epsilontonos" horiz-adv-x="489" unicode="έ" d="M346 735l-70 -132h-43l48 132q11 19 34 19q22 0 31 -19zM453 27q-74 -37 -181 -37q-94 0 -155 41t-61 115q0 56 37.5 91.5t90.5 45.5v2q-49 9 -78 41.5t-29 78.5q0 69 53.5 106.5t137.5 37.5q101 0 172 -37l-21 -43q-63 33 -146 33q-59 0 -98 -25.5t-39 -74.5 q0 -47 38.5 -73.5t111.5 -26.5h73v-44h-76q-83 0 -125 -30.5t-42 -79.5q0 -54 45 -82t114 -28q95 0 156 32z"/>
<glyph glyph-name="etatonos" horiz-adv-x="555" unicode="ή" d="M355 735l-70 -132h-43l48 132q11 19 34 19q22 0 31 -19zM476 -215h-59v584q0 61 -37.5 96t-110.5 35q-76 0 -131 -22v-478h-59v512q82 37 190 37q100 0 153.5 -47.5t53.5 -132.5v-584z"/>
<glyph glyph-name="iotatonos" horiz-adv-x="243" unicode="ί" d="M201 735l-70 -132h-43l48 132q11 19 34 19q22 0 31 -19zM205 -10q-121 9 -121 128v421h58v-421q0 -69 63 -76v-52z"/>
<glyph glyph-name="upsilondieresistonos" horiz-adv-x="545" unicode="ΰ" d="M414 669q0 -16 -10 -27.5t-24 -11.5t-24.5 11.5t-10.5 27.5t10.5 27t24.5 11t24 -11t10 -27zM200 669q0 -16 -10 -27.5t-24 -11.5t-24.5 11.5t-10.5 27.5t10.5 27t24.5 11t24 -11t10 -27zM314 736l-40 -133h-36l21 133q7 19 30 19q16 0 25 -19zM466 172q0 -82 -53 -132 t-140 -50t-140.5 50t-53.5 132v367h59v-367q0 -61 37 -97t98 -36t97.5 36t36.5 97v367h59v-367z"/>
<glyph glyph-name="alpha" horiz-adv-x="650" unicode="α" d="M457 270q-39 109 -84 169.5t-110 60.5q-70 0 -108.5 -68t-38.5 -162t38.5 -162t108.5 -68q67 0 113 61.5t81 168.5zM593 0h-57q-16 72 -55 206h-2q-39 -102 -90 -159t-131 -57q-94 0 -147 82t-53 198t53 197.5t147 81.5q77 0 128.5 -58t91.5 -158h2q28 97 52 206h57 q-37 -151 -78 -269q50 -145 82 -270z"/>
<glyph glyph-name="beta" horiz-adv-x="578" unicode="β" d="M464 215q0 82 -61.5 134t-152.5 52h-26v44q95 10 143.5 54t48.5 113q0 56 -33 95t-95 39q-76 0 -112 -57t-36 -156v-465q61 -29 128 -29q94 0 145 50.5t51 125.5zM524 211q0 -94 -66 -157.5t-185 -63.5q-68 0 -133 28v-233h-57v746q0 122 51 193t154 71q87 0 135.5 -53.5 t48.5 -126.5q0 -62 -37 -112t-103 -70v-2q93 -20 142.5 -81.5t49.5 -138.5z"/>
<glyph glyph-name="gamma" horiz-adv-x="548" unicode="γ" d="M493 539q-6 -128 -56 -256t-142 -283v-215h-58v117q0 136 -47.5 282t-158.5 355h66q76 -148 118 -260t55 -223h2q152 271 161 483h60z"/>
<glyph glyph-name="delta" horiz-adv-x="572" unicode="δ" d="M456 249q0 40 -11.5 73.5t-37 62t-45.5 46.5t-56 45q-98 -17 -144 -79t-46 -147t47 -147.5t125 -62.5q81 0 124.5 58.5t43.5 150.5zM514 249q0 -111 -59 -185t-166 -74q-105 0 -168 76.5t-63 183.5q0 96 51 168t155 95q-51 41 -77.5 78.5t-26.5 87.5q0 58 33 106h272v-50 h-231q-16 -20 -16 -56q0 -33 19.5 -64.5t41 -50t60.5 -48.5q32 -24 50 -39t45.5 -42.5t42 -52t26 -59.5t11.5 -74z"/>
<glyph glyph-name="epsilon" horiz-adv-x="489" unicode="ε" d="M453 27q-74 -37 -181 -37q-94 0 -155 41t-61 115q0 56 37.5 91.5t90.5 45.5v2q-49 9 -78 41.5t-29 78.5q0 69 53.5 106.5t137.5 37.5q101 0 172 -37l-21 -43q-63 33 -146 33q-59 0 -98 -25.5t-39 -74.5q0 -47 38.5 -73.5t111.5 -26.5h73v-44h-76q-83 0 -125 -30.5 t-42 -79.5q0 -54 45 -82t114 -28q95 0 156 32z"/>
<glyph glyph-name="zeta" horiz-adv-x="441" unicode="ζ" d="M412 740l-112 -147q-5 -6 -33.5 -43t-34.5 -45.5t-29 -41t-30 -46t-22 -41.5t-20 -47t-10 -44.5t-5 -49.5q0 -110 72 -154t220 -44l-30 -206l-48 8l17 151q-67 3 -118 17t-91 41t-61 73t-21 109q0 28 5.5 56.5t11.5 50.5t21.5 51.5t24.5 46t32 48.5t32 44t37 47t35 45 l90 116h-251v50h318v-45z"/>
<glyph glyph-name="eta" horiz-adv-x="555" unicode="η" d="M476 -215h-59v584q0 61 -37.5 96t-110.5 35q-76 0 -131 -22v-478h-59v512q82 37 190 37q100 0 153.5 -47.5t53.5 -132.5v-584z"/>
<glyph glyph-name="theta" horiz-adv-x="586" unicode="θ" d="M465 372h-344q1 -70 11 -127.5t29 -105t53 -74t79 -26.5t79 26.5t53 74t29 105t11 127.5zM465 421q-2 93 -18.5 163t-55.5 116.5t-98 46.5t-98 -46.5t-55.5 -116.5t-18.5 -163h344zM523 393q0 -84 -12.5 -154.5t-39 -127.5t-72 -89t-106.5 -32t-106.5 32t-72 89 t-39 127.5t-12.5 154.5t12.5 154.5t39 127t72 88.5t106.5 32t106.5 -32t72 -88.5t39 -127t12.5 -154.5z"/>
<glyph glyph-name="iota" horiz-adv-x="243" unicode="ι" d="M205 -10q-121 9 -121 128v421h58v-421q0 -69 63 -76v-52z"/>
<glyph glyph-name="kappa" horiz-adv-x="494" unicode="κ" d="M472 0h-67l-106 167q-62 98 -160 98v-265h-58v539h58v-250h2l251 250h75l-257 -246q87 -23 147 -116z"/>
<glyph glyph-name="lambda" horiz-adv-x="544" unicode="λ" d="M508 0h-64l-149 416l-19 71h-2q-8 -38 -20 -71l-154 -416h-64l210 539l-95 246h62z"/>
<glyph glyph-name="mu" horiz-adv-x="545" unicode="μ" d="M466 43q-73 -53 -178 -53q-88 0 -150 35v-240h-59v754h59v-463q56 -37 142 -37q77 0 127 35v465h59v-496z"/>
<glyph glyph-name="nu" horiz-adv-x="548" unicode="ν" d="M493 539q-6 -128 -56.5 -255.5t-142.5 -283.5h-62l-196 539h64l166 -483h2q75 132 117.5 247.5t47.5 235.5h60z"/>
<glyph glyph-name="xi" horiz-adv-x="474" unicode="ξ" d="M440 37l-30 -206l-49 8l18 151q-323 18 -323 233q0 92 55 146t139 70v2q-71 18 -114 68t-43 127q0 81 54 149h275v-50h-237q-34 -42 -34 -104q0 -164 223 -174v-47h-40q-53 0 -100 -17t-82 -60.5t-35 -107.5q0 -188 323 -188z"/>
<glyph glyph-name="omicron" horiz-adv-x="560" unicode="ο" d="M443 270q0 104 -41.5 167t-121.5 63t-121.5 -63t-41.5 -167t41.5 -167t121.5 -63t121.5 63t41.5 167zM502 270q0 -124 -58 -202t-164 -78t-164 78t-58 202t58 201.5t164 77.5t164 -77.5t58 -201.5z"/>
<glyph glyph-name="pi" horiz-adv-x="611" unicode="π" d="M573 489h-91v-489h-58v490h-209l-58 -490h-58l58 489h-119v50h535v-50z"/>
<glyph glyph-name="rho" horiz-adv-x="570" unicode="ρ" d="M453 275q0 96 -42 160.5t-120 64.5q-167 0 -167 -267q0 -70 12 -156q58 -38 135 -38q49 0 85.5 20t57 54.5t30 75t9.5 86.5zM512 275q0 -55 -13.5 -104t-40.5 -90.5t-74 -66t-109 -24.5q-72 0 -131 33q23 -125 61 -238h-59q-80 240 -80 448q0 140 54.5 228t170.5 88 q104 0 162.5 -79t58.5 -195z"/>
<glyph glyph-name="sigma1" horiz-adv-x="479" unicode="ς" d="M431 512l-22 -44q-48 31 -116 31q-77 0 -126 -58.5t-49 -155.5q0 -245 311 -248l-30 -206l-49 8l18 151q-310 31 -310 293q0 120 64.5 193t166.5 73q84 0 142 -37z"/>
<glyph glyph-name="sigma" horiz-adv-x="607" unicode="σ" d="M443 270q0 112 -44.5 171t-118.5 59q-80 0 -121.5 -63t-41.5 -167t41.5 -167t121.5 -63t121.5 63t41.5 167zM576 489h-65q-68 0 -104 7v-2q94 -73 94 -228q0 -122 -57 -199t-164 -77q-106 0 -164 78t-58 202t58 201.5t164 77.5q22 0 64.5 -5t75.5 -5h156v-50z"/>
<glyph glyph-name="tau" horiz-adv-x="444" unicode="τ" d="M413 489h-162v-489h-58v489h-162v50h382v-50z"/>
<glyph glyph-name="upsilon" horiz-adv-x="545" unicode="υ" d="M466 172q0 -82 -53 -132t-140 -50t-140.5 50t-53.5 132v367h59v-367q0 -61 37 -97t98 -36t97.5 36t36.5 97v367h59v-367z"/>
<glyph glyph-name="phi" horiz-adv-x="750" unicode="φ" d="M636 285q0 104 -42 160.5t-118 56.5q-47 0 -82 -19v-444q119 3 180.5 66t61.5 180zM692 286q0 -135 -77 -212.5t-221 -81.5v-207h-56v207q-135 4 -207.5 85t-72.5 207q0 97 47.5 167.5t118.5 97.5l24 -44q-55 -22 -94 -79.5t-39 -140.5q0 -108 56 -175t167 -71v473 q60 37 136 37q104 0 161 -69.5t57 -193.5z"/>
<glyph glyph-name="chi" horiz-adv-x="541" unicode="χ" d="M515 -215h-65l-184 349h-2q-65 -85 -109 -164.5t-69 -184.5h-60q20 83 57.5 160.5t69.5 123.5t84 111l-194 359h64l165 -318h2q121 158 158 318h60q-25 -107 -72.5 -190.5t-118.5 -173.5z"/>
<glyph glyph-name="psi" horiz-adv-x="750" unicode="ψ" d="M676 266q0 -265 -273 -274v-207h-56v207q-273 9 -273 274v273h56v-273q0 -219 217 -226v608h56v-608q218 7 218 226v273h55v-273z"/>
<glyph glyph-name="omega" horiz-adv-x="776" unicode="ω" d="M716 267q0 -119 -48 -198t-142 -79q-61 0 -96.5 39.5t-39.5 98.5h-2q-4 -59 -40 -98.5t-97 -39.5q-94 0 -142.5 79t-48.5 198q0 75 23 149t63 123h67q-46 -51 -70.5 -124.5t-24.5 -148.5q0 -96 34.5 -160t100.5 -64q50 0 79 47t29 135v195h55v-195q0 -88 29 -135t79 -47 q66 0 100 64t34 160q0 75 -24 148.5t-70 124.5h67q40 -49 62.5 -123t22.5 -149z"/>
<glyph glyph-name="iotadieresis" horiz-adv-x="243" unicode="ϊ" d="M64 669q0 -16 -11.5 -27.5t-27.5 -11.5t-27.5 11.5t-11.5 27.5t11.5 27t27.5 11t27.5 -11t11.5 -27zM240 669q0 -16 -11.5 -27.5t-27.5 -11.5t-27.5 11.5t-11.5 27.5t11.5 27t27.5 11t27.5 -11t11.5 -27zM205 -10q-121 9 -121 128v421h58v-421q0 -69 63 -76v-52z"/>
<glyph glyph-name="upsilondieresis" horiz-adv-x="545" unicode="ϋ" d="M223 669q0 -16 -11.5 -27.5t-27.5 -11.5t-27.5 11.5t-11.5 27.5t11.5 27t27.5 11t27.5 -11t11.5 -27zM399 669q0 -16 -11.5 -27.5t-27.5 -11.5t-27.5 11.5t-11.5 27.5t11.5 27t27.5 11t27.5 -11t11.5 -27zM466 172q0 -82 -53 -132t-140 -50t-140.5 50t-53.5 132v367h59 v-367q0 -61 37 -97t98 -36t97.5 36t36.5 97v367h59v-367z"/>
<glyph glyph-name="omicrontonos" horiz-adv-x="560" unicode="ό" d="M364 735l-70 -132h-43l48 132q11 19 34 19q22 0 31 -19zM443 270q0 104 -41.5 167t-121.5 63t-121.5 -63t-41.5 -167t41.5 -167t121.5 -63t121.5 63t41.5 167zM502 270q0 -124 -58 -202t-164 -78t-164 78t-58 202t58 201.5t164 77.5t164 -77.5t58 -201.5z"/>
<glyph glyph-name="upsilontonos" horiz-adv-x="545" unicode="ύ" d="M347 735l-70 -132h-43l48 132q11 19 34 19q22 0 31 -19zM466 172q0 -82 -53 -132t-140 -50t-140.5 50t-53.5 132v367h59v-367q0 -61 37 -97t98 -36t97.5 36t36.5 97v367h59v-367z"/>
<glyph glyph-name="omegatonos" horiz-adv-x="776" unicode="ώ" d="M467 735l-70 -132h-43l48 132q11 19 34 19q22 0 31 -19zM716 267q0 -119 -48 -198t-142 -79q-61 0 -96.5 39.5t-39.5 98.5h-2q-4 -59 -40 -98.5t-97 -39.5q-94 0 -142.5 79t-48.5 198q0 75 23 149t63 123h67q-46 -51 -70.5 -124.5t-24.5 -148.5q0 -96 34.5 -160 t100.5 -64q50 0 79 47t29 135v195h55v-195q0 -88 29 -135t79 -47q66 0 100 64t34 160q0 75 -24 148.5t-70 124.5h67q40 -49 62.5 -123t22.5 -149z"/>
<glyph glyph-name="afii10023" horiz-adv-x="507" unicode="Ё" d="M219 854q0 -16 -11.5 -27.5t-27.5 -11.5t-27.5 11.5t-11.5 27.5t11.5 27t27.5 11t27.5 -11t11.5 -27zM395 854q0 -16 -11.5 -27.5t-27.5 -11.5t-27.5 11.5t-11.5 27.5t11.5 27t27.5 11t27.5 -11t11.5 -27zM455 0h-370v724h370v-53h-310v-270h287v-53h-287v-295h310v-53z "/>
<glyph glyph-name="afii10051" horiz-adv-x="694" unicode="Ђ" d="M632 188q0 -128 -57.5 -228t-162.5 -150l-27 48q91 43 138.5 130t47.5 200q0 108 -45.5 172t-139.5 64q-76 0 -137 -36v-388h-61v671h-152v53h471v-53h-258v-230q64 35 145 35q119 0 178.5 -78.5t59.5 -209.5z"/>
<glyph glyph-name="afii10052" horiz-adv-x="480" unicode="Ѓ" d="M368 919l-96 -131h-48l75 131q16 19 40 19q23 0 29 -19zM446 671h-297v-671h-60v724h357v-53z"/>
<glyph glyph-name="afii10053" horiz-adv-x="600" unicode="Є" d="M552 27q-62 -37 -172 -37q-137 0 -227.5 95.5t-90.5 276.5t90.5 276.5t227.5 95.5q110 0 172 -37l-23 -48q-53 32 -148 32q-105 0 -177 -70t-81 -210h360v-53h-361q3 -152 76 -228.5t183 -76.5q96 0 148 32z"/>
<glyph glyph-name="afii10054" horiz-adv-x="522" unicode="Ѕ" d="M461 190q0 -92 -66.5 -146t-172.5 -54q-100 0 -169 37l23 53q64 -35 145 -35q79 0 128.5 38.5t49.5 105.5q0 30 -11.5 53.5t-35.5 42t-45 30t-56 26.5q-34 15 -57 26.5t-50.5 30t-44 38.5t-28 48.5t-11.5 61.5q0 87 60.5 137.5t156.5 50.5q98 0 154 -37l-23 -51 q-56 34 -130 34q-70 0 -113.5 -35t-43.5 -97q0 -24 10 -45t23 -35.5t37 -29.5t41.5 -23t46.5 -21q41 -18 67 -32.5t56 -39t44.5 -57.5t14.5 -75z"/>
<glyph glyph-name="afii10055" horiz-adv-x="235" unicode="І" d="M148 0h-61v724h61v-724z"/>
<glyph glyph-name="afii10056" horiz-adv-x="235" unicode="Ї" d="M68 854q0 -16 -11.5 -27.5t-27.5 -11.5t-27.5 11.5t-11.5 27.5t11.5 27t27.5 11t27.5 -11t11.5 -27zM244 854q0 -16 -11.5 -27.5t-27.5 -11.5t-27.5 11.5t-11.5 27.5t11.5 27t27.5 11t27.5 -11t11.5 -27zM148 0h-61v724h61v-724z"/>
<glyph glyph-name="afii10057" horiz-adv-x="235" unicode="Ј" d="M148 80q0 -244 -219 -298v55q158 52 158 243v644h61v-644z"/>
<glyph glyph-name="afii10058" horiz-adv-x="974" unicode="Љ" d="M857 208q0 78 -54 122.5t-150 44.5q-58 0 -104 -14v-300q45 -20 120 -20q90 0 139 43.5t49 123.5zM918 208q0 -100 -65.5 -159t-183.5 -59q-105 0 -181 37v644h-199l-16 -155q-6 -58 -10.5 -92.5t-13 -86t-18.5 -85t-26.5 -75.5t-37.5 -72.5t-50.5 -61.5t-66.5 -56 l-26 51q31 22 55.5 50t41.5 54t31 65t22 67.5t16 78t12 80t10 88.5l22 203h315v-312q44 14 105 14q123 0 193.5 -60t70.5 -158z"/>
<glyph glyph-name="afii10059" horiz-adv-x="943" unicode="Њ" d="M826 208q0 78 -54 122.5t-150 44.5q-58 0 -104 -14v-300q45 -20 120 -20q90 0 139 43.5t49 123.5zM887 208q0 -100 -65.5 -159t-183.5 -59q-104 0 -180 37v321h-312v-348h-61v724h61v-323h312v323h60v-312q44 14 105 14q123 0 193.5 -60t70.5 -158z"/>
<glyph glyph-name="afii10060" horiz-adv-x="690" unicode="Ћ" d="M608 0h-60v276q0 74 -42.5 111.5t-117.5 37.5q-78 0 -139 -36v-389h-61v671h-152v53h471v-53h-258v-230q64 35 146 35q99 0 156 -51.5t57 -146.5v-278z"/>
<glyph glyph-name="afii10061" horiz-adv-x="581" unicode="Ќ" d="M556 0h-71l-127 225q-33 58 -87.5 93.5t-122.5 35.5v-354h-61v724h61v-342h2l314 342h78l-317 -337q126 -30 193 -148zM382 919l-96 -131h-48l75 131q16 19 40 19q23 0 29 -19z"/>
<glyph glyph-name="afii10062" horiz-adv-x="594" unicode="Ў" d="M426 913q-4 -58 -38 -92.5t-91 -34.5t-91.5 34.5t-38.5 92.5l41 6q15 -88 89 -88q73 0 88 88zM547 724q-36 -218 -192 -500l-125 -224h-69l118 207q-188 288 -233 517h64q42 -212 199 -464h2q138 257 172 464h64z"/>
<glyph glyph-name="afii10145" horiz-adv-x="633" unicode="Џ" d="M548 0h-203l-5 -146h-47l-4 146h-204v724h61v-671h341v671h61v-724z"/>
<glyph glyph-name="afii10017" horiz-adv-x="653" unicode="А" d="M463 279l-112 313l-24 82h-2q-10 -44 -23 -82l-112 -313h273zM626 0h-64l-83 231h-305l-83 -231h-64l265 724h69z"/>
<glyph glyph-name="afii10018" horiz-adv-x="583" unicode="Б" d="M464 207q0 79 -54 122.5t-154 43.5q-63 0 -109 -14v-298q45 -20 126 -20q94 0 142.5 43t48.5 123zM526 206q0 -100 -65.5 -158t-187.5 -58q-110 0 -186 37v697h366v-53h-306v-262q46 14 112 14q126 0 196.5 -58.5t70.5 -158.5z"/>
<glyph glyph-name="afii10019" horiz-adv-x="603" unicode="В" d="M485 192q0 93 -77 132q-51 26 -144 26h-118v-289q56 -21 134 -21q97 0 151 40t54 112zM460 547q0 64 -49 100.5t-135 36.5q-79 0 -130 -21v-265h113q59 0 88.5 6.5t57.5 25.5q25 17 40 49t15 68zM546 190q0 -93 -70.5 -146.5t-195.5 -53.5q-115 0 -193 37v670 q79 37 189 37q115 0 179 -50t64 -134q0 -69 -39 -113.5t-88 -56.5v-2q60 -13 107 -59.5t47 -128.5z"/>
<glyph glyph-name="afii10020" horiz-adv-x="480" unicode="Г" d="M446 671h-297v-671h-60v724h357v-53z"/>
<glyph glyph-name="afii10021" horiz-adv-x="743" unicode="Д" d="M580 50l-70 621h-195l-15 -134q-40 -347 -170 -487h450zM683 38l-4 -184h-47l-4 146h-531l-4 -146h-48l-4 184q153 131 199 504l22 182h302l77 -671z"/>
<glyph glyph-name="afii10022" horiz-adv-x="507" unicode="Е" d="M455 0h-370v724h370v-53h-310v-270h287v-53h-287v-295h310v-53z"/>
<glyph glyph-name="afii10024" horiz-adv-x="859" unicode="Ж" d="M833 0h-68l-126 235q-66 121 -180 121v-356h-59v356q-114 0 -180 -121l-126 -235h-68l135 248q59 109 165 139l-284 337h75l281 -344h2v344h59v-344h2l281 344h75l-284 -337q106 -30 165 -139z"/>
<glyph glyph-name="afii10025" horiz-adv-x="562" unicode="З" d="M504 202q0 -97 -72.5 -154.5t-197.5 -57.5q-107 0 -192 37l22 49q75 -33 170 -33q97 0 152.5 42.5t55.5 116.5q0 80 -71 120t-185 40q-22 0 -33 -1v48q107 1 181.5 44t74.5 109q0 59 -44.5 89t-127.5 30q-90 0 -164 -32l-22 48q82 37 190 37t168.5 -45t60.5 -125 q0 -63 -49 -107.5t-114 -60.5v-2q35 -6 66 -18t62.5 -34t50 -58t18.5 -82z"/>
<glyph glyph-name="afii10026" horiz-adv-x="698" unicode="И" d="M613 0h-57v568l2 86h-2q-20 -42 -42 -77l-365 -577h-64v724h57v-557l-1 -87h2q20 41 42 76l360 568h68v-724z"/>
<glyph glyph-name="afii10027" horiz-adv-x="698" unicode="Й" d="M475 913q-4 -58 -38.5 -92.5t-90.5 -34.5q-57 0 -91.5 34.5t-38.5 92.5l41 6q15 -88 89 -88q73 0 88 88zM613 0h-57v568l2 86h-2q-20 -42 -42 -77l-365 -577h-64v724h57v-557l-1 -87h2q20 41 42 76l360 568h68v-724z"/>
<glyph glyph-name="afii10028" horiz-adv-x="581" unicode="К" d="M556 0h-71l-127 225q-33 58 -87.5 93.5t-122.5 35.5v-354h-61v724h61v-342h2l314 342h78l-317 -337q126 -30 193 -148z"/>
<glyph glyph-name="afii10029" horiz-adv-x="699" unicode="Л" d="M633 0h-63l-75 671h-195l-17 -155q-7 -60 -11 -93t-13 -86t-19 -85t-27.5 -75.5t-39 -73t-52.5 -61t-70 -56.5l-25 53q38 26 66.5 56.5t48.5 70.5t33 73.5t22.5 88.5t14.5 90t12 103l22 203h306z"/>
<glyph glyph-name="afii10030" horiz-adv-x="867" unicode="М" d="M807 0h-58l-77 580l-8 84h-2q-10 -45 -22 -83l-180 -581h-53l-180 581l-22 83h-2q-3 -46 -8 -84l-76 -580h-59l99 724h77l176 -563l21 -85h2q9 46 21 85l175 563h77z"/>
<glyph glyph-name="afii10031" horiz-adv-x="639" unicode="Н" d="M554 0h-61v348h-347v-348h-61v724h61v-323h347v323h61v-724z"/>
<glyph glyph-name="afii10032" horiz-adv-x="676" unicode="О" d="M553 362q0 137 -56.5 227.5t-158.5 90.5t-158.5 -90.5t-56.5 -227.5t56.5 -227.5t158.5 -90.5t158.5 90.5t56.5 227.5zM614 362q0 -161 -72.5 -266.5t-203.5 -105.5t-203.5 105.5t-72.5 266.5t72.5 266.5t203.5 105.5t203.5 -105.5t72.5 -266.5z"/>
<glyph glyph-name="afii10033" horiz-adv-x="639" unicode="П" d="M554 0h-61v671h-347v-671h-61v724h469v-724z"/>
<glyph glyph-name="afii10034" horiz-adv-x="560" unicode="Р" d="M454 519q0 79 -49 121.5t-139 42.5q-75 0 -120 -20v-300q40 -7 92 -7q103 0 159.5 44t56.5 119zM515 519q0 -96 -73 -155t-203 -59q-55 0 -93 7v-312h-61v697q76 37 181 37q118 0 183.5 -57.5t65.5 -157.5z"/>
<glyph glyph-name="afii10035" horiz-adv-x="548" unicode="С" d="M496 27q-54 -37 -153 -37q-121 0 -201 95.5t-80 276.5t80 276.5t201 95.5q99 0 153 -37l-21 -50q-49 33 -128 33q-96 0 -159 -80.5t-63 -237.5t62.5 -237t159.5 -80q81 0 128 32z"/>
<glyph glyph-name="afii10036" horiz-adv-x="512" unicode="Т" d="M479 671h-192v-671h-61v671h-193v53h446v-53z"/>
<glyph glyph-name="afii10037" horiz-adv-x="594" unicode="У" d="M547 724q-36 -218 -192 -500l-125 -224h-69l118 207q-188 288 -233 517h64q42 -212 199 -464h2q138 257 172 464h64z"/>
<glyph glyph-name="afii10038" horiz-adv-x="813" unicode="Ф" d="M378 97v531q-119 -1 -189 -76t-70 -189t70 -189.5t189 -76.5zM694 363q0 114 -70 189t-189 76v-531q119 1 189 76.5t70 189.5zM755 362q0 -133 -87 -223t-233 -91v-69h-57v69q-146 1 -233 91t-87 223q0 87 38 157.5t111.5 113.5t170.5 44v68h57v-68q97 -1 170.5 -44 t111.5 -113.5t38 -157.5z"/>
<glyph glyph-name="afii10039" horiz-adv-x="579" unicode="Х" d="M547 0h-68l-189 325h-2l-189 -325h-67l221 374l-207 350h67l175 -300h2l175 300h67l-207 -350z"/>
<glyph glyph-name="afii10040" horiz-adv-x="648" unicode="Ц" d="M589 38l-4 -184h-48l-4 146h-448v724h61v-671h341v671h61v-670z"/>
<glyph glyph-name="afii10041" horiz-adv-x="619" unicode="Ч" d="M534 0h-62v312q-27 -15 -75 -25.5t-85 -10.5q-107 0 -169 61t-62 166v221h61v-219q0 -83 46.5 -128.5t129.5 -45.5q36 0 83 10.5t71 25.5v357h62v-724z"/>
<glyph glyph-name="afii10042" horiz-adv-x="935" unicode="Ш" d="M850 0h-765v724h60v-671h292v671h60v-671h292v671h61v-724z"/>
<glyph glyph-name="afii10043" horiz-adv-x="950" unicode="Щ" d="M890 38l-4 -184h-47l-4 146h-750v724h60v-671h292v671h60v-671h292v671h61v-671z"/>
<glyph glyph-name="afii10044" horiz-adv-x="686" unicode="Ъ" d="M569 208q0 78 -54 122.5t-150 44.5q-58 0 -104 -14v-300q45 -20 120 -20q90 0 139 43.5t49 123.5zM630 208q0 -100 -65.5 -159t-183.5 -59q-105 0 -181 37v644h-167v53h228v-312q44 14 105 14q123 0 193.5 -60t70.5 -158z"/>
<glyph glyph-name="afii10045" horiz-adv-x="764" unicode="Ы" d="M454 208q0 78 -54.5 122.5t-150.5 44.5q-57 0 -103 -14v-300q45 -20 120 -20q90 0 139 43.5t49 123.5zM515 208q0 -100 -65.5 -159t-183.5 -59q-105 0 -181 37v697h61v-312q44 14 105 14q123 0 193.5 -60t70.5 -158zM677 0h-61v724h61v-724z"/>
<glyph glyph-name="afii10046" horiz-adv-x="570" unicode="Ь" d="M454 208q0 78 -54.5 122.5t-150.5 44.5q-57 0 -103 -14v-300q45 -20 120 -20q90 0 139 43.5t49 123.5zM515 208q0 -100 -65.5 -159t-183.5 -59q-105 0 -181 37v697h61v-312q44 14 105 14q123 0 193.5 -60t70.5 -158z"/>
<glyph glyph-name="afii10047" horiz-adv-x="600" unicode="Э" d="M538 362q0 -181 -90.5 -276.5t-227.5 -95.5q-110 0 -172 37l23 48q52 -32 147 -32q110 0 183.5 76.5t76.5 228.5h-361v53h360q-9 140 -81.5 210t-177.5 70q-94 0 -147 -32l-23 48q62 37 172 37q137 0 227.5 -95.5t90.5 -276.5z"/>
<glyph glyph-name="afii10048" horiz-adv-x="891" unicode="Ю" d="M767 362q0 89 -18 159t-60.5 116t-106.5 46t-107 -46t-61 -116t-18 -159t18 -159t61 -116t107 -46t106.5 46t60.5 116t18 159zM827 362q0 -104 -23.5 -185t-80.5 -134t-141 -53q-62 0 -109.5 28.5t-76 79t-43.5 113.5t-16 137h-191v-348h-61v724h61v-323h192 q7 147 67.5 240t176.5 93q84 0 141 -53t80.5 -134t23.5 -185z"/>
<glyph glyph-name="afii10049" horiz-adv-x="610" unicode="Я" d="M463 378v285q-51 21 -132 21q-96 0 -145.5 -40t-49.5 -110q0 -83 54 -119.5t155 -36.5h118zM524 0h-61v329h-98q-90 0 -134 -87l-123 -242h-67l129 250q38 73 85 94v2q-179 26 -179 190q0 91 66 144.5t189 53.5q114 0 193 -38v-696z"/>
<glyph glyph-name="afii10065" horiz-adv-x="523" unicode="а" d="M387 57v235q-39 -2 -57 -3.5t-53.5 -5.5t-54 -9.5t-44 -16t-38 -24t-22 -34.5t-9.5 -47q0 -53 39 -84t116 -31q83 0 123 20zM444 27q-28 -16 -78.5 -26.5t-100.5 -10.5q-104 0 -158.5 43t-54.5 118q0 38 13 67.5t38.5 48.5t54 32t71 20.5t76.5 11t82 6.5v47 q0 118 -141 118q-80 0 -144 -34l-18 44q76 37 166 37q194 0 194 -169v-353z"/>
<glyph glyph-name="afii10066" horiz-adv-x="564" unicode="б" d="M448 272q0 100 -46 163.5t-128 63.5q-75 0 -141 -33q-11 -64 -11 -138q0 -132 43 -210t124 -78q75 0 117 65t42 167zM507 272q0 -123 -58 -202.5t-160 -79.5q-110 0 -167 92t-57 248q0 213 91 325t303 140v-52q-135 -19 -210.5 -74t-104.5 -155q62 32 135 32 q107 0 167.5 -77t60.5 -197z"/>
<glyph glyph-name="afii10067" horiz-adv-x="523" unicode="в" d="M408 143q0 65 -59 94q-36 18 -106 18h-106v-200q44 -22 113 -22q78 0 118 28.5t40 81.5zM389 406q0 46 -38 73t-105 27q-69 0 -109 -21v-188h102q44 0 66 4.5t43 18.5q41 29 41 86zM465 141q0 -71 -55.5 -111t-159.5 -40q-97 0 -169 37v485q69 37 165 37 q93 0 146.5 -38.5t53.5 -102.5q0 -50 -31.5 -85t-70.5 -43v-2q47 -10 84 -43.5t37 -93.5z"/>
<glyph glyph-name="afii10068" horiz-adv-x="409" unicode="г" d="M379 490h-238v-490h-58v539h296v-49z"/>
<glyph glyph-name="afii10069" horiz-adv-x="631" unicode="д" d="M480 47l-49 444h-159l-15 -97q-9 -58 -16 -93t-22 -89t-39.5 -95t-58.5 -70h359zM576 35l-4 -181h-46l-4 146h-428l-5 -146h-45l-7 181q44 30 75 73.5t49 101t25.5 95t16.5 98.5l20 136h257l56 -489z"/>
<glyph glyph-name="afii10070" horiz-adv-x="552" unicode="е" d="M437 330q-1 85 -41 128.5t-110 43.5q-79 0 -125.5 -59.5t-48.5 -159.5zM494 326q0 -20 -1 -32l-378 -56q6 -97 57.5 -148t138.5 -51q88 0 146 34l20 -46q-63 -37 -168 -37q-117 0 -184 72.5t-67 207.5q0 126 61.5 202.5t166.5 76.5q95 0 151.5 -59t56.5 -164z"/>
<glyph glyph-name="afii10072" horiz-adv-x="719" unicode="ж" d="M695 0h-64l-93 166q-57 102 -151 102v-268h-55v268q-94 0 -151 -102l-93 -166h-64l101 177q53 92 135 116l-231 246h72l229 -253h2v253h55v-253h2l229 253h72l-231 -246q81 -22 135 -116z"/>
<glyph glyph-name="afii10073" horiz-adv-x="489" unicode="з" d="M434 146q0 -74 -61.5 -115t-155.5 -41q-107 0 -181 37l22 43q61 -32 156 -32q69 0 114.5 28t45.5 82q0 49 -42.5 79.5t-125.5 30.5h-76v43h72q73 0 112 27t39 74q0 49 -39 74.5t-98 25.5q-83 0 -146 -33l-21 43q71 37 172 37q84 0 137.5 -37.5t53.5 -106.5 q0 -46 -29 -78.5t-78 -41.5v-2q54 -10 91.5 -45.5t37.5 -91.5z"/>
<glyph glyph-name="afii10074" horiz-adv-x="577" unicode="и" d="M498 0h-54v410l2 67h-2q-15 -34 -32 -60l-272 -417h-61v539h54v-401l-2 -69h2q16 34 33 60l267 410h65v-539z"/>
<glyph glyph-name="afii10075" horiz-adv-x="577" unicode="й" d="M415 728q-4 -58 -38.5 -92.5t-90.5 -34.5q-57 0 -91.5 34.5t-38.5 92.5l41 6q15 -88 89 -88q73 0 88 88zM498 0h-54v410l2 67h-2q-15 -34 -32 -60l-272 -417h-61v539h54v-401l-2 -69h2q16 34 33 60l267 410h65v-539z"/>
<glyph glyph-name="afii10076" horiz-adv-x="494" unicode="к" d="M472 0h-67l-106 167q-62 98 -160 98v-265h-58v539h58v-250h2l251 250h75l-257 -246q87 -23 147 -116z"/>
<glyph glyph-name="afii10077" horiz-adv-x="596" unicode="л" d="M537 0h-59l-55 490h-157l-16 -109q-7 -47 -10 -65.5t-12 -63.5t-17.5 -68t-24.5 -59.5t-34.5 -58t-46.5 -44t-62 -36.5l-22 49q37 16 65.5 46t45 61t30 79.5t19 80.5t12.5 86l21 151h262z"/>
<glyph glyph-name="afii10078" horiz-adv-x="730" unicode="м" d="M675 0h-56l-55 419l-6 71h-2q-8 -39 -19 -70l-147 -420h-50l-147 420l-19 70h-2q-2 -39 -6 -71l-55 -419h-56l76 539h73l142 -409l18 -66h2q7 37 17 66l143 409h73z"/>
<glyph glyph-name="afii10079" horiz-adv-x="541" unicode="н" d="M462 0h-59v253h-265v-253h-59v539h59v-240h265v240h59v-539z"/>
<glyph glyph-name="afii10080" horiz-adv-x="560" unicode="о" d="M443 270q0 104 -41.5 167t-121.5 63t-121.5 -63t-41.5 -167t41.5 -167t121.5 -63t121.5 63t41.5 167zM502 270q0 -124 -58 -202t-164 -78t-164 78t-58 202t58 201.5t164 77.5t164 -77.5t58 -201.5z"/>
<glyph glyph-name="afii10081" horiz-adv-x="546" unicode="п" d="M467 0h-59v490h-270v-490h-59v539h388v-539z"/>
<glyph glyph-name="afii10082" horiz-adv-x="549" unicode="р" d="M433 277q0 102 -50 162.5t-141 60.5q-66 0 -104 -20v-422q41 -16 102 -16q92 0 142.5 65.5t50.5 169.5zM492 277q0 -126 -66 -205t-183 -79q-63 0 -105 16v-224h-59v727q26 15 71.5 26t90.5 11q118 0 184.5 -74.5t66.5 -197.5z"/>
<glyph glyph-name="afii10083" horiz-adv-x="461" unicode="с" d="M413 27q-55 -37 -128 -37q-92 0 -159.5 70t-67.5 210t67.5 209.5t159.5 69.5q73 0 128 -37l-21 -44q-45 31 -103 31q-70 0 -120.5 -56t-50.5 -173t50.5 -173t120.5 -56q58 0 103 31z"/>
<glyph glyph-name="afii10084" horiz-adv-x="444" unicode="т" d="M413 489h-162v-489h-58v489h-162v50h382v-50z"/>
<glyph glyph-name="afii10085" horiz-adv-x="537" unicode="у" d="M492 539q-35 -241 -175 -521l-116 -233h-63l110 215q-164 308 -203 539h61q36 -211 170 -483h2q119 252 152 483h62z"/>
<glyph glyph-name="afii10086" horiz-adv-x="759" unicode="ф" d="M352 62v415q-38 26 -87 26q-42 0 -73 -21t-46.5 -57t-22.5 -74t-7 -81t7 -81t22.5 -74t46.5 -57.5t73 -21.5q49 0 87 26zM643 270q0 43 -7 81t-22.5 74t-46.5 57t-73 21q-48 0 -86 -26v-415q38 -26 86 -26q56 0 91 38.5t46.5 87.5t11.5 108zM700 270q0 -53 -11 -101 t-33.5 -89t-62.5 -65.5t-94 -24.5q-50 0 -91 29v-234h-56v234q-41 -29 -92 -29q-54 0 -94 24.5t-62.5 65.5t-33.5 89t-11 101t11 101t33.5 89t62.5 65t94 24q52 0 92 -28v264h56v-264q40 28 91 28q54 0 94 -24t62.5 -65t33.5 -89t11 -101z"/>
<glyph glyph-name="afii10087" horiz-adv-x="503" unicode="х" d="M473 0h-67l-154 237h-2l-153 -237h-67l186 280l-172 259h67l139 -217h2l140 217h67l-172 -259z"/>
<glyph glyph-name="afii10088" horiz-adv-x="555" unicode="ц" d="M499 35l-4 -181h-45l-4 146h-367v539h59v-490h264v490h59v-489z"/>
<glyph glyph-name="afii10089" horiz-adv-x="540" unicode="ч" d="M461 0h-59v231q-67 -36 -132 -36q-95 0 -145.5 47.5t-50.5 138.5v158h58v-155q0 -139 145 -139q67 0 125 36v258h59v-539z"/>
<glyph glyph-name="afii10090" horiz-adv-x="819" unicode="ш" d="M740 0h-661v539h59v-491h242v491h59v-491h242v491h59v-539z"/>
<glyph glyph-name="afii10091" horiz-adv-x="833" unicode="щ" d="M778 35l-4 -181h-45l-5 146h-645v539h59v-491h242v491h59v-491h242v491h59v-489z"/>
<glyph glyph-name="afii10092" horiz-adv-x="583" unicode="ъ" d="M469 159q0 126 -151 126q-52 0 -93 -13v-216q42 -21 101 -21q70 0 106.5 32t36.5 92zM527 159q0 -79 -53 -124t-148 -45q-92 0 -160 37v463h-136v49h195v-223q46 14 96 14q101 0 153.5 -46t52.5 -125z"/>
<glyph glyph-name="afii10093" horiz-adv-x="672" unicode="ы" d="M382 159q0 126 -151 126q-53 0 -94 -13v-216q42 -21 102 -21q70 0 106.5 32t36.5 92zM440 159q0 -79 -53 -124t-148 -45q-92 0 -160 37v512h58v-223q46 14 97 14q101 0 153.5 -46t52.5 -125zM593 0h-59v539h59v-539z"/>
<glyph glyph-name="afii10094" horiz-adv-x="495" unicode="ь" d="M382 159q0 126 -151 126q-53 0 -94 -13v-216q42 -21 102 -21q70 0 106.5 32t36.5 92zM440 159q0 -79 -53 -124t-148 -45q-92 0 -160 37v512h58v-223q46 14 97 14q101 0 153.5 -46t52.5 -125z"/>
<glyph glyph-name="afii10095" horiz-adv-x="501" unicode="э" d="M443 270q0 -137 -72 -208.5t-184 -71.5q-89 0 -141 37l21 42q19 -14 53 -23t65 -9q84 0 139.5 55t59.5 163h-283v46h282q-8 101 -63 151t-135 50q-31 0 -65 -9t-53 -23l-21 42q51 37 141 37q112 0 184 -71t72 -208z"/>
<glyph glyph-name="afii10096" horiz-adv-x="747" unicode="ю" d="M628 270q0 103 -38.5 166.5t-110.5 63.5q-73 0 -111.5 -63.5t-38.5 -166.5t38.5 -167t111.5 -64q72 0 110.5 64t38.5 167zM686 270q0 -124 -54 -202t-153 -78q-95 0 -148.5 72.5t-57.5 190.5h-136v-253h-58v539h58v-237h137q7 111 60 179t145 68q99 0 153 -77.5 t54 -201.5z"/>
<glyph glyph-name="afii10097" horiz-adv-x="525" unicode="я" d="M387 278v207q-38 20 -113 20q-72 0 -110 -29.5t-38 -82.5q0 -54 37.5 -84.5t114.5 -30.5h109zM444 0h-57v235h-98q-67 0 -101 -68l-82 -167h-63l87 173q29 57 71 76v2q-59 9 -95.5 47t-36.5 96q0 70 54.5 112.5t151.5 42.5q103 0 169 -37v-512z"/>
<glyph glyph-name="afii10071" horiz-adv-x="552" unicode="ё" d="M437 330q-1 85 -41 128.5t-110 43.5q-79 0 -125.5 -59.5t-48.5 -159.5zM494 326q0 -20 -1 -32l-378 -56q6 -97 57.5 -148t138.5 -51q88 0 146 34l20 -46q-63 -37 -168 -37q-117 0 -184 72.5t-67 207.5q0 126 61.5 202.5t166.5 76.5q95 0 151.5 -59t56.5 -164zM231 669 q0 -16 -11.5 -27.5t-27.5 -11.5t-27.5 11.5t-11.5 27.5t11.5 27t27.5 11t27.5 -11t11.5 -27zM407 669q0 -16 -11.5 -27.5t-27.5 -11.5t-27.5 11.5t-11.5 27.5t11.5 27t27.5 11t27.5 -11t11.5 -27z"/>
<glyph glyph-name="afii10099" horiz-adv-x="555" unicode="ђ" d="M494 225q0 -138 -59 -250.5t-162 -162.5l-29 44q93 47 142 145t49 224q0 121 -45 197t-138 76q-60 0 -114 -34v-464h-59v639h-81v40h81v106h59v-106h178v-40h-178v-125q55 34 120 34q118 0 177 -89.5t59 -233.5z"/>
<glyph glyph-name="afii10100" horiz-adv-x="409" unicode="ѓ" d="M331 734l-96 -131h-48l75 131q16 19 40 19q23 0 29 -19zM379 490h-238v-490h-58v539h296v-49z"/>
<glyph glyph-name="afii10101" horiz-adv-x="501" unicode="є" d="M455 27q-52 -37 -141 -37q-112 0 -184 71.5t-72 208.5t72 208t184 71q90 0 141 -37l-21 -42q-19 14 -53 23t-65 9q-80 0 -135 -50t-63 -151h282v-46h-283q4 -108 59.5 -163t139.5 -55q31 0 65 9t53 23z"/>
<glyph glyph-name="afii10102" horiz-adv-x="448" unicode="ѕ" d="M393 138q0 -67 -51.5 -107.5t-140.5 -40.5q-90 0 -154 37l23 46q57 -34 130 -34q60 0 96 27t36 73q0 44 -29.5 68t-92.5 47q-74 28 -111.5 60.5t-37.5 95.5q0 60 46 99.5t125 39.5q82 0 142 -37l-23 -44q-49 33 -115 33q-53 0 -84 -26t-31 -65q0 -44 27.5 -66t87.5 -45 q39 -15 61 -25.5t47.5 -29.5t37 -45t11.5 -61z"/>
<glyph glyph-name="afii10103" horiz-adv-x="227" unicode="і" d="M155 671q0 -17 -12 -29t-29 -12t-29 12t-12 29t12 28.5t29 11.5t29 -11.5t12 -28.5zM143 0h-59v539h59v-539z"/>
<glyph glyph-name="afii10104" horiz-adv-x="227" unicode="ї" d="M65 669q0 -16 -11.5 -27.5t-27.5 -11.5t-27.5 11.5t-11.5 27.5t11.5 27t27.5 11t27.5 -11t11.5 -27zM241 669q0 -16 -11.5 -27.5t-27.5 -11.5t-27.5 11.5t-11.5 27.5t11.5 27t27.5 11t27.5 -11t11.5 -27zM143 0h-59v539h59v-539z"/>
<glyph glyph-name="afii10105" horiz-adv-x="227" unicode="ј" d="M155 671q0 -17 -12 -29t-29 -12t-29 12t-12 29t12 28.5t29 11.5t29 -11.5t12 -28.5zM143 51q0 -118 -55 -184.5t-142 -87.5v53q61 21 99.5 75t38.5 144v488h59v-488z"/>
<glyph glyph-name="afii10106" horiz-adv-x="830" unicode="љ" d="M716 159q0 126 -151 126q-52 0 -93 -13v-216q42 -21 101 -21q70 0 106.5 32t36.5 92zM775 159q0 -80 -54.5 -124.5t-147.5 -44.5q-92 0 -160 37v463h-155l-15 -109q-6 -42 -9.5 -65t-12 -64.5t-17 -67t-24 -60t-33.5 -57t-44.5 -44.5t-58.5 -36l-23 48q43 20 73.5 56.5 t48.5 92t26 96t17 108.5l21 151h265v-223q46 14 96 14q101 0 154 -46t53 -125z"/>
<glyph glyph-name="afii10107" horiz-adv-x="807" unicode="њ" d="M693 159q0 126 -151 126q-52 0 -93 -13v-216q42 -21 101 -21q70 0 106.5 32t36.5 92zM752 159q0 -79 -53.5 -124t-148.5 -45q-92 0 -160 37v226h-253v-253h-58v539h58v-237h253v237h59v-223q46 14 96 14q101 0 154 -46t53 -125z"/>
<glyph glyph-name="afii10108" horiz-adv-x="549" unicode="ћ" d="M470 0h-59v368q0 65 -38.5 97.5t-108.5 32.5q-69 0 -126 -35v-463h-59v639h-81v40h81v106h59v-106h178v-40h-178v-126q62 35 133 35q93 0 146 -46t53 -131v-371z"/>
<glyph glyph-name="afii10109" horiz-adv-x="494" unicode="ќ" d="M348 734l-96 -131h-48l75 131q16 19 40 19q23 0 29 -19zM472 0h-67l-106 167q-62 98 -160 98v-265h-58v539h58v-250h2l251 250h75l-257 -246q87 -23 147 -116z"/>
<glyph glyph-name="afii10110" horiz-adv-x="537" unicode="ў" d="M398 728q-4 -58 -38 -92.5t-91 -34.5t-91.5 34.5t-38.5 92.5l41 6q15 -88 89 -88q73 0 88 88zM492 539q-35 -241 -175 -521l-116 -233h-63l110 215q-164 308 -203 539h61q36 -211 170 -483h2q119 252 152 483h62z"/>
<glyph glyph-name="afii10193" horiz-adv-x="546" unicode="џ" d="M467 0h-167l-5 -146h-44l-5 146h-167v539h59v-490h270v490h59v-539z"/>
<glyph glyph-name="afii10050" horiz-adv-x="487" unicode="Ґ" d="M454 671h-305v-671h-60v724h311v130h54v-183z"/>
<glyph glyph-name="afii10098" horiz-adv-x="419" unicode="ґ" d="M388 490h-247v-490h-58v539h253v123h52v-172z"/>
<glyph glyph-name="afii10846" horiz-adv-x="552" unicode="ә" d="M439 256l-324 -47q1 -85 41 -128.5t110 -43.5q79 0 125 59.5t48 159.5zM494 269q0 -126 -62 -202.5t-167 -76.5q-95 0 -151 59t-56 164q0 20 1 32l378 56q-6 97 -58 148t-139 51t-145 -34l-20 46q63 37 168 37q117 0 184 -72.5t67 -207.5z"/>
<glyph glyph-name="Wgrave" horiz-adv-x="906" unicode="Ẁ" d="M490 788h-48l-96 131q6 19 29 19q24 0 40 -19zM861 724l-185 -724h-64l-140 555l-18 95h-2q-7 -50 -18 -95l-140 -555h-64l-185 724h62l137 -560l19 -96h2q8 53 19 96l140 560h58l140 -560l19 -96h2q9 53 19 96l137 560h62z"/>
<glyph glyph-name="wgrave" horiz-adv-x="820" unicode="ẁ" d="M430 603h-48l-96 131q6 19 29 19q24 0 40 -19zM777 539l-167 -539h-60l-122 407l-17 72h-2q-7 -39 -17 -72l-122 -407h-60l-167 539h59l120 -405l17 -78h2q9 44 19 78l120 405h60l120 -405l19 -78h2q8 44 18 78l119 405h59z"/>
<glyph glyph-name="Wacute" horiz-adv-x="906" unicode="Ẃ" d="M559 919l-96 -131h-48l75 131q16 19 40 19q23 0 29 -19zM861 724l-185 -724h-64l-140 555l-18 95h-2q-7 -50 -18 -95l-140 -555h-64l-185 724h62l137 -560l19 -96h2q8 53 19 96l140 560h58l140 -560l19 -96h2q9 53 19 96l137 560h62z"/>
<glyph glyph-name="wacute" horiz-adv-x="820" unicode="ẃ" d="M517 734l-96 -131h-48l75 131q16 19 40 19q23 0 29 -19zM777 539l-167 -539h-60l-122 407l-17 72h-2q-7 -39 -17 -72l-122 -407h-60l-167 539h59l120 -405l17 -78h2q9 44 19 78l120 405h60l120 -405l19 -78h2q8 44 18 78l119 405h59z"/>
<glyph glyph-name="Wdieresis" horiz-adv-x="906" unicode="Ẅ" d="M404 854q0 -16 -11.5 -27.5t-27.5 -11.5t-27.5 11.5t-11.5 27.5t11.5 27t27.5 11t27.5 -11t11.5 -27zM580 854q0 -16 -11.5 -27.5t-27.5 -11.5t-27.5 11.5t-11.5 27.5t11.5 27t27.5 11t27.5 -11t11.5 -27zM861 724l-185 -724h-64l-140 555l-18 95h-2q-7 -50 -18 -95 l-140 -555h-64l-185 724h62l137 -560l19 -96h2q8 53 19 96l140 560h58l140 -560l19 -96h2q9 53 19 96l137 560h62z"/>
<glyph glyph-name="wdieresis" horiz-adv-x="820" unicode="ẅ" d="M361 669q0 -16 -11.5 -27.5t-27.5 -11.5t-27.5 11.5t-11.5 27.5t11.5 27t27.5 11t27.5 -11t11.5 -27zM537 669q0 -16 -11.5 -27.5t-27.5 -11.5t-27.5 11.5t-11.5 27.5t11.5 27t27.5 11t27.5 -11t11.5 -27zM777 539l-167 -539h-60l-122 407l-17 72h-2q-7 -39 -17 -72 l-122 -407h-60l-167 539h59l120 -405l17 -78h2q9 44 19 78l120 405h60l120 -405l19 -78h2q8 44 18 78l119 405h59z"/>
<glyph glyph-name="Ygrave" horiz-adv-x="597" unicode="Ỳ" d="M350 788h-48l-96 131q6 19 29 19q24 0 40 -19zM567 724l-238 -431v-293h-61v293l-238 431h67l200 -369h2l200 369h68z"/>
<glyph glyph-name="ygrave" horiz-adv-x="537" unicode="ỳ" d="M319 603h-48l-96 131q6 19 29 19q24 0 40 -19zM501 539l-282 -754h-61l81 215l-203 539h64l148 -417l19 -72h2q8 39 20 72l148 417h64z"/>
<glyph glyph-name="endash" horiz-adv-x="404" unicode="–" d="M408 300h-412v50h412v-50z"/>
<glyph glyph-name="emdash" horiz-adv-x="808" unicode="—" d="M722 300h-636v50h636v-50z"/>
<glyph glyph-name="afii00208" horiz-adv-x="808" unicode="―" d="M808 300h-808v50h808v-50z"/>
<glyph glyph-name="quoteleft" horiz-adv-x="261" unicode="‘" d="M207 785l-84 -231q-15 -22 -40 -22q-26 0 -30 22l109 231h45z"/>
<glyph glyph-name="quoteright" horiz-adv-x="261" unicode="’" d="M207 768l-108 -232h-46l85 232q15 22 39 22q26 0 30 -22z"/>
<glyph glyph-name="quotesinglbase" horiz-adv-x="261" unicode="‚" d="M207 62l-108 -231h-46l85 231q15 22 39 22q26 0 30 -22z"/>
<glyph glyph-name="quotedblleft" horiz-adv-x="430" unicode="“" d="M207 785l-84 -231q-15 -22 -40 -22q-26 0 -30 22l109 231h45zM377 785l-85 -231q-15 -22 -39 -22q-26 0 -30 22l108 231h46z"/>
<glyph glyph-name="quotedblright" horiz-adv-x="430" unicode="”" d="M207 768l-108 -232h-46l85 232q15 22 39 22q26 0 30 -22zM377 768l-109 -232h-45l84 232q15 22 40 22q26 0 30 -22z"/>
<glyph glyph-name="quotedblbase" horiz-adv-x="430" unicode="„" d="M207 62l-108 -231h-46l85 231q15 22 39 22q26 0 30 -22zM377 62l-109 -231h-45l84 231q15 22 40 22q26 0 30 -22z"/>
<glyph glyph-name="dagger" horiz-adv-x="617" unicode="†" d="M548 485h-210v-700h-59v700h-210v54h210v246h59v-246h210v-54z"/>
<glyph glyph-name="daggerdbl" horiz-adv-x="617" unicode="‡" d="M548 165h-210v-380h-59v380h-210v54h210v266h-210v54h210v246h59v-246h210v-54h-210v-266h210v-54z"/>
<glyph glyph-name="bullet" horiz-adv-x="324" unicode="•" d="M239 325q0 -32 -22.5 -54.5t-54.5 -22.5t-54.5 22.5t-22.5 54.5t22.5 54.5t54.5 22.5t54.5 -22.5t22.5 -54.5z"/>
<glyph glyph-name="ellipsis" horiz-adv-x="732" unicode="…" d="M167 39q0 -19 -13 -32t-32 -13t-32 13t-13 32t13 32t32 13t32 -13t13 -32zM411 39q0 -19 -13 -32t-32 -13t-32 13t-13 32t13 32t32 13t32 -13t13 -32zM655 39q0 -19 -13 -32t-32 -13t-32 13t-13 32t13 32t32 13t32 -13t13 -32z"/>
<glyph glyph-name="perthousand" horiz-adv-x="1289" unicode="‰" d="M318 534q0 71 -25.5 113.5t-70.5 42.5t-70.5 -42.5t-25.5 -113.5t25.5 -113t70.5 -42t70.5 42t25.5 113zM783 190q0 71 -25.5 113.5t-70.5 42.5t-71 -42.5t-26 -113.5t26 -113t71 -42t70.5 42t25.5 113zM1163 190q0 71 -25.5 113.5t-70.5 42.5t-71 -42.5t-26 -113.5 t26 -113t71 -42t70.5 42t25.5 113zM369 534q0 -91 -39 -145.5t-108 -54.5t-108.5 55t-39.5 145t39.5 145t108.5 55t108 -54.5t39 -145.5zM610 717l-268 -725l-45 15l268 725zM834 190q0 -91 -39 -145.5t-108 -54.5t-108.5 55t-39.5 145t39.5 145t108.5 55t108 -54.5 t39 -145.5zM1214 190q0 -91 -39 -145.5t-108 -54.5t-108.5 55t-39.5 145t39.5 145t108.5 55t108 -54.5t39 -145.5z"/>
<glyph glyph-name="guilsinglleft" horiz-adv-x="369" unicode="‹" d="M290 99l-39 -31l-182 237l182 237l39 -31l-159 -206z"/>
<glyph glyph-name="guilsinglright" horiz-adv-x="369" unicode="›" d="M300 305l-181 -237l-39 31l158 206l-158 206l39 31z"/>
<glyph glyph-name="fraction" horiz-adv-x="149" unicode="⁄" d="M286 713l-383 -724l-40 22l384 724z"/>
<glyph glyph-name="uni2070" d="M279 712q0 80 -23.5 130t-71.5 50t-71.5 -50t-23.5 -130t23.5 -129.5t71.5 -49.5t71.5 49.5t23.5 129.5zM327 712q0 -97 -36 -158.5t-107 -61.5t-107 61.5t-36 158.5t36 158.5t107 61.5t107 -61.5t36 -158.5z" unicode="⁰"/>
<glyph glyph-name="uni2074" d="M239 881h-2q-10 -23 -23 -41l-136 -192h159v186zM332 611h-52v-111h-44v111h-204v37l198 276h50v-276h52v-37z" unicode="⁴"/>
<glyph glyph-name="uni2075" d="M318 624q0 -59 -46 -95.5t-118 -36.5q-61 0 -117 25l17 37q45 -21 100 -21q53 0 84.5 24.5t31.5 66.5q0 93 -134 93q-38 0 -72 -5l24 212h222v-42h-180l-15 -127q11 1 31 1q84 0 128 -34.5t44 -97.5z" unicode="⁵"/>
<glyph glyph-name="uni2076" d="M281 624q0 44 -28.5 67.5t-75.5 23.5q-44 0 -84 -17q-6 -30 -6 -46q0 -52 26.5 -85.5t73.5 -33.5q41 0 67.5 27t26.5 64zM329 624q0 -54 -40 -93t-102 -39q-70 0 -108 46t-38 114q0 91 62.5 170.5t173.5 109.5l15 -40q-65 -17 -114.5 -57t-72.5 -95q40 14 75 14 q66 0 107.5 -34.5t41.5 -95.5z" unicode="⁶"/>
<glyph glyph-name="uni2077" d="M338 924l-202 -424h-53l187 382h-232v42h300z" unicode="⁷"/>
<glyph glyph-name="uni2078" d="M281 603q0 35 -24.5 56.5t-72.5 41.5q-48 -20 -72.5 -41.5t-24.5 -56.5q0 -33 26.5 -52.5t70.5 -19.5t70.5 19.5t26.5 52.5zM270 826q0 29 -23.5 48.5t-62.5 19.5t-62.5 -19.5t-23.5 -48.5q0 -30 22 -49t64 -37q42 18 64 37t22 49zM328 602q0 -50 -40.5 -80t-103.5 -30 t-103.5 29.5t-40.5 80.5q0 75 98 119q-85 41 -85 105q0 47 36.5 76.5t94.5 29.5t94.5 -30t36.5 -76q0 -64 -85 -105q98 -44 98 -119z" unicode="⁸"/>
<glyph glyph-name="uni2079" d="M281 773q0 52 -26.5 85t-73.5 33q-41 0 -67.5 -27t-26.5 -64q0 -44 28.5 -67.5t75.5 -23.5q44 0 84 17q6 30 6 47zM327 772q0 -91 -62.5 -170.5t-173.5 -109.5l-15 40q65 17 114.5 57t72.5 95q-40 -14 -75 -14q-66 0 -107.5 34.5t-41.5 95.5q0 54 40 93t102 39 q70 0 108 -46t38 -114z" unicode="⁹"/>
<glyph glyph-name="uni207A" d="M315 693h-109v-111h-44v111h-109v42h109v111h44v-111h109v-42z" unicode="⁺"/>
<glyph glyph-name="uni207B" d="M315 693h-262v42h262v-42z" unicode="⁻"/>
<glyph glyph-name="uni207C" d="M315 636h-262v42h262v-42zM315 750h-262v43h262v-43z" unicode="⁼"/>
<glyph glyph-name="uni207D" horiz-adv-x="253" unicode="⁽" d="M222 426l-36 -22q-122 155 -122 308t122 308l36 -22q-109 -143 -109 -286t109 -286z"/>
<glyph glyph-name="uni207E" horiz-adv-x="253" unicode="⁾" d="M190 712q0 -153 -122 -308l-37 22q109 143 109 286t-109 286l37 22q122 -155 122 -308z"/>
<glyph glyph-name="uni207F" horiz-adv-x="406" unicode="ⁿ" d="M347 500h-48v262q0 43 -25.5 67t-75.5 24q-52 0 -91 -15v-338h-47v365q61 28 138 28q72 0 110.5 -34t38.5 -97v-262z"/>
<glyph glyph-name="uni2080" d="M279 -3q0 80 -23.5 130t-71.5 50t-71.5 -50t-23.5 -130t23.5 -129.5t71.5 -49.5t71.5 49.5t23.5 129.5zM327 -3q0 -97 -36 -158.5t-107 -61.5t-107 61.5t-36 158.5t36 158.5t107 61.5t107 -61.5t36 -158.5z" unicode="₀"/>
<glyph glyph-name="uni2081" d="M254 -215h-48v363q-48 -30 -130 -46l-10 40q42 7 85 25t66 42h37v-424z" unicode="₁"/>
<glyph glyph-name="uni2082" d="M317 -215h-300l189 208q52 56 52 98q0 39 -25.5 62t-73.5 23q-53 0 -102 -22l-15 38q60 25 118 25q70 0 108 -34.5t38 -90.5t-64 -124l-133 -141h208v-42z" unicode="₂"/>
<glyph glyph-name="uni2083" d="M314 -96q0 -58 -43.5 -92.5t-116.5 -34.5q-65 0 -120 25l16 38q51 -22 104 -22q54 0 83.5 22t29.5 64t-37 65t-101 23h-17v37q63 4 99.5 26t36.5 55q0 66 -91 66q-48 0 -96 -21l-18 37q58 25 117 25q64 0 100 -28t36 -78q0 -63 -83 -93v-2q41 -11 71 -39t30 -73z" unicode="₃"/>
<glyph glyph-name="uni2084" d="M239 166h-2q-10 -23 -23 -41l-136 -192h159v186zM332 -104h-52v-111h-44v111h-204v37l198 276h50v-276h52v-37z" unicode="₄"/>
<glyph glyph-name="uni2085" d="M318 -91q0 -59 -46 -95.5t-118 -36.5q-61 0 -117 25l17 37q45 -21 100 -21q53 0 84.5 24.5t31.5 66.5q0 93 -134 93q-38 0 -72 -5l24 212h222v-42h-180l-15 -127q11 1 31 1q84 0 128 -34.5t44 -97.5z" unicode="₅"/>
<glyph glyph-name="uni2086" d="M281 -91q0 44 -28.5 67.5t-75.5 23.5q-44 0 -84 -17q-6 -30 -6 -46q0 -53 26.5 -86t73.5 -33q41 0 67.5 27t26.5 64zM329 -91q0 -54 -40 -93t-102 -39q-70 0 -108 46t-38 114q0 91 62.5 170.5t173.5 109.5l15 -40q-65 -17 -114.5 -57t-72.5 -95q40 14 75 14 q66 0 107.5 -34.5t41.5 -95.5z" unicode="₆"/>
<glyph glyph-name="uni2087" d="M338 209l-202 -424h-53l187 382h-232v42h300z" unicode="₇"/>
<glyph glyph-name="uni2088" d="M281 -112q0 35 -24.5 56.5t-72.5 41.5q-48 -20 -72.5 -41.5t-24.5 -56.5q0 -33 26.5 -52.5t70.5 -19.5t70.5 19.5t26.5 52.5zM270 111q0 29 -23.5 48.5t-62.5 19.5t-62.5 -19.5t-23.5 -48.5q0 -30 22 -49t64 -37q42 18 64 37t22 49zM328 -113q0 -50 -40.5 -80t-103.5 -30 t-103.5 29.5t-40.5 80.5q0 75 98 119q-85 41 -85 105q0 47 36.5 76.5t94.5 29.5t94.5 -30t36.5 -76q0 -64 -85 -105q98 -44 98 -119z" unicode="₈"/>
<glyph glyph-name="uni2089" d="M281 58q0 52 -26.5 85t-73.5 33q-41 0 -67.5 -27t-26.5 -64q0 -44 28.5 -67.5t75.5 -23.5q44 0 84 17q6 30 6 47zM327 57q0 -91 -62.5 -170.5t-173.5 -109.5l-15 40q65 17 114.5 57t72.5 95q-40 -14 -75 -14q-66 0 -107.5 34.5t-41.5 95.5q0 54 40 93t102 39 q70 0 108 -46t38 -114z" unicode="₉"/>
<glyph glyph-name="uni208A" d="M315 -22h-109v-111h-44v111h-109v42h109v111h44v-111h109v-42z" unicode="₊"/>
<glyph glyph-name="uni208B" d="M315 -22h-262v42h262v-42z" unicode="₋"/>
<glyph glyph-name="uni208C" d="M315 -79h-262v42h262v-42zM315 35h-262v43h262v-43z" unicode="₌"/>
<glyph glyph-name="uni208D" horiz-adv-x="253" unicode="₍" d="M222 -289l-36 -22q-122 155 -122 308t122 308l36 -22q-109 -143 -109 -286t109 -286z"/>
<glyph glyph-name="uni208E" horiz-adv-x="253" unicode="₎" d="M190 -3q0 -153 -122 -308l-37 22q109 143 109 286t-109 286l37 22q122 -155 122 -308z"/>
<glyph glyph-name="Euro" horiz-adv-x="713" unicode="€" d="M663 27q-61 -37 -171 -37q-114 0 -198.5 68.5t-108.5 200.5h-116v40h111q-4 40 -4 63q0 41 4 70h-111v40h118q26 128 109 195t196 67q110 0 171 -37l-23 -47q-52 32 -146 32q-90 0 -157.5 -52.5t-90.5 -157.5h304v-40h-311q-5 -37 -5 -70q0 -23 4 -63h312v-40h-305 q22 -108 90 -162.5t159 -54.5q94 0 146 32z"/>
<glyph glyph-name="afii61289" horiz-adv-x="305" unicode="ℓ" d="M264 1q-14 -6 -43 -6q-62 0 -100 34.5t-38 100.5v655h59v-653q0 -43 24.5 -64t63.5 -21q21 0 34 5v-51z"/>
<glyph glyph-name="afii61352" horiz-adv-x="1086" unicode="№" d="M979 549q0 65 -28 104t-80 39t-80.5 -39.5t-28.5 -103.5q0 -65 28.5 -104.5t80.5 -39.5t80 39.5t28 104.5zM611 0h-65l-364 577l-41 77h-2q2 -46 2 -86v-568h-56v724h68l359 -568l42 -76h2q-1 46 -1 87v557h56v-724zM1019 233h-296v43h296v-43zM1029 549 q0 -82 -41.5 -134t-116.5 -52t-116.5 52t-41.5 134t41.5 133.5t116.5 51.5t116.5 -51.5t41.5 -133.5z"/>
<glyph glyph-name="uni2117" horiz-adv-x="878" unicode="℗" d="M764 362q0 137 -94.5 233t-230.5 96t-230.5 -96t-94.5 -233t94.5 -233t230.5 -96t230.5 96t94.5 233zM812 362q0 -155 -108.5 -263.5t-264.5 -108.5t-264.5 108.5t-108.5 263.5t108.5 263.5t264.5 108.5t264.5 -108.5t108.5 -263.5zM549 453q0 88 -111 88q-39 0 -69 -14 v-159q21 -3 51 -3q62 0 95.5 24t33.5 64zM596 453q0 -57 -47 -92t-128 -35q-31 0 -52 3v-175h-47v401q48 25 116 25q74 0 116 -34t42 -93z"/>
<glyph glyph-name="trademark" horiz-adv-x="954" unicode="™" d="M359 682h-127v-388h-49v388h-126v42h302v-42zM887 294h-47l-46 336l-4 50h-2q-6 -27 -13 -50l-110 -336h-50l-110 336l-13 50h-2q-1 -27 -4 -50l-46 -336h-47l61 430h66l106 -326l13 -50h2q6 27 13 50l106 326h66z"/>
<glyph glyph-name="uni2126" horiz-adv-x="684" unicode="Ω" d="M630 0h-229v44q156 159 156 364q0 117 -56 194.5t-159 77.5t-159 -77.5t-56 -194.5q0 -205 156 -364v-44h-229v51h161q-149 161 -149 361q0 88 30.5 160t94 117t151.5 45q131 0 204 -93t73 -229q0 -200 -149 -361h160v-51z"/>
<glyph glyph-name="estimated" horiz-adv-x="932" unicode="℮" d="M702 387v231q-94 79 -236 79t-236 -79v-231h472zM862 347h-632v-241q94 -79 236 -79q186 0 285 129l33 -28q-113 -141 -318 -141q-95 0 -172.5 32t-125 85t-73 119t-25.5 138t25.5 138t73 120t125 86t172.5 32t172.5 -32t125 -85.5t73 -119.5t25.5 -138v-15z"/>
<glyph glyph-name="onethird" horiz-adv-x="828" unicode="⅓" d="M777 119q0 -58 -43.5 -92.5t-116.5 -34.5q-65 0 -120 25l16 38q51 -22 104 -22q54 0 83.5 22t29.5 64t-37 65t-101 23h-17v37q63 4 99.5 26t36.5 55q0 66 -91 66q-48 0 -96 -21l-18 37q58 25 117 25q64 0 100 -28t36 -78q0 -63 -83 -93v-2q41 -11 71 -39t30 -73zM211 300 h-48v363q-48 -30 -129 -46l-11 40q105 19 152 67h36v-424zM588 713l-383 -724l-40 22l385 724z"/>
<glyph glyph-name="twothirds" horiz-adv-x="828" unicode="⅔" d="M786 119q0 -58 -43.5 -92.5t-116.5 -34.5q-65 0 -120 25l16 38q51 -22 104 -22q54 0 83.5 22t29.5 64t-37 65t-101 23h-17v37q63 4 99.5 26t36.5 55q0 66 -91 66q-48 0 -96 -21l-18 37q58 25 117 25q64 0 100 -28t36 -78q0 -63 -83 -93v-2q41 -11 71 -39t30 -73zM312 300 h-300l190 208q52 56 52 98q0 39 -26 62t-74 23q-52 0 -101 -22l-15 38q60 25 118 25q70 0 108 -34.5t38 -90.5t-64 -124l-133 -141h207v-42zM630 713l-384 -724l-39 22l384 724z"/>
<glyph glyph-name="uni2155" horiz-adv-x="828" unicode="⅕" d="M211 300h-48v363q-48 -30 -129 -46l-11 40q105 19 152 67h36v-424zM590 713l-383 -724l-40 22l384 724zM778 124q0 -59 -46 -95.5t-118 -36.5q-61 0 -117 25l17 37q45 -21 100 -21q53 0 84.5 24.5t31.5 66.5q0 93 -134 93q-38 0 -72 -5l24 212h222v-42h-180l-15 -127 q11 1 31 1q84 0 128 -34.5t44 -97.5z"/>
<glyph glyph-name="uni2156" horiz-adv-x="828" unicode="⅖" d="M312 300h-300l190 208q52 56 52 98q0 39 -26 62t-74 23q-52 0 -101 -22l-15 38q60 25 118 25q70 0 108 -34.5t38 -90.5t-64 -124l-133 -141h207v-42zM642 713l-383 -724l-40 22l385 724zM786 124q0 -59 -46 -95.5t-118 -36.5q-61 0 -117 25l17 37q45 -21 100 -21 q53 0 84.5 24.5t31.5 66.5q0 93 -134 93q-38 0 -72 -5l24 212h222v-42h-180l-15 -127q11 1 31 1q84 0 128 -34.5t44 -97.5z"/>
<glyph glyph-name="uni2157" horiz-adv-x="828" unicode="⅗" d="M311 419q0 -58 -43.5 -92.5t-116.5 -34.5q-65 0 -120 25l16 38q51 -22 104 -22q54 0 83.5 22t29.5 64t-37 65t-101 23h-17v37q63 4 99.5 26t36.5 55q0 66 -91 66q-48 0 -96 -21l-18 37q58 25 117 25q64 0 100 -28t36 -78q0 -63 -83 -93v-2q41 -11 71 -39t30 -73zM621 713 l-384 -724l-39 22l384 724zM778 124q0 -59 -46 -95.5t-118 -36.5q-61 0 -117 25l17 37q45 -21 100 -21q53 0 84.5 24.5t31.5 66.5q0 93 -134 93q-38 0 -72 -5l24 212h222v-42h-180l-15 -127q11 1 31 1q84 0 128 -34.5t44 -97.5z"/>
<glyph glyph-name="uni2158" horiz-adv-x="828" unicode="⅘" d="M239 681h-2q-10 -23 -23 -41l-136 -192h159v186zM332 411h-52v-111h-44v111h-204v37l198 276h50v-276h52v-37zM630 713l-384 -724l-39 22l384 724zM778 124q0 -59 -46 -95.5t-118 -36.5q-61 0 -117 25l17 37q45 -21 100 -21q53 0 84.5 24.5t31.5 66.5q0 93 -134 93 q-38 0 -72 -5l24 212h222v-42h-180l-15 -127q11 1 31 1q84 0 128 -34.5t44 -97.5z"/>
<glyph glyph-name="uni2159" horiz-adv-x="828" unicode="⅙" d="M730 124q0 44 -28.5 67.5t-75.5 23.5q-44 0 -84 -17q-6 -30 -6 -46q0 -52 26.5 -85.5t73.5 -33.5q41 0 67.5 27t26.5 64zM211 300h-48v363q-48 -30 -129 -46l-11 40q105 19 152 67h36v-424zM605 713l-384 -724l-39 22l384 724zM777 124q0 -54 -39.5 -93t-101.5 -39 q-70 0 -108 46t-38 114q0 91 62.5 170.5t173.5 109.5l15 -40q-65 -17 -114.5 -57t-72.5 -95q40 14 75 14q66 0 107 -34.5t41 -95.5z"/>
<glyph glyph-name="uni215A" horiz-adv-x="828" unicode="⅚" d="M730 124q0 44 -28.5 67.5t-75.5 23.5q-44 0 -84 -17q-6 -30 -6 -46q0 -52 26.5 -85.5t73.5 -33.5q41 0 67.5 27t26.5 64zM315 424q0 -59 -46 -95.5t-118 -36.5q-61 0 -117 25l17 37q45 -21 100 -21q53 0 84.5 24.5t31.5 66.5q0 93 -134 93q-38 0 -72 -5l24 212h222v-42 h-180l-15 -127q11 1 31 1q84 0 128 -34.5t44 -97.5zM640 713l-383 -724l-40 22l385 724zM777 124q0 -54 -39.5 -93t-101.5 -39q-70 0 -108 46t-38 114q0 91 62.5 170.5t173.5 109.5l15 -40q-65 -17 -114.5 -57t-72.5 -95q40 14 75 14q66 0 107 -34.5t41 -95.5z"/>
<glyph glyph-name="oneeighth" horiz-adv-x="828" unicode="⅛" d="M732 103q0 35 -25 56t-73 41q-48 -20 -72.5 -41t-24.5 -56q0 -33 26.5 -52.5t70.5 -19.5t71 19.5t27 52.5zM720 326q0 29 -23.5 48.5t-62.5 19.5t-62 -19.5t-23 -48.5q0 -30 21.5 -48.5t63.5 -36.5q42 18 64 36.5t22 48.5zM211 300h-48v363q-48 -30 -129 -46l-11 40 q105 19 152 67h36v-424zM586 713l-384 -724l-39 22l384 724zM778 102q0 -50 -40.5 -80t-103.5 -30t-103 29.5t-40 80.5q0 76 96 119q-84 40 -84 105q0 47 36.5 76.5t94.5 29.5t94.5 -30t36.5 -76q0 -65 -84 -105q97 -44 97 -119z"/>
<glyph glyph-name="threeeighths" horiz-adv-x="828" unicode="⅜" d="M311 419q0 -58 -43.5 -92.5t-116.5 -34.5q-65 0 -120 25l16 38q51 -22 104 -22q54 0 83.5 22t29.5 64t-37 65t-101 23h-17v37q63 4 99.5 26t36.5 55q0 66 -91 66q-48 0 -96 -21l-18 37q58 25 117 25q64 0 100 -28t36 -78q0 -63 -83 -93v-2q41 -11 71 -39t30 -73zM732 103 q0 35 -25 56t-73 41q-48 -20 -72.5 -41t-24.5 -56q0 -33 26.5 -52.5t70.5 -19.5t71 19.5t27 52.5zM720 326q0 29 -23.5 48.5t-62.5 19.5t-62 -19.5t-23 -48.5q0 -30 21.5 -48.5t63.5 -36.5q42 18 64 36.5t22 48.5zM614 713l-384 -724l-39 22l384 724zM778 102 q0 -50 -40.5 -80t-103.5 -30t-103 29.5t-40 80.5q0 76 96 119q-84 40 -84 105q0 47 36.5 76.5t94.5 29.5t94.5 -30t36.5 -76q0 -65 -84 -105q97 -44 97 -119z"/>
<glyph glyph-name="fiveeighths" horiz-adv-x="828" unicode="⅝" d="M732 103q0 35 -25 56t-73 41q-48 -20 -72.5 -41t-24.5 -56q0 -33 26.5 -52.5t70.5 -19.5t71 19.5t27 52.5zM720 326q0 29 -23.5 48.5t-62.5 19.5t-62 -19.5t-23 -48.5q0 -30 21.5 -48.5t63.5 -36.5q42 18 64 36.5t22 48.5zM315 424q0 -59 -46 -95.5t-118 -36.5 q-61 0 -117 25l17 37q45 -21 100 -21q53 0 84.5 24.5t31.5 66.5q0 93 -134 93q-38 0 -72 -5l24 212h222v-42h-180l-15 -127q11 1 31 1q84 0 128 -34.5t44 -97.5zM617 713l-383 -724l-40 22l384 724zM778 102q0 -50 -40.5 -80t-103.5 -30t-103 29.5t-40 80.5q0 76 96 119 q-84 40 -84 105q0 47 36.5 76.5t94.5 29.5t94.5 -30t36.5 -76q0 -65 -84 -105q97 -44 97 -119z"/>
<glyph glyph-name="seveneighths" horiz-adv-x="828" unicode="⅞" d="M732 103q0 35 -25 56t-73 41q-48 -20 -72.5 -41t-24.5 -56q0 -33 26.5 -52.5t70.5 -19.5t71 19.5t27 52.5zM720 326q0 29 -23.5 48.5t-62.5 19.5t-62 -19.5t-23 -48.5q0 -30 21.5 -48.5t63.5 -36.5q42 18 64 36.5t22 48.5zM350 724l-195 -424h-53l181 382h-226v42h293z M584 713l-383 -724l-40 22l385 724zM778 102q0 -50 -40.5 -80t-103.5 -30t-103 29.5t-40 80.5q0 76 96 119q-84 40 -84 105q0 47 36.5 76.5t94.5 29.5t94.5 -30t36.5 -76q0 -65 -84 -105q97 -44 97 -119z"/>
<glyph glyph-name="uni215F" horiz-adv-x="480" unicode="⅟" d="M211 300h-48v363q-48 -30 -129 -46l-11 40q105 19 152 67h36v-424zM617 713l-383 -724l-40 22l384 724z"/>
<glyph glyph-name="arrowleft" horiz-adv-x="983" unicode="←" d="M987 300h-809l192 -185l-39 -39l-248 249l248 249l39 -39l-192 -185h809v-50z"/>
<glyph glyph-name="arrowup" horiz-adv-x="670" unicode="↑" d="M584 548l-39 -39l-182 189v-698h-56v698l-182 -189l-39 39l249 248z"/>
<glyph glyph-name="arrowright" horiz-adv-x="983" unicode="→" d="M900 325l-249 -249l-38 39l192 185h-809v50h809l-192 185l38 39z"/>
<glyph glyph-name="arrowdown" horiz-adv-x="670" unicode="↓" d="M584 237l-249 -248l-249 248l39 39l182 -189v698h56v-698l182 189z"/>
<glyph glyph-name="arrowboth" horiz-adv-x="1365" unicode="↔" d="M1283 325l-249 -249l-38 39l192 185h-1010l192 -185l-39 -39l-248 249l248 249l39 -39l-192 -185h1010l-192 185l38 39z"/>
<glyph glyph-name="uni2196" horiz-adv-x="739" unicode="↖" d="M670 262l-38 -38l-475 474l6 -264h-56v351h351v-52l-265 6z"/>
<glyph glyph-name="uni2197" horiz-adv-x="739" unicode="↗" d="M633 434h-56l5 264l-475 -474l-38 38l477 477l-264 -6v52h351v-351z"/>
<glyph glyph-name="uni2198" horiz-adv-x="739" unicode="↘" d="M633 -215h-351v52l264 -6l-477 477l38 38l475 -474l-5 264h56v-351z"/>
<glyph glyph-name="uni2199" horiz-adv-x="739" unicode="↙" d="M670 308l-477 -477l265 6v-52h-351v351h56l-6 -264l475 474z"/>
<glyph glyph-name="carriagereturn" horiz-adv-x="950" unicode="↵" d="M849 0h-689l192 -185l-39 -38l-248 248l248 249l39 -38l-192 -185h634v335h-185v51h240v-437z"/>
<glyph glyph-name="uni21E6" horiz-adv-x="994" unicode="⇦" d="M840 233v258h-411v162l-292 -291l292 -291v162h411zM893 185h-413v-185h-53l-362 362l362 362h53v-185h413v-354z"/>
<glyph glyph-name="uni21E7" horiz-adv-x="878" unicode="⇧" d="M728 434l-289 289l-289 -289h156v-386h266v386h156zM801 386h-177v-386h-370v386h-177v47l362 362l362 -362v-47z"/>
<glyph glyph-name="uni21E8" horiz-adv-x="994" unicode="⇨" d="M856 362l-291 291v-162h-411v-258h411v-162zM929 362l-362 -362h-54v185h-412v354h412v185h54z"/>
<glyph glyph-name="uni21E9" horiz-adv-x="878" unicode="⇩" d="M728 290h-156v386h-266v-386h-156l289 -289zM801 291l-362 -362l-362 362v47h177v386h370v-386h177v-47z"/>
<glyph glyph-name="partialdiff" horiz-adv-x="559" unicode="∂" d="M441 276q0 54 -15 108q-53 19 -115 19q-83 0 -139.5 -55.5t-56.5 -145.5q0 -73 40.5 -118t109.5 -45q81 0 128.5 68.5t47.5 168.5zM500 276q0 -121 -64 -203.5t-173 -82.5q-94 0 -150.5 59.5t-56.5 152.5q0 108 72 177.5t177 69.5q55 0 103 -16q-76 176 -272 254l22 48 q164 -64 253 -195t89 -264z"/>
<glyph glyph-name="uni2206" horiz-adv-x="653" unicode="∆" d="M546 50l-195 542l-24 82h-2q-9 -44 -23 -82l-195 -542h439zM626 0h-599l265 724h69z"/>
<glyph glyph-name="product" horiz-adv-x="833" unicode="∏" d="M776 671h-125v-886h-61v886h-347v-886h-61v886h-125v53h719v-53z"/>
<glyph glyph-name="summation" horiz-adv-x="571" unicode="∑" d="M528 -215h-502v44l295 456l-274 397v42h481v-53h-406l267 -386l-290 -447h429v-53z"/>
<glyph glyph-name="minus" horiz-adv-x="573" unicode="−" d="M497 300h-421v50h421v-50z"/>
<glyph glyph-name="uni2215" horiz-adv-x="149" unicode="∕" d="M286 713l-383 -724l-40 22l384 724z"/>
<glyph glyph-name="uni2219" horiz-adv-x="244" unicode="∙" d="M167 325q0 -19 -13 -32t-32 -13t-32 13t-13 32t13 32t32 13t32 -13t13 -32z"/>
<glyph glyph-name="radical" horiz-adv-x="774" unicode="√" d="M708 785l-325 -1000h-65l-189 515h-100v50h143l152 -422l25 -80h2q8 43 20 80l272 857h65z"/>
<glyph glyph-name="infinity" horiz-adv-x="951" unicode="∞" d="M448 325q-18 38 -26 54t-26.5 45.5t-34.5 42t-41.5 23.5t-55.5 11q-64 0 -105 -48.5t-41 -127.5t41 -127.5t105 -48.5q30 0 55.5 11t41.5 23.5t34.5 42t26.5 45.5t26 54zM833 325q0 79 -41 127.5t-105 48.5q-30 0 -55.5 -11t-41.5 -23.5t-34.5 -42t-26.5 -45.5t-26 -54 q18 -38 26 -54t26.5 -45.5t34.5 -42t41.5 -23.5t55.5 -11q64 0 105 48.5t41 127.5zM888 325q0 -99 -55.5 -162.5t-143.5 -63.5q-43 0 -77 13t-59.5 40.5t-41.5 53t-36 66.5q-20 -41 -35.5 -66t-41 -53t-59.5 -41t-77 -13q-88 0 -143.5 63.5t-55.5 162.5t55.5 162.5 t143.5 63.5q43 0 77 -13t59.5 -41t41 -53t35.5 -66q20 41 36 66.5t41.5 53t59.5 40.5t77 13q88 0 143.5 -63.5t55.5 -162.5z"/>
<glyph glyph-name="uni2224" horiz-adv-x="244" unicode="∤" d="M167 325q0 -19 -13 -32t-32 -13t-32 13t-13 32t13 32t32 13t32 -13t13 -32z"/>
<glyph glyph-name="logicaland" horiz-adv-x="244" unicode="∧" d="M167 325q0 -19 -13 -32t-32 -13t-32 13t-13 32t13 32t32 13t32 -13t13 -32z"/>
<glyph glyph-name="integral" horiz-adv-x="388" unicode="∫" d="M372 780l-17 -48q-14 6 -34 6q-44 0 -70.5 -28t-26.5 -83v-684q0 -77 -41.5 -120t-111.5 -43q-32 0 -55 10l17 48q14 -6 34 -6q44 0 70.5 28t26.5 83v684q0 77 41.5 120t111.5 43q32 0 55 -10z"/>
<glyph glyph-name="approxequal" horiz-adv-x="573" unicode="≈" d="M503 251q-16 -39 -47.5 -61t-72.5 -22q-40 0 -99 34t-91 34q-63 0 -92 -64l-31 32q16 39 47.5 61t72.5 22q40 0 99 -34t91 -34q63 0 92 64zM503 446q-16 -39 -47.5 -61t-72.5 -22q-40 0 -99 34t-91 34q-63 0 -92 -64l-31 32q16 39 47.5 61t72.5 22q40 0 99 -34t91 -34 q63 0 92 64z"/>
<glyph glyph-name="notequal" horiz-adv-x="573" unicode="≠" d="M497 202h-249l-65 -125l-36 19l56 106h-127v51h152l74 144h-226v51h252l60 115l36 -18l-51 -97h124v-51h-149l-75 -144h224v-51z"/>
<glyph glyph-name="lessequal" horiz-adv-x="573" unicode="≤" d="M497 0h-421v49h421v-49zM497 162l-421 177v42l421 177v-54l-359 -144l359 -144v-54z"/>
<glyph glyph-name="greaterequal" horiz-adv-x="573" unicode="≥" d="M497 0h-421v49h421v-49zM497 339l-421 -177v54l360 144l-360 144v54l421 -177v-42z"/>
<glyph glyph-name="dotmath" horiz-adv-x="244" unicode="⋅" d="M167 325q0 -19 -13 -32t-32 -13t-32 13t-13 32t13 32t32 13t32 -13t13 -32z"/>
<glyph glyph-name="uni2300" horiz-adv-x="943" unicode="⌀" d="M790 362q0 116 -76 205l-449 -448q89 -78 206 -78q132 0 225.5 94t93.5 227zM677 605q-89 78 -206 78q-132 0 -225 -94t-93 -227q0 -117 75 -205zM868 720l-115 -113q93 -104 93 -245q0 -154 -110 -263t-265 -109q-141 0 -244 90l-114 -113l-38 37l114 114 q-93 106 -93 244q0 154 110 263t265 109q138 0 244 -91l115 115z"/>
<glyph glyph-name="uni2318" horiz-adv-x="935" unicode="⌘" d="M330 150v77h-76q-56 0 -86.5 -27.5t-30.5 -73.5q0 -41 27 -68t67 -27q47 0 73 32t26 87zM330 497v77q0 55 -26 87t-73 32q-40 0 -67 -27t-27 -68q0 -46 30.5 -73.5t86.5 -27.5h76zM559 268v188h-184v-188h184zM797 126q0 46 -30.5 73.5t-86.5 27.5h-76v-77 q0 -55 26.5 -87t73.5 -32q40 0 66.5 27t26.5 68zM797 598q0 41 -26.5 68t-66.5 27q-47 0 -73.5 -32t-26.5 -87v-77h76q56 0 86.5 27.5t30.5 73.5zM842 126q0 -58 -39.5 -97t-98.5 -39q-68 0 -106.5 43.5t-38.5 116.5v77h-184v-77q0 -73 -38.5 -116.5t-106.5 -43.5 q-59 0 -98.5 39t-39.5 97q0 64 43.5 103t118.5 39h76v188h-76q-75 0 -118.5 39t-43.5 103q0 58 39.5 97t98.5 39q68 0 106.5 -43.5t38.5 -116.5v-77h184v77q0 73 38.5 116.5t106.5 43.5q59 0 98.5 -39t39.5 -97q0 -64 -43.5 -103t-118.5 -39h-76v-188h76q75 0 118.5 -39 t43.5 -103z"/>
<glyph glyph-name="uni2324" horiz-adv-x="917" unicode="⌤" d="M777 352l-37 -37l-281 281l-281 -281l-38 37l319 319zM829 673h-740v51h740v-51z"/>
<glyph glyph-name="uni2325" horiz-adv-x="917" unicode="⌥" d="M831 0h-414l-167 386h-179v51h218l166 -386h376v-51zM831 386h-393v51h393v-51z"/>
<glyph glyph-name="uni2326" horiz-adv-x="1262" unicode="⌦" d="M758 183l-35 -37l-183 183l-182 -183l-36 37l182 182l-182 181l36 37l182 -183l183 183l35 -37l-181 -181zM1125 362l-314 314h-658v-628h658zM1197 362l-362 -362h-734v724h734z"/>
<glyph glyph-name="uni232B" horiz-adv-x="1262" unicode="⌫" d="M940 183l-36 -37l-183 183l-182 -183l-36 37l182 182l-182 181l36 37l182 -183l183 183l36 -37l-182 -181zM1108 48v628h-657l-314 -314l314 -314h657zM1161 0h-734l-362 362l362 362h734v-724z"/>
<glyph glyph-name="uni2460" horiz-adv-x="946" unicode="①" d="M524 184h-48v363q-48 -30 -130 -46l-10 40q42 7 85 25t66 42h37v-424zM834 393q0 150 -106 255.5t-255 105.5t-255 -105.5t-106 -255.5t106 -255.5t255 -105.5t255 105.5t106 255.5zM880 393q0 -167 -119 -285t-288 -118t-288 118t-119 285t119 285t288 118t288 -118 t119 -285z"/>
<glyph glyph-name="uni2461" horiz-adv-x="946" unicode="②" d="M620 184h-301l190 208q52 56 52 98q0 39 -26 62t-74 23q-52 0 -101 -22l-15 38q60 25 118 25q70 0 108 -34.5t38 -90.5t-64 -124l-133 -141h208v-42zM834 393q0 150 -106 255.5t-255 105.5t-255 -105.5t-106 -255.5t106 -255.5t255 -105.5t255 105.5t106 255.5zM880 393 q0 -167 -119 -285t-288 -118t-288 118t-119 285t119 285t288 118t288 -118t119 -285z"/>
<glyph glyph-name="uni2462" horiz-adv-x="946" unicode="③" d="M621 303q0 -58 -43.5 -92.5t-116.5 -34.5q-65 0 -120 25l16 38q51 -22 104 -22q54 0 83.5 22t29.5 64t-37 65t-101 23h-17v37q63 4 99.5 26t36.5 55q0 66 -91 66q-48 0 -96 -21l-18 37q58 25 117 25q64 0 100 -28t36 -78q0 -63 -83 -93v-2q41 -11 71 -39t30 -73zM834 393 q0 150 -106 255.5t-255 105.5t-255 -105.5t-106 -255.5t106 -255.5t255 -105.5t255 105.5t106 255.5zM880 393q0 -167 -119 -285t-288 -118t-288 118t-119 285t119 285t288 118t288 -118t119 -285z"/>
<glyph glyph-name="uni2463" horiz-adv-x="946" unicode="④" d="M510 565h-2q-10 -23 -23 -41l-136 -192h159v186zM612 295h-61v-111h-44v111h-204v37l198 276h50v-276h61v-37zM834 393q0 150 -106 255.5t-255 105.5t-255 -105.5t-106 -255.5t106 -255.5t255 -105.5t255 105.5t106 255.5zM880 393q0 -167 -119 -285t-288 -118t-288 118 t-119 285t119 285t288 118t288 -118t119 -285z"/>
<glyph glyph-name="uni2464" horiz-adv-x="946" unicode="⑤" d="M607 308q0 -59 -46 -95.5t-118 -36.5q-61 0 -117 25l17 37q45 -21 100 -21q53 0 84.5 24.5t31.5 66.5q0 93 -134 93q-38 0 -72 -5l24 212h222v-42h-180l-15 -127q11 1 31 1q84 0 128 -34.5t44 -97.5zM834 393q0 150 -106 255.5t-255 105.5t-255 -105.5t-106 -255.5 t106 -255.5t255 -105.5t255 105.5t106 255.5zM880 393q0 -167 -119 -285t-288 -118t-288 118t-119 285t119 285t288 118t288 -118t119 -285z"/>
<glyph glyph-name="uni2465" horiz-adv-x="946" unicode="⑥" d="M564 308q0 44 -29 67.5t-76 23.5q-44 0 -84 -17q-5 -25 -5 -46q0 -53 26 -86t73 -33q42 0 68.5 27t26.5 64zM611 308q0 -54 -40 -93t-102 -39q-69 0 -107 46t-38 114q0 91 62 170.5t173 109.5l15 -40q-65 -17 -114 -57t-72 -95q40 14 74 14q66 0 107.5 -34.5t41.5 -95.5z M834 393q0 150 -106 255.5t-255 105.5t-255 -105.5t-106 -255.5t106 -255.5t255 -105.5t255 105.5t106 255.5zM880 393q0 -167 -119 -285t-288 -118t-288 118t-119 285t119 285t288 118t288 -118t119 -285z"/>
<glyph glyph-name="uni2466" horiz-adv-x="946" unicode="⑦" d="M631 608l-202 -424h-53l187 382h-232v42h300zM834 393q0 150 -106 255.5t-255 105.5t-255 -105.5t-106 -255.5t106 -255.5t255 -105.5t255 105.5t106 255.5zM880 393q0 -167 -119 -285t-288 -118t-288 118t-119 285t119 285t288 118t288 -118t119 -285z"/>
<glyph glyph-name="uni2467" horiz-adv-x="946" unicode="⑧" d="M570 287q0 35 -24.5 56.5t-72.5 41.5q-48 -20 -73 -41.5t-25 -56.5q0 -33 27 -52.5t71 -19.5t70.5 19.5t26.5 52.5zM558 510q0 29 -23 48.5t-62 19.5t-62.5 -19.5t-23.5 -48.5q0 -30 22 -49t64 -37q42 18 63.5 37t21.5 49zM616 286q0 -50 -40 -80t-103 -30t-103.5 29.5 t-40.5 80.5q0 75 97 119q-85 41 -85 105q0 47 37 76.5t95 29.5t94.5 -30t36.5 -76q0 -64 -85 -105q97 -44 97 -119zM834 393q0 150 -106 255.5t-255 105.5t-255 -105.5t-106 -255.5t106 -255.5t255 -105.5t255 105.5t106 255.5zM880 393q0 -167 -119 -285t-288 -118 t-288 118t-119 285t119 285t288 118t288 -118t119 -285z"/>
<glyph glyph-name="uni2468" horiz-adv-x="946" unicode="⑨" d="M575 457q0 53 -26 85.5t-73 32.5q-42 0 -68.5 -27t-26.5 -64q0 -44 28.5 -67.5t75.5 -23.5q45 0 85 17q5 25 5 47zM621 456q0 -91 -62 -170.5t-173 -109.5l-15 40q65 17 114 57t72 95q-40 -14 -74 -14q-66 0 -107.5 34.5t-41.5 95.5q0 54 40 93t102 39q69 0 107 -46 t38 -114zM834 393q0 150 -106 255.5t-255 105.5t-255 -105.5t-106 -255.5t106 -255.5t255 -105.5t255 105.5t106 255.5zM880 393q0 -167 -119 -285t-288 -118t-288 118t-119 285t119 285t288 118t288 -118t119 -285z"/>
<glyph glyph-name="uni2469" horiz-adv-x="1254" unicode="⑩" d="M866 396q0 80 -23.5 130t-71.5 50t-71.5 -50t-23.5 -130t23.5 -129.5t71.5 -49.5t71.5 49.5t23.5 129.5zM503 184h-48v363q-48 -30 -130 -46l-10 40q42 7 85 25t66 42h37v-424zM915 396q0 -96 -36.5 -158t-107.5 -62t-107 61.5t-36 158.5t36 158.5t107 61.5t107.5 -62 t36.5 -158zM1142 393q0 150 -106 255.5t-255 105.5h-308q-149 0 -255 -105.5t-106 -255.5t106 -255.5t255 -105.5h308q149 0 255 105.5t106 255.5zM1188 393q0 -167 -119 -285t-288 -118h-308q-169 0 -288 118t-119 285t119 285t288 118h308q169 0 288 -118t119 -285z"/>
<glyph glyph-name="uni246A" horiz-adv-x="1254" unicode="⑪" d="M527 184h-48v363q-48 -30 -130 -46l-10 40q42 7 85 25t66 42h37v-424zM828 184h-48v363q-48 -30 -130 -46l-10 40q42 7 85 25t66 42h37v-424zM1142 393q0 150 -106 255.5t-255 105.5h-308q-149 0 -255 -105.5t-106 -255.5t106 -255.5t255 -105.5h308q149 0 255 105.5 t106 255.5zM1188 393q0 -167 -119 -285t-288 -118h-308q-169 0 -288 118t-119 285t119 285t288 118h308q169 0 288 -118t119 -285z"/>
<glyph glyph-name="uni246B" horiz-adv-x="1254" unicode="⑫" d="M502 184h-47v363q-48 -30 -130 -46l-10 40q42 7 85 25t66 42h36v-424zM900 184h-300l190 208q52 56 52 98q0 39 -26 62t-74 23q-52 0 -101 -22l-16 38q60 25 118 25q70 0 108.5 -34.5t38.5 -90.5t-64 -124l-133 -141h207v-42zM1142 393q0 150 -106 255.5t-255 105.5h-308 q-149 0 -255 -105.5t-106 -255.5t106 -255.5t255 -105.5h308q149 0 255 105.5t106 255.5zM1188 393q0 -167 -119 -285t-288 -118h-308q-169 0 -288 118t-119 285t119 285t288 118h308q169 0 288 -118t119 -285z"/>
<glyph glyph-name="uni246C" horiz-adv-x="1254" unicode="⑬" d="M900 303q0 -58 -43.5 -92.5t-116.5 -34.5q-65 0 -120 25l16 38q51 -22 104 -22q54 0 83.5 22t29.5 64t-37 65t-101 23h-17v37q63 4 99.5 26t36.5 55q0 66 -91 66q-48 0 -96 -21l-18 37q58 25 117 25q64 0 100 -28t36 -78q0 -63 -83 -93v-2q41 -11 71 -39t30 -73zM512 184 h-48v363q-48 -30 -130 -46l-10 40q42 7 85 25t66 42h37v-424zM1142 393q0 150 -106 255.5t-255 105.5h-308q-149 0 -255 -105.5t-106 -255.5t106 -255.5t255 -105.5h308q149 0 255 105.5t106 255.5zM1188 393q0 -167 -119 -285t-288 -118h-308q-169 0 -288 118t-119 285 t119 285t288 118h308q169 0 288 -118t119 -285z"/>
<glyph glyph-name="uni246D" horiz-adv-x="1254" unicode="⑭" d="M815 565h-2q-11 -23 -24 -41l-136 -192h160v186zM507 184h-48v363q-48 -30 -130 -46l-10 40q42 7 85 25t66 42h37v-424zM916 295h-60v-111h-45v111h-203v37l197 276h51v-276h60v-37zM1142 393q0 150 -106 255.5t-255 105.5h-308q-149 0 -255 -105.5t-106 -255.5 t106 -255.5t255 -105.5h308q149 0 255 105.5t106 255.5zM1188 393q0 -167 -119 -285t-288 -118h-308q-169 0 -288 118t-119 285t119 285t288 118h308q169 0 288 -118t119 -285z"/>
<glyph glyph-name="uni246E" horiz-adv-x="1254" unicode="⑮" d="M503 184h-48v363q-48 -30 -130 -46l-10 40q42 7 85 25t66 42h37v-424zM888 308q0 -59 -46 -95.5t-118 -36.5q-61 0 -117 25l17 37q45 -21 100 -21q53 0 84.5 24.5t31.5 66.5q0 93 -134 93q-38 0 -72 -5l24 212h222v-42h-180l-15 -127q11 1 31 1q84 0 128 -34.5t44 -97.5z M1142 393q0 150 -106 255.5t-255 105.5h-308q-149 0 -255 -105.5t-106 -255.5t106 -255.5t255 -105.5h308q149 0 255 105.5t106 255.5zM1188 393q0 -167 -119 -285t-288 -118h-308q-169 0 -288 118t-119 285t119 285t288 118h308q169 0 288 -118t119 -285z"/>
<glyph glyph-name="uni246F" horiz-adv-x="1254" unicode="⑯" d="M861 308q0 44 -28.5 67.5t-75.5 23.5q-45 0 -85 -17q-5 -25 -5 -46q0 -53 26 -86t73 -33q42 0 68.5 27t26.5 64zM503 184h-47v363q-48 -30 -130 -46l-10 40q42 7 85 25t66 42h36v-424zM908 308q0 -54 -40 -93t-102 -39q-69 0 -107 46t-38 114q0 91 62 170.5t173 109.5 l15 -40q-65 -17 -114 -57t-72 -95q40 14 74 14q66 0 107.5 -34.5t41.5 -95.5zM1142 393q0 150 -106 255.5t-255 105.5h-308q-149 0 -255 -105.5t-106 -255.5t106 -255.5t255 -105.5h308q149 0 255 105.5t106 255.5zM1188 393q0 -167 -119 -285t-288 -118h-308 q-169 0 -288 118t-119 285t119 285t288 118h308q169 0 288 -118t119 -285z"/>
<glyph glyph-name="uni2470" horiz-adv-x="1254" unicode="⑰" d="M503 184h-48v363q-48 -30 -130 -46l-10 40q42 7 85 25t66 42h37v-424zM914 608l-202 -424h-53l187 382h-231v42h299zM1142 393q0 150 -106 255.5t-255 105.5h-308q-149 0 -255 -105.5t-106 -255.5t106 -255.5t255 -105.5h308q149 0 255 105.5t106 255.5zM1188 393 q0 -167 -119 -285t-288 -118h-308q-169 0 -288 118t-119 285t119 285t288 118h308q169 0 288 -118t119 -285z"/>
<glyph glyph-name="uni2471" horiz-adv-x="1254" unicode="⑱" d="M861 287q0 35 -24.5 56.5t-72.5 41.5q-48 -20 -73 -41.5t-25 -56.5q0 -33 27 -52.5t71 -19.5t70.5 19.5t26.5 52.5zM849 510q0 29 -23 48.5t-62 19.5t-62.5 -19.5t-23.5 -48.5q0 -30 22 -49t64 -37q42 18 63.5 37t21.5 49zM503 184h-47v363q-48 -30 -130 -46l-10 40 q42 7 85 25t66 42h36v-424zM907 286q0 -50 -40 -80t-103 -30t-103.5 29.5t-40.5 80.5q0 75 97 119q-85 41 -85 105q0 47 37 76.5t95 29.5t94.5 -30t36.5 -76q0 -64 -85 -105q97 -44 97 -119zM1142 393q0 150 -106 255.5t-255 105.5h-308q-149 0 -255 -105.5t-106 -255.5 t106 -255.5t255 -105.5h308q149 0 255 105.5t106 255.5zM1188 393q0 -167 -119 -285t-288 -118h-308q-169 0 -288 118t-119 285t119 285t288 118h308q169 0 288 -118t119 -285z"/>
<glyph glyph-name="uni2472" horiz-adv-x="1254" unicode="⑲" d="M866 457q0 52 -26.5 85t-73.5 33q-41 0 -67.5 -27t-26.5 -64q0 -44 28.5 -67.5t75.5 -23.5q45 0 85 17q5 25 5 47zM503 184h-47v363q-48 -30 -130 -46l-10 40q42 7 85 25t66 42h36v-424zM912 456q0 -91 -62 -170.5t-173 -109.5l-15 40q65 17 114 57t72 95 q-40 -14 -74 -14q-66 0 -107.5 34.5t-41.5 95.5q0 54 39.5 93t101.5 39q70 0 108 -46t38 -114zM1142 393q0 150 -106 255.5t-255 105.5h-308q-149 0 -255 -105.5t-106 -255.5t106 -255.5t255 -105.5h308q149 0 255 105.5t106 255.5zM1188 393q0 -167 -119 -285t-288 -118 h-308q-169 0 -288 118t-119 285t119 285t288 118h308q169 0 288 -118t119 -285z"/>
<glyph glyph-name="uni2473" horiz-adv-x="1254" unicode="⑳" d="M910 396q0 80 -24 130t-72 50t-71.5 -50t-23.5 -130t23.5 -129.5t71.5 -49.5t72 49.5t24 129.5zM593 184h-299l189 208q52 56 52 98q0 39 -25.5 62t-73.5 23q-53 0 -102 -22l-15 38q60 25 118 25q70 0 108 -34.5t38 -90.5t-64 -124l-133 -141h207v-42zM958 396 q0 -96 -36.5 -158t-107.5 -62t-106.5 61.5t-35.5 158.5t35.5 158.5t106.5 61.5t107.5 -62t36.5 -158zM1142 393q0 150 -106 255.5t-255 105.5h-308q-149 0 -255 -105.5t-106 -255.5t106 -255.5t255 -105.5h308q149 0 255 105.5t106 255.5zM1188 393q0 -167 -119 -285 t-288 -118h-308q-169 0 -288 118t-119 285t119 285t288 118h308q169 0 288 -118t119 -285z"/>
<glyph glyph-name="lozenge" horiz-adv-x="742" unicode="◊" d="M617 362l-246 294l-246 -294l246 -294zM686 362l-315 -377l-315 377l315 377z"/>
<glyph glyph-name="uni2713" horiz-adv-x="875" unicode="✓" d="M781 708l-397 -721l-292 366l46 37l238 -307l353 653z"/>
<glyph glyph-name="parenleft.case" d="M318 -118l-45 -30q-94 121 -147 243t-53 267t53 267t147 243l45 -30q-182 -241 -182 -480t182 -480z" horiz-adv-x="360"/>
<glyph glyph-name="parenright.case" d="M287 362q0 -145 -53 -267t-147 -243l-45 30q182 241 182 480t-182 480l45 30q94 -121 147 -243t53 -267z" horiz-adv-x="360"/>
<glyph glyph-name="hyphen.case" d="M341 346h-266v56h266v-56z" horiz-adv-x="416"/>
<glyph glyph-name="bracketleft.case" d="M300 -128h-205v980h205v-49h-147v-882h147v-49z" horiz-adv-x="357"/>
<glyph glyph-name="bracketright.case" d="M262 -128h-205v49h147v882h-147v49h205v-980z" horiz-adv-x="357"/>
<glyph glyph-name="braceleft.case" d="M290 -128h-28q-71 0 -110.5 40.5t-39.5 113.5q0 47 9.5 100.5t9.5 95.5q0 50 -23 80t-63 34v52q40 4 63 34t23 80q0 42 -9.5 95.5t-9.5 100.5q0 73 39.5 113.5t110.5 40.5h28v-49h-24q-46 0 -71 -27.5t-25 -77.5q0 -47 9.5 -100.5t9.5 -95.5q0 -55 -23 -90.5t-61 -48.5 v-2q38 -13 61 -48.5t23 -90.5q0 -42 -9.5 -95.5t-9.5 -100.5q0 -50 25 -77.5t71 -27.5h24v-49z" horiz-adv-x="358"/>
<glyph glyph-name="braceright.case" d="M313 336q-40 -4 -63 -34t-23 -80q0 -42 9.5 -95.5t9.5 -100.5q0 -73 -39.5 -113.5t-110.5 -40.5h-28v49h24q46 0 71 27.5t25 77.5q0 47 -9.5 100.5t-9.5 95.5q0 55 23 90.5t61 48.5v2q-38 13 -61 48.5t-23 90.5q0 42 9.5 95.5t9.5 100.5q0 50 -25 77.5t-71 27.5h-24v49 h28q71 0 110.5 -40.5t39.5 -113.5q0 -47 -9.5 -100.5t-9.5 -95.5q0 -50 23 -80t63 -34v-52z" horiz-adv-x="358"/>
<glyph glyph-name="exclamdown.case" d="M168 0h-69l9 500h51zM178 685q0 -19 -13 -32t-32 -13t-32 13t-13 32t13 32t32 13t32 -13t13 -32z" horiz-adv-x="266"/>
<glyph glyph-name="guillemotleft.case" d="M290 156l-39 -31l-182 237l182 237l39 -31l-159 -206zM498 156l-39 -31l-181 237l181 237l39 -31l-158 -206z" horiz-adv-x="578"/>
<glyph glyph-name="uni00AD.case" d="M341 346h-266v56h266v-56z" horiz-adv-x="416"/>
<glyph glyph-name="periodcentered.case" d="M167 374q0 -19 -13 -32t-32 -13t-32 13t-13 32t13 32t32 13t32 -13t13 -32z" horiz-adv-x="244"/>
<glyph glyph-name="guillemotright.case" d="M300 362l-181 -237l-39 31l158 206l-158 206l39 31zM509 362l-182 -237l-39 31l159 206l-159 206l39 31z" horiz-adv-x="578"/>
<glyph glyph-name="questiondown.case" d="M433 27q-70 -37 -169 -37q-101 0 -156 48t-55 130q0 68 53 119t119 72l4 141h50l5 -174q-71 -18 -120 -58.5t-49 -97.5q0 -60 39 -94t114 -34q83 0 143 32zM299 685q0 -19 -13 -32t-32 -13t-32 13t-13 32t13 32t32 13t32 -13t13 -32z" horiz-adv-x="467"/>
<glyph glyph-name="endash.case" d="M408 349h-412v50h412v-50z" horiz-adv-x="404"/>
<glyph glyph-name="emdash.case" d="M722 349h-636v50h636v-50z" horiz-adv-x="808"/>
<glyph glyph-name="guilsinglleft.case" d="M290 156l-39 -31l-182 237l182 237l39 -31l-159 -206z" horiz-adv-x="369"/>
<glyph glyph-name="guilsinglright.case" d="M300 362l-181 -237l-39 31l158 206l-158 206l39 31z" horiz-adv-x="369"/>
<glyph glyph-name="parenleft.dnom" d="M222 -74l-36 -22q-122 155 -122 308t122 308l36 -22q-109 -143 -109 -286t109 -286z" horiz-adv-x="253"/>
<glyph glyph-name="parenright.dnom" d="M190 212q0 -153 -122 -308l-37 22q109 143 109 286t-109 286l37 22q122 -155 122 -308z" horiz-adv-x="253"/>
<glyph glyph-name="comma.dnom" d="M141 53l-79 -163h-39l59 163q13 18 33 18q22 0 26 -18z" horiz-adv-x="198"/>
<glyph glyph-name="hyphen.dnom" d="M310 195h-252v42h252v-42z"/>
<glyph glyph-name="period.dnom" d="M138 33q0 -16 -11.5 -27t-27.5 -11t-27 11t-11 27t11 27t27 11t27.5 -11t11.5 -27z" horiz-adv-x="198"/>
<glyph glyph-name="zero.dnom" d="M279 212q0 80 -23.5 130t-71.5 50t-71.5 -50t-23.5 -130t23.5 -129.5t71.5 -49.5t71.5 49.5t23.5 129.5zM327 212q0 -97 -36 -158.5t-107 -61.5t-107 61.5t-36 158.5t36 158.5t107 61.5t107 -61.5t36 -158.5z"/>
<glyph glyph-name="one.dnom" d="M254 0h-48v363q-48 -30 -130 -46l-10 40q42 7 85 25t66 42h37v-424z"/>
<glyph glyph-name="two.dnom" d="M317 0h-300l189 208q52 56 52 98q0 39 -25.5 62t-73.5 23q-53 0 -102 -22l-15 38q60 25 118 25q70 0 108 -34.5t38 -90.5t-64 -124l-133 -141h208v-42z"/>
<glyph glyph-name="three.dnom" d="M314 119q0 -58 -43.5 -92.5t-116.5 -34.5q-65 0 -120 25l16 38q51 -22 104 -22q54 0 83.5 22t29.5 64t-37 65t-101 23h-17v37q63 4 99.5 26t36.5 55q0 66 -91 66q-48 0 -96 -21l-18 37q58 25 117 25q64 0 100 -28t36 -78q0 -63 -83 -93v-2q41 -11 71 -39t30 -73z"/>
<glyph glyph-name="four.dnom" d="M239 381h-2q-10 -23 -23 -41l-136 -192h159v186zM332 111h-52v-111h-44v111h-204v37l198 276h50v-276h52v-37z"/>
<glyph glyph-name="five.dnom" d="M318 124q0 -59 -46 -95.5t-118 -36.5q-61 0 -117 25l17 37q45 -21 100 -21q53 0 84.5 24.5t31.5 66.5q0 93 -134 93q-38 0 -72 -5l24 212h222v-42h-180l-15 -127q11 1 31 1q84 0 128 -34.5t44 -97.5z"/>
<glyph glyph-name="six.dnom" d="M281 124q0 44 -28.5 67.5t-75.5 23.5q-44 0 -84 -17q-6 -30 -6 -46q0 -52 26.5 -85.5t73.5 -33.5q41 0 67.5 27t26.5 64zM329 124q0 -54 -40 -93t-102 -39q-70 0 -108 46t-38 114q0 91 62.5 170.5t173.5 109.5l15 -40q-65 -17 -114.5 -57t-72.5 -95q40 14 75 14 q66 0 107.5 -34.5t41.5 -95.5z"/>
<glyph glyph-name="seven.dnom" d="M338 424l-202 -424h-53l187 382h-232v42h300z"/>
<glyph glyph-name="eight.dnom" d="M281 103q0 35 -24.5 56.5t-72.5 41.5q-48 -20 -72.5 -41.5t-24.5 -56.5q0 -33 26.5 -52.5t70.5 -19.5t70.5 19.5t26.5 52.5zM270 326q0 29 -23.5 48.5t-62.5 19.5t-62.5 -19.5t-23.5 -48.5q0 -30 22 -49t64 -37q42 18 64 37t22 49zM328 102q0 -50 -40.5 -80t-103.5 -30 t-103.5 29.5t-40.5 80.5q0 75 98 119q-85 41 -85 105q0 47 36.5 76.5t94.5 29.5t94.5 -30t36.5 -76q0 -64 -85 -105q98 -44 98 -119z"/>
<glyph glyph-name="nine.dnom" d="M281 273q0 52 -26.5 85t-73.5 33q-41 0 -67.5 -27t-26.5 -64q0 -44 28.5 -67.5t75.5 -23.5q44 0 84 17q6 30 6 47zM327 272q0 -91 -62.5 -170.5t-173.5 -109.5l-15 40q65 17 114.5 57t72.5 95q-40 -14 -75 -14q-66 0 -107.5 34.5t-41.5 95.5q0 54 40 93t102 39 q70 0 108 -46t38 -114z"/>
<glyph glyph-name="grave.lc" d="M310 603h-48l-96 131q6 19 29 19q24 0 40 -19z" horiz-adv-x="460"/>
<glyph glyph-name="dieresis.lc" d="M229 669q0 -16 -11.5 -27.5t-27.5 -11.5t-27.5 11.5t-11.5 27.5t11.5 27t27.5 11t27.5 -11t11.5 -27zM405 669q0 -16 -11.5 -27.5t-27.5 -11.5t-27.5 11.5t-11.5 27.5t11.5 27t27.5 11t27.5 -11t11.5 -27z" horiz-adv-x="577"/>
<glyph glyph-name="macron.lc" d="M256 637h-232v45h232v-45z" horiz-adv-x="300"/>
<glyph glyph-name="acute.lc" d="M389 734l-96 -131h-48l75 131q16 19 40 19q23 0 29 -19z" horiz-adv-x="539"/>
<glyph glyph-name="circumflex.lc" d="M408 626l-28 -25l-102 91l-102 -91l-28 25l99 100q15 15 31 15q15 0 30 -15z" horiz-adv-x="540"/>
<glyph glyph-name="caron.lc" d="M353 719l-100 -100q-16 -16 -30 -16q-15 0 -31 16l-99 100l28 24l102 -91l102 91z" horiz-adv-x="482"/>
<glyph glyph-name="breve.lc" d="M269 728q-4 -58 -38.5 -92.5t-90.5 -34.5q-57 0 -91.5 34.5t-38.5 92.5l41 6q15 -88 89 -88q73 0 88 88z" horiz-adv-x="300"/>
<glyph glyph-name="dotaccent.lc" d="M181 671q0 -17 -12 -29t-29 -12t-29 12t-12 29t12 28.5t29 11.5t29 -11.5t12 -28.5z" horiz-adv-x="341"/>
<glyph glyph-name="ring.lc" d="M299 684q0 22 -15.5 38t-38.5 16t-38.5 -16t-15.5 -38t15.5 -37.5t38.5 -15.5t38.5 15.5t15.5 37.5zM334 684q0 -36 -26 -61t-63 -25t-63 25t-26 61t26 61t63 25t63 -25t26 -61z" horiz-adv-x="461"/>
<glyph glyph-name="tilde.lc" d="M407 695q-6 -33 -25.5 -55t-50.5 -22q-28 0 -57.5 25.5t-45.5 25.5q-38 0 -47 -52l-35 21q6 33 26 55t51 22q28 0 57 -25.5t45 -25.5q38 0 47 52z" horiz-adv-x="542"/>
<glyph glyph-name="hungarumlaut.lc" d="M141 734l-97 -131h-43l78 131q15 19 36 19t26 -19zM278 734l-97 -131h-43l78 131q15 19 36 19t26 -19z" horiz-adv-x="300"/>
<glyph glyph-name="tonos.lc" d="M216 735l-70 -132h-43l48 132q11 19 34 19q22 0 31 -19z" horiz-adv-x="283"/>
<glyph glyph-name="diedot.lc" d="M231 669q0 -16 -11.5 -27.5t-27.5 -11.5t-27.5 11.5t-11.5 27.5t11.5 27t27.5 11t27.5 -11t11.5 -27z" horiz-adv-x="366"/>
<glyph glyph-name="zero.lf" d="M459 362q0 90 -16 159.5t-54.5 116t-96.5 46.5t-96.5 -46.5t-54.5 -116t-16 -159.5t16 -159.5t54.5 -115.5t96.5 -46t96.5 46t54.5 115.5t16 159.5zM519 362q0 -104 -22 -185t-74.5 -134t-130.5 -53t-130.5 53t-74.5 134t-22 185t22 185t74.5 134t130.5 53t130.5 -53 t74.5 -134t22 -185z" horiz-adv-x="584"/>
<glyph glyph-name="one.lf" d="M317 0h-60v647q-76 -57 -222 -85l-10 49q72 13 139 42.5t106 70.5h47v-724z" horiz-adv-x="433"/>
<glyph glyph-name="two.lf" d="M503 0h-479l308 353q29 33 45.5 55.5t31.5 57t15 67.5q0 70 -49.5 110t-138.5 40q-80 0 -153 -33l-23 47q80 37 178 37q115 0 181 -53.5t66 -145.5q0 -93 -107 -213l-243 -270h368v-52z" horiz-adv-x="563"/>
<glyph glyph-name="three.lf" d="M468 202q0 -96 -70 -154t-188 -58q-106 0 -186 37l21 49q73 -34 164 -34q90 0 144.5 43t54.5 117q0 78 -65.5 119t-168.5 41h-23v46q94 6 159.5 48.5t65.5 105.5q0 58 -43 89.5t-116 31.5q-80 0 -153 -33l-22 47q77 37 179 37q100 0 157.5 -45.5t57.5 -124.5 q0 -62 -47.5 -107t-109.5 -61v-2q33 -6 63 -18t60 -33.5t48 -58t18 -82.5z" horiz-adv-x="526"/>
<glyph glyph-name="four.lf" d="M383 669h-2q-22 -43 -49 -83l-237 -349h285v337zM518 192h-83v-192h-56v192h-341v46l331 486h66v-487h83v-45z" horiz-adv-x="558"/>
<glyph glyph-name="five.lf" d="M472 209q0 -99 -72 -159t-189 -60q-101 0 -183 37l21 49q73 -34 161 -34q91 0 146.5 45t55.5 121q0 173 -234 173q-44 0 -108 -8l39 351h351v-52h-299l-28 -246q35 3 66 3q130 0 201.5 -57.5t71.5 -162.5z" horiz-adv-x="530"/>
<glyph glyph-name="six.lf" d="M463 210q0 81 -50 125t-132 44q-33 0 -76.5 -10t-71.5 -24q-10 -48 -10 -86q0 -95 45.5 -157t128.5 -62q73 0 119.5 50t46.5 120zM523 211q0 -90 -64 -155.5t-162 -65.5q-111 0 -171.5 76.5t-60.5 192.5q0 154 100.5 289.5t275.5 185.5l18 -50q-119 -34 -198.5 -111 t-113.5 -177q64 30 139 30q107 0 172 -57t65 -158z" horiz-adv-x="584"/>
<glyph glyph-name="seven.lf" d="M499 724l-344 -724h-68l326 672h-392v52h478z" horiz-adv-x="526"/>
<glyph glyph-name="eight.lf" d="M459 173q0 65 -44 104t-126 74q-82 -35 -126.5 -74t-44.5 -104q0 -62 47.5 -98.5t123.5 -36.5t123 36.5t47 98.5zM439 561q0 55 -40.5 90.5t-109.5 35.5t-110 -35.5t-41 -90.5q0 -57 40 -93t111 -67q71 30 110.5 66.5t39.5 93.5zM518 172q0 -82 -64.5 -132t-164.5 -50 q-101 0 -165.5 49.5t-64.5 132.5q0 76 47 122t129 82q-154 68 -154 185q0 76 57.5 124.5t150.5 48.5t150 -48.5t57 -124.5q0 -117 -154 -185q82 -36 129 -82t47 -122z" horiz-adv-x="577"/>
<glyph glyph-name="nine.lf" d="M461 465q0 95 -45.5 157t-128.5 62q-73 0 -119.5 -50t-46.5 -120q0 -81 50 -124.5t132 -43.5q34 0 77 9.5t71 23.5q10 48 10 86zM519 465q0 -154 -100.5 -289.5t-275.5 -185.5l-18 50q119 34 198.5 111t113.5 177q-64 -30 -139 -30q-107 0 -172 57t-65 158q0 90 64 155.5 t162 65.5q111 0 171.5 -76.5t60.5 -192.5z" horiz-adv-x="584"/>
<glyph glyph-name="parenleft.numr" d="M222 226l-36 -22q-122 155 -122 308t122 308l36 -22q-109 -143 -109 -286t109 -286z" horiz-adv-x="253"/>
<glyph glyph-name="parenright.numr" d="M190 512q0 -153 -122 -308l-37 22q109 143 109 286t-109 286l37 22q122 -155 122 -308z" horiz-adv-x="253"/>
<glyph glyph-name="plus.numr" d="M315 693h-109v-111h-44v111h-109v42h109v111h44v-111h109v-42z"/>
<glyph glyph-name="comma.numr" d="M141 353l-79 -163h-39l59 163q13 18 33 18q22 0 26 -18z" horiz-adv-x="198"/>
<glyph glyph-name="hyphen.numr" d="M310 495h-252v42h252v-42z"/>
<glyph glyph-name="period.numr" d="M138 333q0 -16 -11.5 -27t-27.5 -11t-27 11t-11 27t11 27t27 11t27.5 -11t11.5 -27z" horiz-adv-x="198"/>
<glyph glyph-name="zero.numr" d="M279 512q0 80 -23.5 130t-71.5 50t-71.5 -50t-23.5 -130t23.5 -129.5t71.5 -49.5t71.5 49.5t23.5 129.5zM327 512q0 -97 -36 -158.5t-107 -61.5t-107 61.5t-36 158.5t36 158.5t107 61.5t107 -61.5t36 -158.5z"/>
<glyph glyph-name="one.numr" d="M254 300h-48v363q-48 -30 -130 -46l-10 40q42 7 85 25t66 42h37v-424z"/>
<glyph glyph-name="two.numr" d="M317 300h-300l189 208q52 56 52 98q0 39 -25.5 62t-73.5 23q-53 0 -102 -22l-15 38q60 25 118 25q70 0 108 -34.5t38 -90.5t-64 -124l-133 -141h208v-42z"/>
<glyph glyph-name="three.numr" d="M314 419q0 -58 -43.5 -92.5t-116.5 -34.5q-65 0 -120 25l16 38q51 -22 104 -22q54 0 83.5 22t29.5 64t-37 65t-101 23h-17v37q63 4 99.5 26t36.5 55q0 66 -91 66q-48 0 -96 -21l-18 37q58 25 117 25q64 0 100 -28t36 -78q0 -63 -83 -93v-2q41 -11 71 -39t30 -73z"/>
<glyph glyph-name="four.numr" d="M239 681h-2q-10 -23 -23 -41l-136 -192h159v186zM332 411h-52v-111h-44v111h-204v37l198 276h50v-276h52v-37z"/>
<glyph glyph-name="five.numr" d="M318 424q0 -59 -46 -95.5t-118 -36.5q-61 0 -117 25l17 37q45 -21 100 -21q53 0 84.5 24.5t31.5 66.5q0 93 -134 93q-38 0 -72 -5l24 212h222v-42h-180l-15 -127q11 1 31 1q84 0 128 -34.5t44 -97.5z"/>
<glyph glyph-name="six.numr" d="M281 424q0 44 -28.5 67.5t-75.5 23.5q-44 0 -84 -17q-6 -30 -6 -46q0 -52 26.5 -85.5t73.5 -33.5q41 0 67.5 27t26.5 64zM329 424q0 -54 -40 -93t-102 -39q-70 0 -108 46t-38 114q0 91 62.5 170.5t173.5 109.5l15 -40q-65 -17 -114.5 -57t-72.5 -95q40 14 75 14 q66 0 107.5 -34.5t41.5 -95.5z"/>
<glyph glyph-name="seven.numr" d="M338 724l-202 -424h-53l187 382h-232v42h300z"/>
<glyph glyph-name="eight.numr" d="M281 403q0 35 -24.5 56.5t-72.5 41.5q-48 -20 -72.5 -41.5t-24.5 -56.5q0 -33 26.5 -52.5t70.5 -19.5t70.5 19.5t26.5 52.5zM270 626q0 29 -23.5 48.5t-62.5 19.5t-62.5 -19.5t-23.5 -48.5q0 -30 22 -49t64 -37q42 18 64 37t22 49zM328 402q0 -50 -40.5 -80t-103.5 -30 t-103.5 29.5t-40.5 80.5q0 75 98 119q-85 41 -85 105q0 47 36.5 76.5t94.5 29.5t94.5 -30t36.5 -76q0 -64 -85 -105q98 -44 98 -119z"/>
<glyph glyph-name="nine.numr" d="M281 573q0 52 -26.5 85t-73.5 33q-41 0 -67.5 -27t-26.5 -64q0 -44 28.5 -67.5t75.5 -23.5q44 0 84 17q6 30 6 47zM327 572q0 -91 -62.5 -170.5t-173.5 -109.5l-15 40q65 17 114.5 57t72.5 95q-40 -14 -75 -14q-66 0 -107.5 34.5t-41.5 95.5q0 54 40 93t102 39 q70 0 108 -46t38 -114z"/>
<glyph glyph-name="equal.numr" d="M315 636h-262v42h262v-42zM315 750h-262v43h262v-43z"/>
<glyph glyph-name="n.numr" d="M347 500h-48v262q0 43 -25.5 67t-75.5 24q-52 0 -91 -15v-338h-47v365q61 28 138 28q72 0 110.5 -34t38.5 -97v-262z" horiz-adv-x="406"/>
<glyph glyph-name="minus.numr" d="M315 693h-262v42h262v-42z"/>
<glyph glyph-name="numbersign.sc" d="M404 345h-150l-20 -145h150zM555 345h-108l-20 -145h103v-38h-108l-23 -162h-44l23 162h-149l-24 -162h-43l23 162h-102v38h107l20 145h-101v38h106l23 156h43l-22 -156h150l22 156h44l-22 -156h102v-38z" horiz-adv-x="640"/>
<glyph glyph-name="dollar.sc" d="M430 140q0 -66 -47 -105t-126 -44l1 -117h-52l10 116q-87 4 -142 37l22 45q23 -14 62.5 -23.5t71.5 -9.5q64 0 102 26t38 75q0 41 -30 64t-88 46q-35 13 -50 19.5t-43 21.5t-40.5 29t-23.5 37t-11 51q0 62 43 99t115 42l-1 110h52l-9 -110q68 -5 121 -37l-21 -43 q-53 32 -117 32q-57 0 -90.5 -23.5t-33.5 -68.5q0 -18 8.5 -33.5t17.5 -25t32 -21.5t33.5 -16t40.5 -16q36 -14 58 -25t47.5 -29.5t37.5 -44t12 -58.5z" horiz-adv-x="511"/>
<glyph glyph-name="percent.sc" d="M282 380q0 61 -20 95t-59 34t-59 -34t-20 -95t20 -95t59 -34t59 34t20 95zM703 159q0 61 -20 95t-59 34t-59.5 -34t-20.5 -95t20.5 -95t59.5 -34t59 34t20 95zM331 380q0 -79 -34 -124t-94 -45t-94.5 45.5t-34.5 123.5t34.5 123.5t94.5 45.5t94 -45t34 -124zM536 535 l-204 -544l-43 13l204 544zM752 159q0 -79 -34 -124t-94 -45t-94.5 45.5t-34.5 123.5t34.5 123.5t94.5 45.5t94 -45t34 -124z" horiz-adv-x="826"/>
<glyph glyph-name="ampersand.sc" d="M381 56v231l-124 -19q-142 -23 -142 -129q0 -105 151 -105q69 0 115 22zM538 312l-100 -16v-269q-29 -16 -78.5 -26.5t-95.5 -10.5q-99 0 -153 37.5t-54 109.5q0 113 130 150v1q-52 12 -79 45.5t-27 78.5q0 65 46.5 101t121.5 36t130 -37l-21 -40q-45 31 -105 31 q-53 0 -83.5 -24t-30.5 -69q0 -43 31.5 -70t77.5 -27q20 0 62 6l220 36z" horiz-adv-x="576"/>
<glyph glyph-name="at.sc" d="M500 31v305q-29 18 -69 18q-60 0 -95 -41.5t-35 -115.5q0 -83 47 -124.5t134 -41.5h18zM753 251q0 -129 -74.5 -195t-193.5 -66q-110 0 -171.5 53.5t-61.5 153.5q0 92 49 145t131 53q70 0 116 -38v-320q156 35 156 214q0 111 -69 183.5t-208 72.5q-145 0 -229 -90.5 t-84 -227.5q0 -140 90.5 -227.5t264.5 -87.5q140 0 235 68l25 -36q-104 -75 -260 -75q-194 0 -299 100.5t-105 257.5q0 154 98 257t264 103q160 0 243 -86t83 -212z" horiz-adv-x="818"/>
<glyph glyph-name="a.sc" d="M378 207l-88 227l-17 60h-2q-6 -32 -17 -60l-87 -227h211zM518 0h-63l-63 166h-239l-64 -166h-62l213 539h64z" horiz-adv-x="545"/>
<glyph glyph-name="b.sc" d="M408 143q0 65 -59 94q-36 18 -106 18h-106v-200q44 -22 113 -22q78 0 118 28.5t40 81.5zM389 406q0 46 -38 73t-105 27q-69 0 -109 -21v-188h102q44 0 66 4.5t43 18.5q41 29 41 86zM465 141q0 -71 -55.5 -111t-159.5 -40q-97 0 -169 37v485q69 37 165 37 q93 0 146.5 -38.5t53.5 -102.5q0 -50 -31.5 -85t-70.5 -43v-2q47 -10 84 -43.5t37 -93.5z" horiz-adv-x="523"/>
<glyph glyph-name="c.sc" d="M413 27q-55 -37 -128 -37q-92 0 -159.5 70t-67.5 210t67.5 209.5t159.5 69.5q73 0 128 -37l-21 -44q-45 31 -103 31q-70 0 -120.5 -56t-50.5 -173t50.5 -173t120.5 -56q58 0 103 31z" horiz-adv-x="461"/>
<glyph glyph-name="d.sc" d="M423 270q0 110 -49.5 171t-137.5 61q-58 0 -98 -20v-424q40 -20 98 -20q89 0 138 61t49 171zM482 270q0 -129 -65 -204.5t-181 -75.5q-86 0 -157 38v484q69 37 157 37q116 0 181 -75t65 -204z" horiz-adv-x="540"/>
<glyph glyph-name="e.sc" d="M380 0h-301v539h301v-46h-243v-194h226v-46h-226v-207h243v-46z" horiz-adv-x="430"/>
<glyph glyph-name="f.sc" d="M375 493h-238v-194h222v-46h-222v-253h-58v539h296v-46z" horiz-adv-x="419"/>
<glyph glyph-name="g.sc" d="M471 27q-61 -37 -158 -37q-119 0 -187 77t-68 202t68 202.5t189 77.5q86 0 144 -37l-20 -42q-51 32 -121 32q-96 0 -148.5 -64.5t-52.5 -168.5t51.5 -168.5t142.5 -64.5q67 0 104 20v198h-135v45h191v-272z" horiz-adv-x="546"/>
<glyph glyph-name="h.sc" d="M462 0h-59v253h-265v-253h-59v539h59v-240h265v240h59v-539z" horiz-adv-x="541"/>
<glyph glyph-name="i.sc" d="M143 0h-59v539h59v-539z" horiz-adv-x="227"/>
<glyph glyph-name="j.sc" d="M143 51q0 -118 -55 -184.5t-142 -87.5v53q61 21 99.5 75t38.5 144v488h59v-488z" horiz-adv-x="227"/>
<glyph glyph-name="k.sc" d="M455 0h-72l-242 277h-2v-277h-58v539h58v-254h2l237 254h72l-244 -257z" horiz-adv-x="472"/>
<glyph glyph-name="l.sc" d="M370 0h-289v539h59v-489h230v-50z" horiz-adv-x="402"/>
<glyph glyph-name="m.sc" d="M675 0h-56l-55 419l-6 71h-2q-8 -39 -19 -70l-147 -420h-50l-147 420l-19 70h-2q-2 -39 -6 -71l-55 -419h-56l76 539h73l142 -409l18 -66h2q7 37 17 66l143 409h73z" horiz-adv-x="730"/>
<glyph glyph-name="n.sc" d="M497 0h-62l-271 417l-32 60h-2q2 -37 2 -67v-410h-53v539h65l267 -410l33 -60h2q-2 38 -2 69v401h53v-539z" horiz-adv-x="576"/>
<glyph glyph-name="o.sc" d="M443 270q0 104 -41.5 167t-121.5 63t-121.5 -63t-41.5 -167t41.5 -167t121.5 -63t121.5 63t41.5 167zM502 270q0 -124 -58 -202t-164 -78t-164 78t-58 202t58 201.5t164 77.5t164 -77.5t58 -201.5z" horiz-adv-x="560"/>
<glyph glyph-name="p.sc" d="M385 384q0 57 -37.5 88.5t-107.5 31.5q-61 0 -103 -21v-213q23 -5 80 -5q81 0 124.5 32t43.5 87zM444 384q0 -74 -59 -119.5t-165 -45.5q-56 0 -83 6v-225h-58v512q68 37 161 37q97 0 150.5 -44t53.5 -121z" horiz-adv-x="485"/>
<glyph glyph-name="q.sc" d="M443 270q0 104 -41.5 167t-121.5 63t-121.5 -63t-41.5 -167t41.5 -167t121.5 -63t121.5 63t41.5 167zM502 270q0 -177 -106 -247l100 -137l-46 -36l-102 151q-28 -11 -68 -11q-106 0 -164 78t-58 202t58 201.5t164 77.5t164 -77.5t58 -201.5z" horiz-adv-x="560"/>
<glyph glyph-name="r.sc" d="M393 394q0 53 -39 82t-102 29q-69 0 -114 -20v-207h104q151 0 151 116zM477 0h-63l-83 167q-33 68 -98 68h-95v-235h-57v512q64 37 171 37q89 0 144 -41t55 -113q0 -58 -37.5 -96.5t-95.5 -47.5v-2q45 -23 72 -76z" horiz-adv-x="516"/>
<glyph glyph-name="s.sc" d="M393 138q0 -67 -51.5 -107.5t-140.5 -40.5q-90 0 -154 37l23 46q57 -34 130 -34q60 0 96 27t36 73q0 44 -29.5 68t-92.5 47q-74 28 -111.5 60.5t-37.5 95.5q0 60 46 99.5t125 39.5q82 0 142 -37l-23 -44q-49 33 -115 33q-53 0 -84 -26t-31 -65q0 -44 27.5 -66t87.5 -45 q39 -15 61 -25.5t47.5 -29.5t37 -45t11.5 -61z" horiz-adv-x="448"/>
<glyph glyph-name="t.sc" d="M413 489h-162v-489h-58v489h-162v50h382v-50z" horiz-adv-x="444"/>
<glyph glyph-name="u.sc" d="M466 172q0 -82 -53 -132t-140 -50t-140.5 50t-53.5 132v367h59v-367q0 -61 37 -97t98 -36t97.5 36t36.5 97v367h59v-367z" horiz-adv-x="545"/>
<glyph glyph-name="v.sc" d="M494 539l-196 -539h-65l-197 539h64l140 -404l24 -80h2q12 44 24 80l140 404h64z" horiz-adv-x="530"/>
<glyph glyph-name="w.sc" d="M737 539l-156 -539h-60l-114 407l-15 72h-2q-6 -39 -15 -72l-114 -407h-60l-156 539h60l110 -405l16 -78h2q8 43 17 78l111 405h60l111 -405l17 -78h2q7 44 16 78l111 405h59z" horiz-adv-x="782"/>
<glyph glyph-name="x.sc" d="M473 0h-67l-154 237h-2l-153 -237h-67l186 280l-172 259h67l139 -217h2l140 217h67l-172 -259z" horiz-adv-x="503"/>
<glyph glyph-name="y.sc" d="M479 539l-197 -324v-215h-59v215l-197 324h67l159 -270h2l158 270h67z" horiz-adv-x="505"/>
<glyph glyph-name="z.sc" d="M412 0h-377l279 489h-264v50h353l-278 -489h287v-50z" horiz-adv-x="458"/>
<glyph glyph-name="exclamdown.sc" d="M168 0h-69l9 500h51zM178 685q0 -19 -13 -32t-32 -13t-32 13t-13 32t13 32t32 13t32 -13t13 -32z" horiz-adv-x="266"/>
<glyph glyph-name="cent.sc" d="M403 27q-40 -32 -109 -37l5 -116h-52l6 118q-78 8 -130 65.5t-52 153.5t52 153.5t130 65.5l-6 109h52l-4 -108q67 -5 108 -36l-21 -42q-38 31 -101 31t-107 -45.5t-44 -127.5t44 -127.5t107 -45.5q62 0 101 32z" horiz-adv-x="456"/>
<glyph glyph-name="sterling.sc" d="M466 0h-391q114 98 114 203q0 31 -10 67h-85v42h73q-12 40 -12 75q0 78 48.5 120t134.5 42q74 0 126 -37l-22 -42q-44 32 -101 32q-62 0 -95 -29.5t-33 -86.5q0 -40 12 -74h154v-42h-143q8 -29 8 -66q0 -85 -67 -156h289v-48z" horiz-adv-x="551"/>
<glyph glyph-name="yen.sc" d="M509 539l-114 -190h101v-37h-122l-56 -93h178v-36h-178v-183h-58v183h-178v36h178l-56 93h-122v37h101l-114 190h67l152 -265h2l152 265h67z" horiz-adv-x="578"/>
<glyph glyph-name="ordfeminine.sc" d="M290 483l-61 156l-13 48h-2q-6 -26 -14 -48l-60 -156h150zM402 333h-55l-45 115h-174l-45 -115h-55l157 391h59z" horiz-adv-x="430"/>
<glyph glyph-name="questiondown.sc" d="M433 27q-70 -37 -169 -37q-101 0 -156 48t-55 130q0 68 53 119t119 72l4 141h50l5 -174q-71 -18 -120 -58.5t-49 -97.5q0 -60 39 -94t114 -34q83 0 143 32zM299 685q0 -19 -13 -32t-32 -13t-32 13t-13 32t13 32t32 13t32 -13t13 -32z" horiz-adv-x="467"/>
<glyph glyph-name="germandbls.sc" d="M393 138q0 -67 -51.5 -107.5t-140.5 -40.5q-90 0 -154 37l23 46q57 -34 130 -34q60 0 96 27t36 73q0 44 -29.5 68t-92.5 47q-74 28 -111.5 60.5t-37.5 95.5q0 60 46 99.5t125 39.5q82 0 142 -37l-23 -44q-49 33 -115 33q-53 0 -84 -26t-31 -65q0 -44 27.5 -66t87.5 -45 q39 -15 61 -25.5t47.5 -29.5t37 -45t11.5 -61zM831 138q0 -67 -51.5 -107.5t-140.5 -40.5q-90 0 -154 37l23 46q57 -34 130 -34q60 0 96 27t36 73q0 44 -29.5 68t-92.5 47q-74 28 -111.5 60.5t-37.5 95.5q0 60 46 99.5t125 39.5q82 0 142 -37l-23 -44q-49 33 -115 33 q-53 0 -84 -26t-31 -65q0 -44 27.5 -66t87.5 -45q39 -15 61 -25.5t47.5 -29.5t37 -45t11.5 -61z" horiz-adv-x="886"/>
<glyph glyph-name="agrave.sc" d="M301 603h-48l-96 131q6 19 29 19q24 0 40 -19zM378 207l-88 227l-17 60h-2q-6 -32 -17 -60l-87 -227h211zM518 0h-63l-63 166h-239l-64 -166h-62l213 539h64z" horiz-adv-x="545"/>
<glyph glyph-name="aacute.sc" d="M387 734l-96 -131h-48l75 131q16 19 40 19q23 0 29 -19zM378 207l-88 227l-17 60h-2q-6 -32 -17 -60l-87 -227h211zM518 0h-63l-63 166h-239l-64 -166h-62l213 539h64z" horiz-adv-x="545"/>
<glyph glyph-name="acircumflex.sc" d="M402 626l-28 -25l-102 91l-102 -91l-28 25l99 100q15 15 31 15q15 0 30 -15zM378 207l-88 227l-17 60h-2q-6 -32 -17 -60l-87 -227h211zM518 0h-63l-63 166h-239l-64 -166h-62l213 539h64z" horiz-adv-x="545"/>
<glyph glyph-name="atilde.sc" d="M404 695q-6 -33 -25.5 -55t-50.5 -22q-28 0 -57.5 25.5t-45.5 25.5q-38 0 -47 -52l-35 21q6 33 26 55t51 22q28 0 57 -25.5t45 -25.5q38 0 47 52zM378 207l-88 227l-17 60h-2q-6 -32 -17 -60l-87 -227h211zM518 0h-63l-63 166h-239l-64 -166h-62l213 539h64z" horiz-adv-x="545"/>
<glyph glyph-name="adieresis.sc" d="M223 669q0 -16 -11.5 -27.5t-27.5 -11.5t-27.5 11.5t-11.5 27.5t11.5 27t27.5 11t27.5 -11t11.5 -27zM399 669q0 -16 -11.5 -27.5t-27.5 -11.5t-27.5 11.5t-11.5 27.5t11.5 27t27.5 11t27.5 -11t11.5 -27zM378 207l-88 227l-17 60h-2q-6 -32 -17 -60l-87 -227h211zM518 0 h-63l-63 166h-239l-64 -166h-62l213 539h64z" horiz-adv-x="545"/>
<glyph glyph-name="aring.sc" d="M326 684q0 22 -16 38t-38 16t-38 -16t-16 -38t15.5 -37.5t38.5 -15.5t38.5 15.5t15.5 37.5zM361 684q0 -36 -26 -61t-63 -25t-63 25t-26 61t26 61t63 25t63 -25t26 -61zM378 207l-88 227l-17 60h-2q-6 -32 -17 -60l-87 -227h211zM518 0h-63l-63 166h-239l-64 -166h-62 l213 539h64z" horiz-adv-x="545"/>
<glyph glyph-name="ae.sc" d="M371 207l-49 228l-8 60h-2q-12 -32 -26 -60l-117 -228h202zM683 0h-269l-36 166h-229l-84 -166h-65l284 539h344v-46h-267l44 -192h206v-46h-196l49 -209h219v-46z" horiz-adv-x="722"/>
<glyph glyph-name="ccedilla.sc" d="M413 27q-55 -37 -128 -37q-92 0 -159.5 70t-67.5 210t67.5 209.5t159.5 69.5q73 0 128 -37l-21 -44q-45 31 -103 31q-70 0 -120.5 -56t-50.5 -173t50.5 -173t120.5 -56q58 0 103 31zM344 -124q0 -37 -39.5 -57t-111.5 -20q-37 0 -72 4l19 35q27 -3 53 -3q99 0 99 41 q0 32 -63 32q-24 0 -54 -3l18 34q27 3 48 3q103 0 103 -66z" horiz-adv-x="461"/>
<glyph glyph-name="egrave.sc" d="M270 603h-48l-96 131q6 19 29 19q24 0 40 -19zM380 0h-301v539h301v-46h-243v-194h226v-46h-226v-207h243v-46z" horiz-adv-x="430"/>
<glyph glyph-name="eacute.sc" d="M316 734l-96 -131h-48l75 131q16 19 40 19q23 0 29 -19zM380 0h-301v539h301v-46h-243v-194h226v-46h-226v-207h243v-46z" horiz-adv-x="430"/>
<glyph glyph-name="ecircumflex.sc" d="M359 626l-28 -25l-102 91l-102 -91l-28 25l99 100q15 15 31 15q15 0 30 -15zM380 0h-301v539h301v-46h-243v-194h226v-46h-226v-207h243v-46z" horiz-adv-x="430"/>
<glyph glyph-name="edieresis.sc" d="M179 669q0 -16 -11.5 -27.5t-27.5 -11.5t-27.5 11.5t-11.5 27.5t11.5 27t27.5 11t27.5 -11t11.5 -27zM355 669q0 -16 -11.5 -27.5t-27.5 -11.5t-27.5 11.5t-11.5 27.5t11.5 27t27.5 11t27.5 -11t11.5 -27zM380 0h-301v539h301v-46h-243v-194h226v-46h-226v-207h243v-46z " horiz-adv-x="430"/>
<glyph glyph-name="igrave.sc" d="M157 603h-48l-96 131q6 19 29 19q24 0 40 -19zM143 0h-59v539h59v-539z" horiz-adv-x="227"/>
<glyph glyph-name="iacute.sc" d="M214 734l-96 -131h-48l75 131q16 19 40 19q23 0 29 -19zM143 0h-59v539h59v-539z" horiz-adv-x="227"/>
<glyph glyph-name="icircumflex.sc" d="M244 626l-28 -25l-102 91l-102 -91l-28 25l99 100q15 15 31 15q15 0 30 -15zM143 0h-59v539h59v-539z" horiz-adv-x="227"/>
<glyph glyph-name="idieresis.sc" d="M65 669q0 -16 -11.5 -27.5t-27.5 -11.5t-27.5 11.5t-11.5 27.5t11.5 27t27.5 11t27.5 -11t11.5 -27zM241 669q0 -16 -11.5 -27.5t-27.5 -11.5t-27.5 11.5t-11.5 27.5t11.5 27t27.5 11t27.5 -11t11.5 -27zM143 0h-59v539h59v-539z" horiz-adv-x="227"/>
<glyph glyph-name="eth.sc" d="M433 270q0 110 -49.5 171t-137.5 61q-59 0 -99 -20v-187h124v-41h-124v-196q42 -21 99 -21q88 0 137.5 61.5t49.5 171.5zM492 270q0 -129 -65 -204.5t-181 -75.5q-86 0 -157 38v226h-65v41h65v217q69 37 157 37q116 0 181 -75t65 -204z" horiz-adv-x="550"/>
<glyph glyph-name="ntilde.sc" d="M416 695q-6 -33 -25.5 -55t-50.5 -22q-28 0 -57.5 25.5t-45.5 25.5q-38 0 -47 -52l-35 21q6 33 26 55t51 22q28 0 57 -25.5t45 -25.5q38 0 47 52zM497 0h-62l-271 417l-32 60h-2q2 -37 2 -67v-410h-53v539h65l267 -410l33 -60h2q-2 38 -2 69v401h53v-539z" horiz-adv-x="576"/>
<glyph glyph-name="ograve.sc" d="M317 603h-48l-96 131q6 19 29 19q24 0 40 -19zM443 270q0 104 -41.5 167t-121.5 63t-121.5 -63t-41.5 -167t41.5 -167t121.5 -63t121.5 63t41.5 167zM502 270q0 -124 -58 -202t-164 -78t-164 78t-58 202t58 201.5t164 77.5t164 -77.5t58 -201.5z" horiz-adv-x="560"/>
<glyph glyph-name="oacute.sc" d="M382 734l-96 -131h-48l75 131q16 19 40 19q23 0 29 -19zM443 270q0 104 -41.5 167t-121.5 63t-121.5 -63t-41.5 -167t41.5 -167t121.5 -63t121.5 63t41.5 167zM502 270q0 -124 -58 -202t-164 -78t-164 78t-58 202t58 201.5t164 77.5t164 -77.5t58 -201.5z" horiz-adv-x="560"/>
<glyph glyph-name="ocircumflex.sc" d="M410 626l-28 -25l-102 91l-102 -91l-28 25l99 100q15 15 31 15q15 0 30 -15zM443 270q0 104 -41.5 167t-121.5 63t-121.5 -63t-41.5 -167t41.5 -167t121.5 -63t121.5 63t41.5 167zM502 270q0 -124 -58 -202t-164 -78t-164 78t-58 202t58 201.5t164 77.5t164 -77.5 t58 -201.5z" horiz-adv-x="560"/>
<glyph glyph-name="otilde.sc" d="M406 695q-6 -33 -25.5 -55t-50.5 -22q-28 0 -57.5 25.5t-45.5 25.5q-38 0 -47 -52l-35 21q6 33 26 55t51 22q28 0 57 -25.5t45 -25.5q38 0 47 52zM443 270q0 104 -41.5 167t-121.5 63t-121.5 -63t-41.5 -167t41.5 -167t121.5 -63t121.5 63t41.5 167zM502 270 q0 -124 -58 -202t-164 -78t-164 78t-58 202t58 201.5t164 77.5t164 -77.5t58 -201.5z" horiz-adv-x="560"/>
<glyph glyph-name="odieresis.sc" d="M231 669q0 -16 -11.5 -27.5t-27.5 -11.5t-27.5 11.5t-11.5 27.5t11.5 27t27.5 11t27.5 -11t11.5 -27zM407 669q0 -16 -11.5 -27.5t-27.5 -11.5t-27.5 11.5t-11.5 27.5t11.5 27t27.5 11t27.5 -11t11.5 -27zM443 270q0 104 -41.5 167t-121.5 63t-121.5 -63t-41.5 -167 t41.5 -167t121.5 -63t121.5 63t41.5 167zM502 270q0 -124 -58 -202t-164 -78t-164 78t-58 202t58 201.5t164 77.5t164 -77.5t58 -201.5z" horiz-adv-x="560"/>
<glyph glyph-name="oslash.sc" d="M447 270q0 99 -37 160l-235 -352q42 -42 105 -42q81 0 124 65.5t43 168.5zM386 461q-41 43 -106 43q-81 0 -124 -65.5t-43 -168.5q0 -97 38 -161zM502 270q0 -124 -58 -202t-164 -78q-77 0 -133 46l-57 -85l-30 22l60 91q-62 77 -62 206q0 124 58 201.5t164 77.5 q79 0 133 -46l56 84l31 -22l-60 -90q62 -77 62 -205z" horiz-adv-x="560"/>
<glyph glyph-name="ugrave.sc" d="M311 603h-48l-96 131q6 19 29 19q24 0 40 -19zM466 172q0 -82 -53 -132t-140 -50t-140.5 50t-53.5 132v367h59v-367q0 -61 37 -97t98 -36t97.5 36t36.5 97v367h59v-367z" horiz-adv-x="545"/>
<glyph glyph-name="uacute.sc" d="M370 734l-96 -131h-48l75 131q16 19 40 19q23 0 29 -19zM466 172q0 -82 -53 -132t-140 -50t-140.5 50t-53.5 132v367h59v-367q0 -61 37 -97t98 -36t97.5 36t36.5 97v367h59v-367z" horiz-adv-x="545"/>
<glyph glyph-name="ucircumflex.sc" d="M403 626l-28 -25l-102 91l-102 -91l-28 25l99 100q15 15 31 15q15 0 30 -15zM466 172q0 -82 -53 -132t-140 -50t-140.5 50t-53.5 132v367h59v-367q0 -61 37 -97t98 -36t97.5 36t36.5 97v367h59v-367z" horiz-adv-x="545"/>
<glyph glyph-name="udieresis.sc" d="M224 669q0 -16 -11.5 -27.5t-27.5 -11.5t-27.5 11.5t-11.5 27.5t11.5 27t27.5 11t27.5 -11t11.5 -27zM400 669q0 -16 -11.5 -27.5t-27.5 -11.5t-27.5 11.5t-11.5 27.5t11.5 27t27.5 11t27.5 -11t11.5 -27zM466 172q0 -82 -53 -132t-140 -50t-140.5 50t-53.5 132v367h59 v-367q0 -61 37 -97t98 -36t97.5 36t36.5 97v367h59v-367z" horiz-adv-x="545"/>
<glyph glyph-name="yacute.sc" d="M365 734l-96 -131h-48l75 131q16 19 40 19q23 0 29 -19zM479 539l-197 -324v-215h-59v215l-197 324h67l159 -270h2l158 270h67z" horiz-adv-x="505"/>
<glyph glyph-name="thorn.sc" d="M368 277q0 57 -35.5 87.5t-100.5 30.5q-55 0 -95 -19v-213q27 -5 76 -5q74 0 114.5 32.5t40.5 86.5zM426 276q0 -74 -56 -119t-155 -45q-51 0 -78 5v-117h-58v539h58v-115q45 17 97 17q92 0 142 -44t50 -121z" horiz-adv-x="468"/>
<glyph glyph-name="ydieresis.sc" d="M204 669q0 -16 -11.5 -27.5t-27.5 -11.5t-27.5 11.5t-11.5 27.5t11.5 27t27.5 11t27.5 -11t11.5 -27zM380 669q0 -16 -11.5 -27.5t-27.5 -11.5t-27.5 11.5t-11.5 27.5t11.5 27t27.5 11t27.5 -11t11.5 -27zM479 539l-197 -324v-215h-59v215l-197 324h67l159 -270h2 l158 270h67z" horiz-adv-x="505"/>
<glyph glyph-name="amacron.sc" d="M388 637h-232v45h232v-45zM378 207l-88 227l-17 60h-2q-6 -32 -17 -60l-87 -227h211zM518 0h-63l-63 166h-239l-64 -166h-62l213 539h64z" horiz-adv-x="545"/>
<glyph glyph-name="abreve.sc" d="M402 728q-4 -58 -38 -92.5t-91 -34.5t-91.5 34.5t-38.5 92.5l41 6q15 -88 89 -88q73 0 88 88zM378 207l-88 227l-17 60h-2q-6 -32 -17 -60l-87 -227h211zM518 0h-63l-63 166h-239l-64 -166h-62l213 539h64z" horiz-adv-x="545"/>
<glyph glyph-name="aogonek.sc" d="M378 207l-88 227l-17 60h-2q-6 -32 -17 -60l-87 -227h211zM551 -173q-38 -19 -83 -19q-44 0 -72 23t-28 62q0 59 86 110l-62 163h-239l-64 -166h-62l213 539h64l214 -539h-15q-84 -47 -84 -102q0 -22 15 -35t39 -13q33 0 64 14z" horiz-adv-x="545"/>
<glyph glyph-name="cacute.sc" d="M413 27q-55 -37 -128 -37q-92 0 -159.5 70t-67.5 210t67.5 209.5t159.5 69.5q73 0 128 -37l-21 -44q-45 31 -103 31q-70 0 -120.5 -56t-50.5 -173t50.5 -173t120.5 -56q58 0 103 31zM376 734l-96 -131h-48l75 131q16 19 40 19q23 0 29 -19z" horiz-adv-x="461"/>
<glyph glyph-name="ccircumflex.sc" d="M413 27q-55 -37 -128 -37q-92 0 -159.5 70t-67.5 210t67.5 209.5t159.5 69.5q73 0 128 -37l-21 -44q-45 31 -103 31q-70 0 -120.5 -56t-50.5 -173t50.5 -173t120.5 -56q58 0 103 31zM394 626l-28 -25l-102 91l-102 -91l-28 25l99 100q15 15 31 15q15 0 30 -15z" horiz-adv-x="461"/>
<glyph glyph-name="cdotaccent.sc" d="M413 27q-55 -37 -128 -37q-92 0 -159.5 70t-67.5 210t67.5 209.5t159.5 69.5q73 0 128 -37l-21 -44q-45 31 -103 31q-70 0 -120.5 -56t-50.5 -173t50.5 -173t120.5 -56q58 0 103 31zM301 671q0 -17 -12 -29t-29 -12t-29 12t-12 29t12 28.5t29 11.5t29 -11.5t12 -28.5z " horiz-adv-x="461"/>
<glyph glyph-name="ccaron.sc" d="M413 27q-55 -37 -128 -37q-92 0 -159.5 70t-67.5 210t67.5 209.5t159.5 69.5q73 0 128 -37l-21 -44q-45 31 -103 31q-70 0 -120.5 -56t-50.5 -173t50.5 -173t120.5 -56q58 0 103 31zM392 719l-100 -100q-16 -16 -30 -16q-15 0 -31 16l-99 100l28 24l102 -91l102 91z" horiz-adv-x="461"/>
<glyph glyph-name="dcaron.sc" d="M378 719l-100 -100q-16 -16 -30 -16q-15 0 -31 16l-99 100l28 24l102 -91l102 91zM423 270q0 110 -49.5 171t-137.5 61q-58 0 -98 -20v-424q40 -20 98 -20q89 0 138 61t49 171zM482 270q0 -129 -65 -204.5t-181 -75.5q-86 0 -157 38v484q69 37 157 37q116 0 181 -75 t65 -204z" horiz-adv-x="540"/>
<glyph glyph-name="dcroat.sc" d="M433 270q0 110 -49.5 171t-137.5 61q-59 0 -99 -20v-187h124v-41h-124v-196q42 -21 99 -21q88 0 137.5 61.5t49.5 171.5zM492 270q0 -129 -65 -204.5t-181 -75.5q-86 0 -157 38v226h-65v41h65v217q69 37 157 37q116 0 181 -75t65 -204z" horiz-adv-x="550"/>
<glyph glyph-name="emacron.sc" d="M344 637h-232v45h232v-45zM380 0h-301v539h301v-46h-243v-194h226v-46h-226v-207h243v-46z" horiz-adv-x="430"/>
<glyph glyph-name="ebreve.sc" d="M356 728q-4 -58 -38 -92.5t-91 -34.5t-91.5 34.5t-38.5 92.5l41 6q15 -88 89 -88q73 0 88 88zM380 0h-301v539h301v-46h-243v-194h226v-46h-226v-207h243v-46z" horiz-adv-x="430"/>
<glyph glyph-name="edotaccent.sc" d="M269 671q0 -17 -12 -29t-29 -12t-29 12t-12 29t12 28.5t29 11.5t29 -11.5t12 -28.5zM380 0h-301v539h301v-46h-243v-194h226v-46h-226v-207h243v-46z" horiz-adv-x="430"/>
<glyph glyph-name="eogonek.sc" d="M397 -171q-41 -19 -84 -19q-44 0 -72 22.5t-28 57.5q0 59 82 110h-216v539h301v-46h-243v-192h226v-46h-226v-209h243v-46h-28q-89 -54 -89 -103q0 -19 15 -32t40 -13q32 0 64 14z" horiz-adv-x="430"/>
<glyph glyph-name="ecaron.sc" d="M356 719l-100 -100q-16 -16 -30 -16q-15 0 -31 16l-99 100l28 24l102 -91l102 91zM380 0h-301v539h301v-46h-243v-194h226v-46h-226v-207h243v-46z" horiz-adv-x="430"/>
<glyph glyph-name="gcircumflex.sc" d="M410 626l-28 -25l-102 91l-102 -91l-28 25l99 100q15 15 31 15q15 0 30 -15zM471 27q-61 -37 -158 -37q-119 0 -187 77t-68 202t68 202.5t189 77.5q86 0 144 -37l-20 -42q-51 32 -121 32q-96 0 -148.5 -64.5t-52.5 -168.5t51.5 -168.5t142.5 -64.5q67 0 104 20v198h-135 v45h191v-272z" horiz-adv-x="546"/>
<glyph glyph-name="gbreve.sc" d="M412 728q-4 -58 -38 -92.5t-91 -34.5t-91.5 34.5t-38.5 92.5l41 6q15 -88 89 -88q73 0 88 88zM471 27q-61 -37 -158 -37q-119 0 -187 77t-68 202t68 202.5t189 77.5q86 0 144 -37l-20 -42q-51 32 -121 32q-96 0 -148.5 -64.5t-52.5 -168.5t51.5 -168.5t142.5 -64.5 q67 0 104 20v198h-135v45h191v-272z" horiz-adv-x="546"/>
</font>
</defs>
</svg>
